{"glyphs":{"0":{"ha":847,"x_min":97,"x_max":750,"o":"m 424 -21 q 257 22 331 -21 q 140 139 183 65 q 97 306 97 213 l 97 694 q 140 861 97 787 q 257 978 183 935 q 424 1021 331 1021 q 590 978 516 1021 q 707 861 664 935 q 750 694 750 787 l 750 306 q 707 139 750 213 q 590 22 664 65 q 424 -21 516 -21 m 424 78 q 536 108 485 78 q 617 189 587 138 q 647 301 647 240 l 647 699 q 617 812 647 761 q 536 893 587 863 q 424 923 485 923 q 311 893 362 923 q 231 812 260 863 q 201 699 201 761 l 201 301 q 231 189 201 240 q 311 108 260 138 q 424 78 362 78 z "},"1":{"ha":542,"x_min":83,"x_max":375,"o":"m 272 0 l 272 886 l 83 773 l 83 888 l 272 1000 l 375 1000 l 375 0 l 272 0 z "},"2":{"ha":792,"x_min":69,"x_max":722,"o":"m 69 1 l 70 94 l 522 502 q 600 602 581 555 q 619 702 619 650 q 590 814 619 764 q 511 893 560 864 q 401 923 462 923 q 287 892 337 923 q 208 812 237 862 q 180 703 179 762 l 76 703 q 119 866 76 794 q 235 980 162 938 q 402 1021 309 1021 q 566 978 493 1021 q 680 863 638 935 q 722 701 722 790 q 707 591 722 639 q 661 503 692 544 q 581 419 629 463 l 179 57 l 163 99 l 722 99 l 722 1 l 69 1 z "},"3":{"ha":768,"x_min":56,"x_max":685,"o":"m 366 -20 q 229 6 292 -20 q 122 82 167 33 q 56 199 76 131 l 153 228 q 235 115 178 153 q 365 78 292 77 q 480 108 431 80 q 553 188 528 137 q 579 305 579 238 q 520 469 579 407 q 363 531 460 531 q 306 524 336 531 q 251 503 276 517 l 199 585 l 588 944 l 605 902 l 95 902 l 95 1000 l 673 1000 l 673 901 l 334 577 l 333 617 q 516 594 437 631 q 640 482 595 557 q 685 305 685 406 q 643 136 685 209 q 530 21 602 63 q 366 -20 458 -20 z "},"4":{"ha":819,"x_min":69,"x_max":749,"o":"m 538 0 l 538 194 l 69 194 l 69 291 l 404 1000 l 519 1000 l 184 291 l 538 291 l 538 583 l 640 583 l 640 291 l 749 291 l 749 194 l 640 194 l 640 0 l 538 0 z "},"5":{"ha":802,"x_min":69,"x_max":733,"o":"m 392 -21 q 249 11 315 -21 q 136 99 183 43 q 69 228 90 156 l 167 255 q 215 161 181 201 q 297 101 250 122 q 395 79 344 79 q 515 111 462 79 q 599 197 568 144 q 631 315 631 251 q 598 434 631 381 q 512 518 565 487 q 395 549 458 549 q 273 518 324 549 q 191 441 222 488 l 98 480 l 128 1000 l 663 1000 l 663 902 l 174 902 l 224 950 l 197 506 l 172 540 q 276 617 215 590 q 404 645 337 645 q 571 601 497 645 q 689 482 645 557 q 733 315 733 407 q 686 147 733 223 q 563 25 640 71 q 392 -21 485 -21 z "},"6":{"ha":862,"x_min":97,"x_max":774,"o":"m 435 -21 q 265 25 342 -21 q 143 148 188 70 q 97 324 97 226 l 97 671 q 142 850 97 772 q 266 975 188 929 q 443 1020 344 1020 q 602 983 528 1020 q 722 878 675 945 l 643 813 q 558 893 611 863 q 443 923 506 923 q 318 889 373 923 q 232 800 263 855 q 201 680 201 744 l 201 462 l 175 491 q 290 602 219 560 q 445 644 361 644 q 613 600 538 644 q 731 481 687 556 q 774 313 774 406 q 728 145 774 221 q 605 24 682 69 q 435 -21 528 -21 m 435 78 q 555 110 501 78 q 640 194 608 141 q 672 313 672 248 q 640 432 672 378 q 555 518 608 486 q 436 549 501 549 q 317 518 371 549 q 232 432 264 486 q 201 313 201 378 q 232 195 201 249 q 317 110 263 142 q 435 78 370 78 z "},"7":{"ha":697,"x_min":56,"x_max":628,"o":"m 151 0 l 519 901 l 56 901 l 56 1000 l 628 1000 l 628 901 l 260 0 l 151 0 z "},"8":{"ha":806,"x_min":83,"x_max":723,"o":"m 402 -21 q 236 17 308 -21 q 124 122 165 54 q 83 281 83 190 q 128 446 83 374 q 266 556 174 519 l 265 516 q 147 609 188 544 q 107 752 107 674 q 145 895 107 835 q 250 988 183 956 q 402 1021 316 1021 q 555 988 488 1021 q 660 895 622 956 q 698 752 698 835 q 659 610 698 674 q 542 516 621 546 l 538 556 q 677 447 631 519 q 723 281 723 374 q 682 122 723 190 q 569 17 641 54 q 402 -21 497 -21 m 402 77 q 556 130 497 77 q 615 281 615 182 q 556 432 615 381 q 402 484 498 484 q 249 432 306 484 q 191 281 191 381 q 249 130 191 182 q 402 77 308 77 m 402 583 q 538 625 485 583 q 590 752 590 668 q 538 878 590 836 q 402 920 485 920 q 267 878 319 920 q 215 752 215 836 q 267 625 215 668 q 402 583 319 583 z "},"9":{"ha":862,"x_min":88,"x_max":765,"o":"m 426 1020 q 598 975 521 1020 q 719 851 674 929 q 765 676 765 773 l 765 328 q 719 149 765 228 q 596 25 674 70 q 419 -21 518 -21 q 261 17 333 -21 q 141 122 188 55 l 219 186 q 304 107 251 137 q 419 77 357 77 q 544 111 490 77 q 630 200 599 144 q 662 319 662 255 l 662 538 l 687 508 q 573 397 644 440 q 417 355 501 355 q 250 399 324 355 q 132 519 175 444 q 88 686 88 594 q 134 855 88 778 q 257 975 180 931 q 426 1020 334 1020 m 426 922 q 308 890 361 922 q 223 805 254 858 q 191 686 191 751 q 222 567 191 621 q 307 482 253 514 q 426 451 360 451 q 545 482 491 451 q 630 567 599 514 q 662 686 662 621 q 630 804 662 751 q 545 890 599 858 q 426 922 492 922 z "},"A":{"ha":880,"x_min":28,"x_max":852,"o":"m 28 0 l 372 1000 l 508 1000 l 852 0 l 746 0 l 419 943 l 459 943 l 134 0 l 28 0 m 181 242 l 181 338 l 698 338 l 698 242 l 181 242 z "},"Á":{"ha":880,"x_min":28,"x_max":852,"o":"m 494 1118 l 406 1118 l 489 1333 l 576 1333 l 494 1118 m 28 0 l 372 1000 l 508 1000 l 852 0 l 746 0 l 419 943 l 459 943 l 134 0 l 28 0 m 181 242 l 181 338 l 698 338 l 698 242 l 181 242 z "},"Ă":{"ha":880,"x_min":28,"x_max":852,"o":"m 441 1089 q 350 1113 391 1089 q 286 1178 310 1138 q 262 1268 262 1219 l 347 1268 q 374 1201 347 1229 q 441 1174 402 1174 q 508 1201 481 1174 q 535 1268 535 1229 l 620 1268 q 596 1178 620 1219 q 531 1113 572 1138 q 441 1089 490 1089 m 28 0 l 372 1000 l 508 1000 l 852 0 l 746 0 l 419 943 l 459 943 l 134 0 l 28 0 m 181 242 l 181 338 l 698 338 l 698 242 l 181 242 z "},"Ắ":{"ha":880,"x_min":28,"x_max":852,"o":"m 440 1089 q 350 1113 390 1089 q 285 1178 309 1138 q 261 1268 261 1219 l 346 1268 q 374 1201 346 1229 q 440 1174 401 1174 q 507 1201 480 1174 q 535 1268 535 1229 l 619 1268 q 595 1178 619 1219 q 530 1113 571 1138 q 440 1089 490 1089 m 483 1306 l 395 1306 l 478 1521 l 565 1521 l 483 1306 m 28 0 l 372 1000 l 508 1000 l 852 0 l 746 0 l 419 943 l 459 943 l 134 0 l 28 0 m 181 242 l 181 338 l 698 338 l 698 242 l 181 242 z "},"Ặ":{"ha":880,"x_min":28,"x_max":852,"o":"m 381 -266 l 381 -151 l 499 -151 l 499 -266 l 381 -266 m 441 1089 q 350 1113 391 1089 q 286 1178 310 1138 q 262 1268 262 1219 l 347 1268 q 374 1201 347 1229 q 441 1174 402 1174 q 508 1201 481 1174 q 535 1268 535 1229 l 620 1268 q 596 1178 620 1219 q 531 1113 572 1138 q 441 1089 490 1089 m 28 0 l 372 1000 l 508 1000 l 852 0 l 746 0 l 419 943 l 459 943 l 134 0 l 28 0 m 181 242 l 181 338 l 698 338 l 698 242 l 181 242 z "},"Ằ":{"ha":880,"x_min":28,"x_max":852,"o":"m 440 1089 q 350 1113 390 1089 q 285 1178 309 1138 q 261 1268 261 1219 l 346 1268 q 373 1201 346 1229 q 440 1174 401 1174 q 507 1201 479 1174 q 535 1268 535 1229 l 619 1268 q 595 1178 619 1219 q 530 1113 571 1138 q 440 1089 490 1089 m 398 1306 l 315 1521 l 402 1521 l 485 1306 l 398 1306 m 28 0 l 372 1000 l 508 1000 l 852 0 l 746 0 l 419 943 l 459 943 l 134 0 l 28 0 m 181 242 l 181 338 l 698 338 l 698 242 l 181 242 z "},"Ẳ":{"ha":880,"x_min":28,"x_max":852,"o":"m 440 1089 q 350 1113 390 1089 q 285 1178 309 1138 q 261 1268 261 1219 l 346 1268 q 374 1201 346 1229 q 440 1174 401 1174 q 507 1201 480 1174 q 535 1268 535 1229 l 619 1268 q 595 1178 619 1219 q 530 1113 571 1138 q 440 1089 490 1089 m 342 1451 l 309 1505 q 376 1545 337 1534 q 452 1544 415 1556 q 513 1491 489 1533 q 530 1428 531 1459 q 515 1370 530 1397 q 477 1323 501 1343 q 424 1293 453 1303 l 390 1340 q 450 1391 433 1360 q 449 1452 467 1422 q 419 1477 438 1474 q 380 1474 400 1481 q 342 1451 359 1467 m 28 0 l 372 1000 l 508 1000 l 852 0 l 746 0 l 419 943 l 459 943 l 134 0 l 28 0 m 181 242 l 181 338 l 698 338 l 698 242 l 181 242 z "},"Ẵ":{"ha":880,"x_min":28,"x_max":852,"o":"m 535 1308 q 477 1320 505 1308 q 424 1347 450 1332 q 374 1375 398 1363 q 331 1387 351 1387 q 296 1365 303 1387 q 296 1319 288 1344 l 224 1319 q 236 1425 208 1382 q 325 1469 264 1469 q 383 1457 355 1469 q 437 1429 411 1444 q 486 1402 463 1414 q 531 1390 510 1390 q 564 1410 555 1390 q 565 1459 574 1431 l 637 1459 q 625 1353 653 1398 q 535 1308 597 1308 m 428 1089 q 338 1113 379 1089 q 273 1178 297 1138 q 249 1268 249 1219 l 334 1268 q 362 1201 334 1229 q 428 1174 390 1174 q 495 1201 468 1174 q 523 1268 523 1229 l 608 1268 q 584 1178 608 1219 q 519 1113 560 1138 q 428 1089 478 1089 m 28 0 l 372 1000 l 508 1000 l 852 0 l 746 0 l 419 943 l 459 943 l 134 0 l 28 0 m 181 242 l 181 338 l 698 338 l 698 242 l 181 242 z "},"Â":{"ha":880,"x_min":28,"x_max":852,"o":"m 233 1118 l 392 1306 l 487 1306 l 647 1118 l 542 1118 l 440 1238 l 338 1118 l 233 1118 m 28 0 l 372 1000 l 508 1000 l 852 0 l 746 0 l 419 943 l 459 943 l 134 0 l 28 0 m 181 242 l 181 338 l 698 338 l 698 242 l 181 242 z "},"Ấ":{"ha":880,"x_min":28,"x_max":852,"o":"m 233 1118 l 392 1306 l 486 1306 l 646 1118 l 542 1118 l 439 1238 l 337 1118 l 233 1118 m 710 1264 l 622 1264 l 705 1479 l 792 1479 l 710 1264 m 28 0 l 372 1000 l 508 1000 l 852 0 l 746 0 l 419 943 l 459 943 l 134 0 l 28 0 m 181 242 l 181 338 l 698 338 l 698 242 l 181 242 z "},"Ậ":{"ha":880,"x_min":28,"x_max":852,"o":"m 381 -266 l 381 -151 l 499 -151 l 499 -266 l 381 -266 m 233 1118 l 392 1306 l 487 1306 l 647 1118 l 542 1118 l 440 1238 l 338 1118 l 233 1118 m 28 0 l 372 1000 l 508 1000 l 852 0 l 746 0 l 419 943 l 459 943 l 134 0 l 28 0 m 181 242 l 181 338 l 698 338 l 698 242 l 181 242 z "},"Ầ":{"ha":880,"x_min":28,"x_max":852,"o":"m 233 1118 l 392 1306 l 486 1306 l 646 1118 l 542 1118 l 439 1238 l 337 1118 l 233 1118 m 620 1264 l 538 1479 l 625 1479 l 708 1264 l 620 1264 m 28 0 l 372 1000 l 508 1000 l 852 0 l 746 0 l 419 943 l 459 943 l 134 0 l 28 0 m 181 242 l 181 338 l 698 338 l 698 242 l 181 242 z "},"Ẩ":{"ha":880,"x_min":28,"x_max":852,"o":"m 233 1118 l 392 1306 l 487 1306 l 647 1118 l 542 1118 l 440 1238 l 338 1118 l 233 1118 m 644 1275 l 610 1328 q 677 1369 639 1358 q 753 1368 716 1380 q 815 1315 791 1356 q 832 1251 833 1283 q 817 1193 831 1220 q 778 1147 802 1167 q 726 1117 754 1127 l 692 1164 q 751 1214 734 1183 q 751 1276 769 1245 q 720 1301 740 1297 q 681 1298 701 1305 q 644 1275 661 1290 m 28 0 l 372 1000 l 508 1000 l 852 0 l 746 0 l 419 943 l 459 943 l 134 0 l 28 0 m 181 242 l 181 338 l 698 338 l 698 242 l 181 242 z "},"Ẫ":{"ha":880,"x_min":28,"x_max":852,"o":"m 231 1118 l 390 1306 l 485 1306 l 644 1118 l 540 1118 l 438 1238 l 335 1118 l 231 1118 m 547 1340 q 490 1352 517 1340 q 436 1380 463 1364 q 387 1407 410 1395 q 343 1419 363 1419 q 308 1398 316 1419 q 308 1352 301 1376 l 236 1352 q 249 1457 221 1414 q 338 1501 276 1501 q 395 1489 367 1501 q 450 1461 424 1477 q 499 1434 476 1446 q 543 1422 522 1422 q 577 1443 567 1422 q 577 1491 586 1464 l 649 1491 q 638 1385 665 1430 q 547 1340 610 1340 m 28 0 l 372 1000 l 508 1000 l 852 0 l 746 0 l 419 943 l 459 943 l 134 0 l 28 0 m 181 242 l 181 338 l 698 338 l 698 242 l 181 242 z "},"Ä":{"ha":880,"x_min":28,"x_max":852,"o":"m 517 1147 l 517 1258 l 628 1258 l 628 1147 l 517 1147 m 253 1147 l 253 1258 l 364 1258 l 364 1147 l 253 1147 m 28 0 l 372 1000 l 508 1000 l 852 0 l 746 0 l 419 943 l 459 943 l 134 0 l 28 0 m 181 242 l 181 338 l 698 338 l 698 242 l 181 242 z "},"Ạ":{"ha":880,"x_min":28,"x_max":852,"o":"m 381 -266 l 381 -151 l 499 -151 l 499 -266 l 381 -266 m 28 0 l 372 1000 l 508 1000 l 852 0 l 746 0 l 419 943 l 459 943 l 134 0 l 28 0 m 181 242 l 181 338 l 698 338 l 698 242 l 181 242 z "},"À":{"ha":880,"x_min":28,"x_max":852,"o":"m 387 1118 l 303 1333 l 391 1333 l 474 1118 l 387 1118 m 852 0 l 746 0 l 422 943 l 461 943 l 134 0 l 28 0 l 372 1000 l 508 1000 l 852 0 m 699 242 l 182 242 l 182 338 l 699 338 l 699 242 z "},"Ả":{"ha":880,"x_min":28,"x_max":852,"o":"m 359 1275 l 326 1328 q 393 1369 354 1358 q 469 1368 432 1380 q 531 1315 506 1356 q 548 1251 548 1283 q 533 1193 547 1220 q 494 1147 518 1167 q 442 1117 470 1127 l 408 1164 q 467 1214 450 1183 q 467 1276 484 1245 q 436 1301 455 1297 q 397 1298 417 1305 q 359 1275 376 1290 m 28 0 l 372 1000 l 508 1000 l 852 0 l 746 0 l 419 943 l 459 943 l 134 0 l 28 0 m 181 242 l 181 338 l 698 338 l 698 242 l 181 242 z "},"Ā":{"ha":880,"x_min":28,"x_max":852,"o":"m 267 1167 l 267 1253 l 615 1253 l 615 1167 l 267 1167 m 28 0 l 372 1000 l 508 1000 l 852 0 l 746 0 l 419 943 l 459 943 l 134 0 l 28 0 m 181 242 l 181 338 l 698 338 l 698 242 l 181 242 z "},"Ą":{"ha":880,"x_min":28,"x_max":856,"o":"m 739 -335 q 672 -316 702 -335 q 624 -266 642 -297 q 606 -199 606 -235 q 632 -107 606 -154 q 701 -17 658 -60 q 797 61 744 27 l 852 0 q 774 -59 810 -26 q 717 -128 738 -93 q 695 -194 695 -164 q 711 -236 695 -219 q 748 -252 727 -252 q 781 -243 764 -252 q 812 -218 797 -233 l 856 -273 q 802 -319 833 -303 q 739 -335 771 -335 m 28 0 l 372 1000 l 508 1000 l 852 0 l 746 0 l 419 943 l 459 943 l 134 0 l 28 0 m 181 242 l 181 338 l 698 338 l 698 242 l 181 242 z "},"Å":{"ha":880,"x_min":28,"x_max":852,"o":"m 441 1081 q 365 1102 399 1081 q 309 1157 330 1122 q 288 1233 288 1191 q 309 1310 288 1275 q 365 1365 330 1344 q 441 1385 399 1385 q 518 1365 483 1385 q 573 1310 552 1344 q 593 1233 593 1275 q 573 1157 593 1191 q 518 1102 552 1122 q 441 1081 483 1081 m 441 1157 q 495 1180 473 1157 q 517 1233 517 1202 q 495 1288 517 1265 q 441 1310 473 1310 q 387 1288 410 1310 q 365 1233 365 1265 q 387 1180 365 1202 q 441 1157 410 1157 m 28 0 l 372 1000 l 508 1000 l 852 0 l 746 0 l 419 943 l 459 943 l 134 0 l 28 0 m 181 242 l 181 338 l 698 338 l 698 242 l 181 242 z "},"Ã":{"ha":880,"x_min":28,"x_max":852,"o":"m 544 1154 q 488 1166 515 1154 q 434 1193 460 1178 q 384 1221 408 1209 q 340 1233 361 1233 q 306 1211 313 1233 q 306 1166 299 1190 l 234 1166 q 246 1271 218 1228 q 335 1315 274 1315 q 393 1303 365 1315 q 447 1275 421 1291 q 496 1248 473 1260 q 540 1236 519 1236 q 574 1257 565 1236 q 574 1305 583 1278 l 647 1305 q 635 1199 663 1244 q 544 1154 607 1154 m 28 0 l 372 1000 l 508 1000 l 852 0 l 746 0 l 419 943 l 459 943 l 134 0 l 28 0 m 181 242 l 181 338 l 698 338 l 698 242 l 181 242 z "},"Æ":{"ha":1276,"x_min":28,"x_max":1206,"o":"m 28 0 l 372 1000 l 620 1000 l 620 902 l 401 902 l 458 942 l 134 0 l 28 0 m 181 242 l 181 338 l 652 338 l 652 242 l 181 242 m 581 0 l 581 1000 l 1206 1000 l 1206 902 l 683 902 l 683 556 l 1123 556 l 1123 458 l 683 458 l 683 98 l 1206 98 l 1206 0 l 581 0 z "},"B":{"ha":851,"x_min":97,"x_max":810,"o":"m 97 0 l 97 1000 l 483 1000 q 630 965 567 1000 q 727 872 692 931 q 762 742 762 813 q 719 599 762 662 q 603 512 676 536 l 602 546 q 755 449 699 518 q 810 281 810 379 q 774 131 810 194 q 670 34 737 68 q 515 0 603 0 l 97 0 m 200 98 l 490 98 q 600 120 551 98 q 677 182 649 142 q 705 279 705 222 q 679 379 705 335 q 609 450 653 424 q 509 477 565 477 l 200 477 l 200 98 m 200 574 l 483 574 q 570 595 531 574 q 633 656 610 617 q 656 744 656 694 q 607 859 656 815 q 483 903 558 903 l 200 903 l 200 574 z "},"C":{"ha":994,"x_min":42,"x_max":938,"o":"m 502 -21 q 250 45 353 -21 q 94 229 147 112 q 42 500 42 347 q 94 771 42 653 q 250 955 147 888 q 502 1021 353 1021 q 787 932 676 1021 q 938 692 897 842 l 834 665 q 719 853 802 784 q 502 923 637 923 q 307 869 385 923 q 190 720 229 816 q 149 500 151 625 q 188 280 149 375 q 306 131 227 185 q 502 77 385 77 q 719 147 637 77 q 834 335 802 217 l 938 308 q 787 68 897 158 q 502 -21 676 -21 z "},"Ć":{"ha":994,"x_min":42,"x_max":938,"o":"m 556 1118 l 468 1118 l 551 1333 l 638 1333 l 556 1118 m 502 -21 q 250 45 353 -21 q 94 229 147 112 q 42 500 42 347 q 94 771 42 653 q 250 955 147 888 q 502 1021 353 1021 q 787 932 676 1021 q 938 692 897 842 l 834 665 q 719 853 802 784 q 502 923 637 923 q 307 869 385 923 q 190 720 229 816 q 149 500 151 625 q 188 280 149 375 q 306 131 227 185 q 502 77 385 77 q 719 147 637 77 q 834 335 802 217 l 938 308 q 787 68 897 158 q 502 -21 676 -21 z "},"Č":{"ha":994,"x_min":42,"x_max":938,"o":"m 322 1306 l 426 1306 l 528 1185 l 631 1306 l 735 1306 l 576 1118 l 481 1118 l 322 1306 m 502 -21 q 250 45 353 -21 q 94 229 147 112 q 42 500 42 347 q 94 771 42 653 q 250 955 147 888 q 502 1021 353 1021 q 787 932 676 1021 q 938 692 897 842 l 834 665 q 719 853 802 784 q 502 923 637 923 q 307 869 385 923 q 190 720 229 816 q 149 500 151 625 q 188 280 149 375 q 306 131 227 185 q 502 77 385 77 q 719 147 637 77 q 834 335 802 217 l 938 308 q 787 68 897 158 q 502 -21 676 -21 z "},"Ç":{"ha":994,"x_min":42,"x_max":938,"o":"m 492 -333 q 445 -327 467 -333 q 403 -312 423 -321 l 430 -241 q 484 -253 463 -253 q 526 -236 511 -253 q 540 -199 540 -219 q 512 -153 540 -167 q 448 -128 483 -139 l 499 15 l 575 15 l 540 -83 q 600 -128 577 -99 q 624 -202 624 -157 q 585 -296 624 -258 q 492 -333 546 -333 m 502 -21 q 250 45 353 -21 q 94 229 147 112 q 42 500 42 347 q 94 771 42 653 q 250 955 147 888 q 502 1021 353 1021 q 787 932 676 1021 q 938 692 897 842 l 834 665 q 719 853 802 784 q 502 923 637 923 q 307 869 385 923 q 190 720 229 816 q 149 500 151 625 q 188 280 149 375 q 306 131 227 185 q 502 77 385 77 q 719 147 637 77 q 834 335 802 217 l 938 308 q 787 68 897 158 q 502 -21 676 -21 z "},"Ĉ":{"ha":994,"x_min":42,"x_max":938,"o":"m 295 1118 l 455 1306 l 549 1306 l 708 1118 l 604 1118 l 502 1238 l 399 1118 l 295 1118 m 502 -21 q 250 45 353 -21 q 94 229 147 112 q 42 500 42 347 q 94 771 42 653 q 250 955 147 888 q 502 1021 353 1021 q 787 932 676 1021 q 938 692 897 842 l 834 665 q 719 853 802 784 q 502 923 637 923 q 307 869 385 923 q 190 720 229 816 q 149 500 151 625 q 188 280 149 375 q 306 131 227 185 q 502 77 385 77 q 719 147 637 77 q 834 335 802 217 l 938 308 q 787 68 897 158 q 502 -21 676 -21 z "},"Ċ":{"ha":994,"x_min":42,"x_max":938,"o":"m 454 1159 l 454 1278 l 573 1278 l 573 1159 l 454 1159 m 502 -21 q 250 45 353 -21 q 94 229 147 112 q 42 500 42 347 q 94 771 42 653 q 250 955 147 888 q 502 1021 353 1021 q 787 932 676 1021 q 938 692 897 842 l 834 665 q 719 853 802 784 q 502 923 637 923 q 307 869 385 923 q 190 720 229 816 q 149 500 151 625 q 188 280 149 375 q 306 131 227 185 q 502 77 385 77 q 719 147 637 77 q 834 335 802 217 l 938 308 q 787 68 897 158 q 502 -21 676 -21 z "},"D":{"ha":933,"x_min":97,"x_max":872,"o":"m 97 0 l 97 1000 l 401 1000 q 455 999 417 1000 q 529 994 494 999 q 719 909 643 978 q 834 734 796 840 q 872 500 872 628 q 834 266 872 372 q 719 91 796 160 q 529 6 643 22 q 455 1 494 2 q 401 0 415 0 l 97 0 m 203 98 l 401 98 q 462 100 429 98 q 519 106 495 101 q 660 177 606 122 q 739 316 714 233 q 764 500 764 400 q 739 685 764 601 q 660 824 714 769 q 519 894 606 878 q 461 900 495 899 q 401 902 428 902 l 203 902 l 203 98 z "},"Ð":{"ha":924,"x_min":14,"x_max":864,"o":"m 14 456 l 14 544 l 451 544 l 451 456 l 14 456 m 89 0 l 89 1000 l 392 1000 q 447 999 408 1000 q 521 994 485 999 q 711 909 635 978 q 826 734 788 840 q 864 500 864 628 q 826 266 864 372 q 711 91 788 160 q 521 6 635 22 q 447 1 486 2 q 392 0 407 0 l 89 0 m 194 98 l 392 98 q 454 100 421 98 q 510 106 487 101 q 652 177 598 122 q 731 316 706 233 q 756 500 756 400 q 731 685 756 601 q 651 824 706 769 q 510 894 597 878 q 453 900 487 899 q 392 902 419 902 l 194 902 l 194 98 z "},"Ď":{"ha":933,"x_min":97,"x_max":872,"o":"m 203 1306 l 307 1306 l 409 1185 l 512 1306 l 616 1306 l 456 1118 l 362 1118 l 203 1306 m 97 0 l 97 1000 l 401 1000 q 455 999 417 1000 q 529 994 494 999 q 719 909 643 978 q 834 734 796 840 q 872 500 872 628 q 834 266 872 372 q 719 91 796 160 q 529 6 643 22 q 455 1 494 2 q 401 0 415 0 l 97 0 m 203 98 l 401 98 q 462 100 429 98 q 519 106 495 101 q 660 177 606 122 q 739 316 714 233 q 764 500 764 400 q 739 685 764 601 q 660 824 714 769 q 519 894 606 878 q 461 900 495 899 q 401 902 428 902 l 203 902 l 203 98 z "},"Đ":{"ha":924,"x_min":14,"x_max":864,"o":"m 14 456 l 14 544 l 451 544 l 451 456 l 14 456 m 89 0 l 89 1000 l 392 1000 q 447 999 408 1000 q 521 994 485 999 q 711 909 635 978 q 826 734 788 840 q 864 500 864 628 q 826 266 864 372 q 711 91 788 160 q 521 6 635 22 q 447 1 486 2 q 392 0 407 0 l 89 0 m 194 98 l 392 98 q 454 100 421 98 q 510 106 487 101 q 652 177 598 122 q 731 316 706 233 q 756 500 756 400 q 731 685 756 601 q 651 824 706 769 q 510 894 597 878 q 453 900 487 899 q 392 902 419 902 l 194 902 l 194 98 z "},"E":{"ha":792,"x_min":97,"x_max":722,"o":"m 97 0 l 97 1000 l 722 1000 l 722 902 l 199 902 l 199 556 l 639 556 l 639 458 l 199 458 l 199 98 l 722 98 l 722 0 l 97 0 z "},"É":{"ha":792,"x_min":97,"x_max":722,"o":"m 470 1118 l 383 1118 l 465 1333 l 553 1333 l 470 1118 m 97 0 l 97 1000 l 722 1000 l 722 902 l 199 902 l 199 556 l 639 556 l 639 458 l 199 458 l 199 98 l 722 98 l 722 0 l 97 0 z "},"Ě":{"ha":792,"x_min":97,"x_max":722,"o":"m 208 1306 l 312 1306 l 414 1185 l 516 1306 l 620 1306 l 461 1118 l 367 1118 l 208 1306 m 97 0 l 97 1000 l 722 1000 l 722 902 l 199 902 l 199 556 l 639 556 l 639 458 l 199 458 l 199 98 l 722 98 l 722 0 l 97 0 z "},"Ê":{"ha":792,"x_min":97,"x_max":722,"o":"m 195 1118 l 355 1306 l 449 1306 l 608 1118 l 504 1118 l 402 1238 l 299 1118 l 195 1118 m 97 0 l 97 1000 l 722 1000 l 722 902 l 199 902 l 199 556 l 639 556 l 639 458 l 199 458 l 199 98 l 722 98 l 722 0 l 97 0 z "},"Ế":{"ha":792,"x_min":97,"x_max":758,"o":"m 197 1118 l 357 1306 l 451 1306 l 610 1118 l 506 1118 l 404 1238 l 301 1118 l 197 1118 m 674 1264 l 587 1264 l 670 1479 l 758 1479 l 674 1264 m 97 0 l 97 1000 l 722 1000 l 722 902 l 199 902 l 199 556 l 639 556 l 639 458 l 199 458 l 199 98 l 722 98 l 722 0 l 97 0 z "},"Ệ":{"ha":792,"x_min":97,"x_max":722,"o":"m 351 -266 l 351 -151 l 469 -151 l 469 -266 l 351 -266 m 195 1118 l 355 1306 l 449 1306 l 608 1118 l 504 1118 l 402 1238 l 299 1118 l 195 1118 m 97 0 l 97 1000 l 722 1000 l 722 902 l 199 902 l 199 556 l 639 556 l 639 458 l 199 458 l 199 98 l 722 98 l 722 0 l 97 0 z "},"Ề":{"ha":792,"x_min":97,"x_max":722,"o":"m 226 1118 l 385 1306 l 480 1306 l 639 1118 l 535 1118 l 433 1238 l 331 1118 l 226 1118 m 614 1264 l 531 1479 l 618 1479 l 701 1264 l 614 1264 m 97 0 l 97 1000 l 722 1000 l 722 902 l 199 902 l 199 556 l 639 556 l 639 458 l 199 458 l 199 98 l 722 98 l 722 0 l 97 0 z "},"Ể":{"ha":833,"x_min":97,"x_max":807,"o":"m 208 1118 l 367 1306 l 462 1306 l 621 1118 l 517 1118 l 415 1238 l 313 1118 l 208 1118 m 618 1275 l 585 1328 q 652 1369 613 1358 q 728 1368 691 1380 q 790 1315 765 1356 q 807 1251 807 1283 q 792 1193 806 1220 q 753 1147 777 1167 q 701 1117 729 1127 l 667 1164 q 726 1214 709 1183 q 726 1276 743 1245 q 695 1301 714 1297 q 656 1298 676 1305 q 618 1275 635 1290 m 97 0 l 97 1000 l 722 1000 l 722 902 l 199 902 l 199 556 l 639 556 l 639 458 l 199 458 l 199 98 l 722 98 l 722 0 l 97 0 z "},"Ễ":{"ha":792,"x_min":97,"x_max":722,"o":"m 200 1118 l 359 1306 l 453 1306 l 613 1118 l 509 1118 l 406 1238 l 304 1118 l 200 1118 m 516 1340 q 459 1352 486 1340 q 405 1380 431 1364 q 356 1407 379 1395 q 312 1419 332 1419 q 277 1398 285 1419 q 277 1352 269 1376 l 205 1352 q 217 1457 190 1414 q 306 1501 245 1501 q 364 1489 336 1501 q 418 1461 392 1477 q 468 1434 444 1446 q 512 1422 491 1422 q 545 1443 536 1422 q 546 1491 555 1464 l 618 1491 q 606 1385 634 1430 q 516 1340 578 1340 m 97 0 l 97 1000 l 722 1000 l 722 902 l 199 902 l 199 556 l 639 556 l 639 458 l 199 458 l 199 98 l 722 98 l 722 0 l 97 0 z "},"Ë":{"ha":792,"x_min":97,"x_max":722,"o":"m 472 1147 l 472 1258 l 583 1258 l 583 1147 l 472 1147 m 208 1147 l 208 1258 l 319 1258 l 319 1147 l 208 1147 m 97 0 l 97 1000 l 722 1000 l 722 902 l 199 902 l 199 556 l 639 556 l 639 458 l 199 458 l 199 98 l 722 98 l 722 0 l 97 0 z "},"Ė":{"ha":792,"x_min":97,"x_max":722,"o":"m 355 1159 l 355 1278 l 473 1278 l 473 1159 l 355 1159 m 97 0 l 97 1000 l 722 1000 l 722 902 l 199 902 l 199 556 l 639 556 l 639 458 l 199 458 l 199 98 l 722 98 l 722 0 l 97 0 z "},"Ẹ":{"ha":833,"x_min":97,"x_max":722,"o":"m 351 -266 l 351 -151 l 469 -151 l 469 -266 l 351 -266 m 97 0 l 97 1000 l 722 1000 l 722 902 l 199 902 l 199 556 l 639 556 l 639 458 l 199 458 l 199 98 l 722 98 l 722 0 l 97 0 z "},"È":{"ha":792,"x_min":97,"x_max":722,"o":"m 388 1118 l 305 1333 l 392 1333 l 475 1118 l 388 1118 m 97 0 l 97 1000 l 722 1000 l 722 902 l 199 902 l 199 556 l 639 556 l 639 458 l 199 458 l 199 98 l 722 98 l 722 0 l 97 0 z "},"Ẻ":{"ha":792,"x_min":97,"x_max":722,"o":"m 337 1275 l 303 1328 q 370 1369 332 1358 q 447 1368 409 1380 q 508 1315 484 1356 q 525 1251 526 1283 q 510 1193 524 1220 q 471 1147 495 1167 q 419 1117 447 1127 l 385 1164 q 444 1214 427 1183 q 444 1276 462 1245 q 414 1301 433 1297 q 374 1298 394 1305 q 337 1275 354 1290 m 97 0 l 97 1000 l 722 1000 l 722 902 l 199 902 l 199 556 l 639 556 l 639 458 l 199 458 l 199 98 l 722 98 l 722 0 l 97 0 z "},"Ē":{"ha":792,"x_min":97,"x_max":722,"o":"m 238 1167 l 238 1253 l 586 1253 l 586 1167 l 238 1167 m 97 0 l 97 1000 l 722 1000 l 722 902 l 199 902 l 199 556 l 639 556 l 639 458 l 199 458 l 199 98 l 722 98 l 722 0 l 97 0 z "},"Ę":{"ha":792,"x_min":97,"x_max":726,"o":"m 609 -335 q 542 -316 572 -335 q 494 -266 512 -297 q 476 -199 476 -235 q 502 -107 476 -154 q 571 -17 528 -60 q 667 61 614 27 l 722 0 q 644 -59 680 -26 q 586 -128 608 -93 q 565 -194 565 -164 q 581 -236 565 -219 q 617 -252 597 -252 q 650 -243 633 -252 q 681 -218 667 -233 l 726 -273 q 672 -319 703 -303 q 609 -335 641 -335 m 97 0 l 97 1000 l 722 1000 l 722 902 l 199 902 l 199 556 l 639 556 l 639 458 l 199 458 l 199 98 l 722 98 l 722 0 l 97 0 z "},"Ẽ":{"ha":792,"x_min":97,"x_max":722,"o":"m 509 1119 q 452 1131 480 1119 q 398 1159 424 1143 q 349 1186 372 1174 q 305 1198 326 1198 q 271 1177 278 1198 q 271 1131 263 1156 l 199 1131 q 211 1236 183 1193 q 300 1280 239 1280 q 358 1268 330 1280 q 411 1241 385 1256 q 461 1213 438 1225 q 505 1201 485 1201 q 539 1222 530 1201 q 540 1270 548 1243 l 612 1270 q 599 1164 627 1209 q 509 1119 572 1119 m 97 0 l 97 1000 l 722 1000 l 722 902 l 199 902 l 199 556 l 639 556 l 639 458 l 199 458 l 199 98 l 722 98 l 722 0 l 97 0 z "},"F":{"ha":699,"x_min":97,"x_max":672,"o":"m 97 0 l 97 1000 l 672 1000 l 672 898 l 199 898 l 199 551 l 588 551 l 588 449 l 199 449 l 199 0 l 97 0 z "},"G":{"ha":979,"x_min":42,"x_max":938,"o":"m 498 -21 q 308 16 392 -21 q 164 121 223 53 q 73 285 104 189 q 42 500 42 381 q 96 774 42 657 q 253 956 151 891 q 498 1020 355 1020 q 758 945 658 1020 q 898 745 858 871 l 795 720 q 688 867 763 812 q 502 922 613 922 q 307 869 385 922 q 190 720 229 816 q 150 500 151 625 q 189 280 149 375 q 306 132 228 185 q 502 77 385 78 q 680 119 610 77 q 786 238 750 160 q 828 422 823 316 l 597 422 l 597 510 l 935 510 q 937 476 937 494 q 938 451 938 458 q 889 209 938 315 q 743 41 840 102 q 498 -21 645 -21 z "},"Ğ":{"ha":979,"x_min":42,"x_max":938,"o":"m 502 1089 q 412 1113 452 1089 q 347 1178 372 1138 q 323 1268 323 1219 l 408 1268 q 435 1201 408 1229 q 502 1174 463 1174 q 569 1201 542 1174 q 597 1268 597 1229 l 681 1268 q 657 1178 681 1219 q 592 1113 633 1138 q 502 1089 551 1089 m 498 -21 q 308 16 392 -21 q 164 121 223 53 q 73 285 104 189 q 42 500 42 381 q 96 774 42 657 q 253 956 151 891 q 498 1020 355 1020 q 758 945 658 1020 q 898 745 858 871 l 795 720 q 688 867 763 812 q 502 922 613 922 q 307 869 385 922 q 190 720 229 816 q 150 500 151 625 q 189 280 149 375 q 306 132 228 185 q 502 77 385 78 q 680 119 610 77 q 786 238 750 160 q 828 422 823 316 l 597 422 l 597 510 l 935 510 q 937 476 937 494 q 938 451 938 458 q 889 209 938 315 q 743 41 840 102 q 498 -21 645 -21 z "},"Ĝ":{"ha":979,"x_min":42,"x_max":938,"o":"m 281 1118 l 440 1306 l 535 1306 l 694 1118 l 590 1118 l 488 1238 l 385 1118 l 281 1118 m 498 -21 q 308 16 392 -21 q 164 121 223 53 q 73 285 104 189 q 42 500 42 381 q 96 774 42 657 q 253 956 151 891 q 498 1020 355 1020 q 758 945 658 1020 q 898 745 858 871 l 795 720 q 688 867 763 812 q 502 922 613 922 q 307 869 385 922 q 190 720 229 816 q 150 500 151 625 q 189 280 149 375 q 306 132 228 185 q 502 77 385 78 q 680 119 610 77 q 786 238 750 160 q 828 422 823 316 l 597 422 l 597 510 l 935 510 q 937 476 937 494 q 938 451 938 458 q 889 209 938 315 q 743 41 840 102 q 498 -21 645 -21 z "},"Ģ":{"ha":979,"x_min":42,"x_max":938,"o":"m 451 -382 l 451 -328 q 474 -323 459 -328 q 502 -305 490 -318 q 513 -266 514 -291 l 451 -266 l 451 -151 l 566 -151 l 566 -266 q 530 -353 566 -324 q 451 -382 494 -382 m 498 -21 q 308 16 392 -21 q 164 121 223 53 q 73 285 104 189 q 42 500 42 381 q 96 774 42 657 q 253 956 151 891 q 498 1020 355 1020 q 758 945 658 1020 q 898 745 858 871 l 795 720 q 688 867 763 812 q 502 922 613 922 q 307 869 385 922 q 190 720 229 816 q 150 500 151 625 q 189 280 149 375 q 306 132 228 185 q 502 77 385 78 q 680 119 610 77 q 786 238 750 160 q 828 422 823 316 l 597 422 l 597 510 l 935 510 q 937 476 937 494 q 938 451 938 458 q 889 209 938 315 q 743 41 840 102 q 498 -21 645 -21 z "},"Ġ":{"ha":979,"x_min":42,"x_max":938,"o":"m 453 1159 l 453 1278 l 572 1278 l 572 1159 l 453 1159 m 498 -21 q 308 16 392 -21 q 164 121 223 53 q 73 285 104 189 q 42 500 42 381 q 96 774 42 657 q 253 956 151 891 q 498 1020 355 1020 q 758 945 658 1020 q 898 745 858 871 l 795 720 q 688 867 763 812 q 502 922 613 922 q 307 869 385 922 q 190 720 229 816 q 150 500 151 625 q 189 280 149 375 q 306 132 228 185 q 502 77 385 78 q 680 119 610 77 q 786 238 750 160 q 828 422 823 316 l 597 422 l 597 510 l 935 510 q 937 476 937 494 q 938 451 938 458 q 889 209 938 315 q 743 41 840 102 q 498 -21 645 -21 z "},"H":{"ha":951,"x_min":97,"x_max":853,"o":"m 97 0 l 97 1000 l 199 1000 l 199 549 l 752 549 l 752 1000 l 853 1000 l 853 0 l 752 0 l 752 451 l 199 451 l 199 0 l 97 0 z "},"Ħ":{"ha":978,"x_min":14,"x_max":965,"o":"m 111 0 l 111 1000 l 213 1000 l 213 549 l 766 549 l 766 1000 l 867 1000 l 867 0 l 766 0 l 766 451 l 213 451 l 213 0 l 111 0 m 14 690 l 14 788 l 965 788 l 965 690 l 14 690 z "},"Ĥ":{"ha":951,"x_min":97,"x_max":853,"o":"m 268 1118 l 427 1306 l 522 1306 l 681 1118 l 577 1118 l 474 1238 l 372 1118 l 268 1118 m 97 0 l 97 1000 l 199 1000 l 199 549 l 752 549 l 752 1000 l 853 1000 l 853 0 l 752 0 l 752 451 l 199 451 l 199 0 l 97 0 z "},"I":{"ha":324,"x_min":111,"x_max":213,"o":"m 111 0 l 111 1000 l 213 1000 l 213 0 l 111 0 z "},"Í":{"ha":324,"x_min":111,"x_max":290,"o":"m 208 1118 l 120 1118 l 203 1333 l 290 1333 l 208 1118 m 111 0 l 111 1000 l 213 1000 l 213 0 l 111 0 z "},"Î":{"ha":324,"x_min":-45,"x_max":367,"o":"m -45 1118 l 114 1306 l 208 1306 l 367 1118 l 263 1118 l 161 1238 l 59 1118 l -45 1118 m 111 0 l 111 1000 l 213 1000 l 213 0 l 111 0 z "},"Ï":{"ha":324,"x_min":-26,"x_max":350,"o":"m 239 1147 l 239 1258 l 350 1258 l 350 1147 l 239 1147 m -26 1147 l -26 1258 l 85 1258 l 85 1147 l -26 1147 m 111 0 l 111 1000 l 213 1000 l 213 0 l 111 0 z "},"İ":{"ha":324,"x_min":103,"x_max":222,"o":"m 103 1159 l 103 1278 l 222 1278 l 222 1159 l 103 1159 m 111 0 l 111 1000 l 213 1000 l 213 0 l 111 0 z "},"Ị":{"ha":324,"x_min":103,"x_max":222,"o":"m 103 -266 l 103 -151 l 222 -151 l 222 -266 l 103 -266 m 111 0 l 111 1000 l 213 1000 l 213 0 l 111 0 z "},"Ì":{"ha":324,"x_min":33,"x_max":213,"o":"m 117 1118 l 33 1333 l 121 1333 l 204 1118 l 117 1118 m 111 0 l 111 1000 l 213 1000 l 213 0 l 111 0 z "},"Ỉ":{"ha":324,"x_min":41,"x_max":263,"o":"m 74 1275 l 41 1328 q 108 1369 69 1358 q 184 1368 147 1380 q 245 1315 222 1356 q 263 1251 263 1283 q 247 1193 262 1220 q 209 1147 233 1167 q 156 1117 185 1127 l 122 1164 q 182 1214 165 1183 q 182 1276 199 1245 q 151 1301 170 1297 q 112 1298 132 1305 q 74 1275 92 1290 m 111 0 l 111 1000 l 213 1000 l 213 0 l 111 0 z "},"Ī":{"ha":324,"x_min":-12,"x_max":336,"o":"m -12 1167 l -12 1253 l 336 1253 l 336 1167 l -12 1167 m 111 0 l 111 1000 l 213 1000 l 213 0 l 111 0 z "},"Į":{"ha":324,"x_min":-33,"x_max":217,"o":"m 99 -335 q 32 -316 63 -335 q -16 -266 2 -297 q -33 -199 -33 -235 q -8 -107 -33 -154 q 61 -17 18 -60 q 158 61 105 27 l 213 0 q 135 -59 171 -26 q 77 -128 99 -93 q 56 -194 56 -164 q 72 -236 56 -219 q 108 -252 88 -252 q 141 -243 124 -252 q 172 -218 158 -233 l 217 -273 q 163 -319 194 -303 q 99 -335 132 -335 m 111 0 l 111 1000 l 213 1000 l 213 0 l 111 0 z "},"Ĩ":{"ha":324,"x_min":-60,"x_max":384,"o":"m 266 1119 q 209 1131 237 1119 q 155 1159 181 1143 q 106 1186 129 1174 q 62 1198 83 1198 q 28 1177 35 1198 q 28 1131 20 1156 l -44 1131 q -32 1236 -60 1193 q 57 1280 -4 1280 q 115 1268 87 1280 q 168 1241 142 1256 q 218 1213 194 1225 q 262 1201 242 1201 q 296 1222 287 1201 q 297 1270 305 1243 l 369 1270 q 356 1164 384 1209 q 266 1119 328 1119 m 111 0 l 111 1000 l 213 1000 l 213 0 l 111 0 z "},"J":{"ha":644,"x_min":0,"x_max":532,"o":"m 268 -20 q 97 35 168 -20 q 0 184 25 91 l 102 208 q 160 116 115 153 q 267 78 206 78 q 346 97 306 78 q 409 158 386 115 q 427 223 424 188 q 429 308 429 258 l 429 1000 l 532 1000 l 532 308 q 531 232 532 266 q 524 168 531 199 q 499 106 517 137 q 402 11 463 42 q 268 -20 342 -20 z "},"Ĵ":{"ha":644,"x_min":0,"x_max":686,"o":"m 273 1118 l 433 1306 l 527 1306 l 686 1118 l 582 1118 l 480 1238 l 377 1118 l 273 1118 m 268 -20 q 97 35 168 -20 q 0 184 25 91 l 102 208 q 160 116 115 153 q 267 78 206 78 q 346 97 306 78 q 409 158 386 115 q 427 223 424 188 q 429 308 429 258 l 429 1000 l 532 1000 l 532 308 q 531 232 532 266 q 524 168 531 199 q 499 106 517 137 q 402 11 463 42 q 268 -20 342 -20 z "},"K":{"ha":824,"x_min":97,"x_max":824,"o":"m 97 0 l 97 1000 l 199 1000 l 199 528 l 656 1000 l 786 1000 l 320 517 l 824 0 l 691 0 l 199 500 l 199 0 l 97 0 z "},"Ķ":{"ha":824,"x_min":97,"x_max":824,"o":"m 378 -382 l 378 -328 q 402 -323 387 -328 q 429 -305 417 -318 q 440 -266 441 -291 l 378 -266 l 378 -151 l 493 -151 l 493 -266 q 457 -353 493 -324 q 378 -382 422 -382 m 97 0 l 97 1000 l 199 1000 l 199 528 l 656 1000 l 786 1000 l 320 517 l 824 0 l 691 0 l 199 500 l 199 0 l 97 0 z "},"L":{"ha":709,"x_min":111,"x_max":688,"o":"m 111 0 l 111 1000 l 213 1000 l 213 98 l 688 98 l 688 0 l 111 0 z "},"Ĺ":{"ha":709,"x_min":111,"x_max":688,"o":"m 208 1118 l 120 1118 l 203 1333 l 290 1333 l 208 1118 m 111 0 l 111 1000 l 213 1000 l 213 98 l 688 98 l 688 0 l 111 0 z "},"Ľ":{"ha":709,"x_min":111,"x_max":688,"o":"m 111 0 l 111 1000 l 213 1000 l 213 98 l 688 98 l 688 0 l 111 0 m 445 718 l 451 769 q 492 780 479 767 q 507 815 504 793 q 508 863 510 838 l 445 863 l 445 1010 l 564 1010 l 564 835 q 532 740 564 772 q 445 718 499 708 z "},"Ļ":{"ha":709,"x_min":111,"x_max":688,"o":"m 342 -382 l 342 -328 q 366 -323 351 -328 q 393 -305 381 -318 q 403 -266 405 -291 l 342 -266 l 342 -151 l 457 -151 l 457 -266 q 421 -353 457 -324 q 342 -382 385 -382 m 111 0 l 111 1000 l 213 1000 l 213 98 l 688 98 l 688 0 l 111 0 z "},"Ł":{"ha":718,"x_min":58,"x_max":697,"o":"m 58 283 l 58 397 l 469 633 l 469 519 l 58 283 m 120 0 l 120 1000 l 222 1000 l 222 98 l 697 98 l 697 0 l 120 0 z "},"M":{"ha":1167,"x_min":97,"x_max":1070,"o":"m 97 0 l 97 1000 l 191 1000 l 584 159 l 975 1000 l 1070 1000 l 1070 1 l 973 1 l 973 772 l 617 0 l 551 0 l 195 772 l 195 0 l 97 0 z "},"N":{"ha":951,"x_min":97,"x_max":853,"o":"m 97 0 l 97 1000 l 200 1000 l 751 181 l 751 1000 l 853 1000 l 853 0 l 751 0 l 200 820 l 200 0 l 97 0 z "},"Ń":{"ha":951,"x_min":97,"x_max":853,"o":"m 532 1118 l 444 1118 l 528 1333 l 615 1333 l 532 1118 m 97 0 l 97 1000 l 200 1000 l 751 181 l 751 1000 l 853 1000 l 853 0 l 751 0 l 200 820 l 200 0 l 97 0 z "},"Ň":{"ha":951,"x_min":97,"x_max":853,"o":"m 285 1306 l 390 1306 l 492 1185 l 594 1306 l 699 1306 l 540 1118 l 445 1118 l 285 1306 m 97 0 l 97 1000 l 200 1000 l 751 181 l 751 1000 l 853 1000 l 853 0 l 751 0 l 200 820 l 200 0 l 97 0 z "},"Ņ":{"ha":951,"x_min":97,"x_max":853,"o":"m 432 -382 l 432 -328 q 456 -323 440 -328 q 483 -305 471 -318 q 494 -266 495 -291 l 432 -266 l 432 -151 l 547 -151 l 547 -266 q 511 -353 547 -324 q 432 -382 475 -382 m 97 0 l 97 1000 l 200 1000 l 751 181 l 751 1000 l 853 1000 l 853 0 l 751 0 l 200 820 l 200 0 l 97 0 z "},"Ŋ":{"ha":951,"x_min":97,"x_max":853,"o":"m 751 1000 l 853 1000 l 853 -128 q 819 -240 853 -204 q 713 -276 785 -276 q 677 -274 695 -276 q 638 -267 659 -272 l 638 -183 q 665 -186 655 -185 q 685 -187 676 -187 q 745 -165 727 -187 q 763 -87 763 -144 q 752 -20 763 -52 q 716 52 742 13 l 200 820 l 200 0 l 97 0 l 97 1000 l 200 1000 l 751 181 l 751 1000 z "},"Ñ":{"ha":951,"x_min":97,"x_max":853,"o":"m 598 1119 q 541 1131 568 1119 q 487 1159 513 1143 q 438 1186 461 1174 q 394 1198 414 1198 q 359 1177 367 1198 q 359 1131 351 1156 l 287 1131 q 299 1236 272 1193 q 388 1280 327 1280 q 446 1268 418 1280 q 500 1241 474 1256 q 550 1213 526 1225 q 594 1201 573 1201 q 627 1222 618 1201 q 628 1270 637 1243 l 700 1270 q 688 1164 716 1209 q 598 1119 660 1119 m 97 0 l 97 1000 l 200 1000 l 751 181 l 751 1000 l 853 1000 l 853 0 l 751 0 l 200 820 l 200 0 l 97 0 z "},"O":{"ha":1005,"x_min":42,"x_max":963,"o":"m 502 -21 q 250 45 353 -21 q 94 229 147 112 q 42 500 42 347 q 94 771 42 653 q 250 955 147 888 q 502 1021 353 1021 q 755 955 652 1021 q 910 771 857 888 q 963 500 963 653 q 910 229 963 347 q 755 45 857 112 q 502 -21 652 -21 m 502 77 q 698 131 619 77 q 816 280 776 184 q 855 500 855 375 q 816 720 855 625 q 698 869 776 815 q 502 923 619 922 q 307 869 385 923 q 190 720 229 816 q 150 500 151 625 q 189 280 149 375 q 306 132 228 185 q 502 77 385 78 z "},"Ó":{"ha":1005,"x_min":42,"x_max":963,"o":"m 558 1118 l 471 1118 l 553 1333 l 641 1333 l 558 1118 m 502 -21 q 250 45 353 -21 q 94 229 147 112 q 42 500 42 347 q 94 771 42 653 q 250 955 147 888 q 502 1021 353 1021 q 755 955 652 1021 q 910 771 857 888 q 963 500 963 653 q 910 229 963 347 q 755 45 857 112 q 502 -21 652 -21 m 502 77 q 698 131 619 77 q 816 280 776 184 q 855 500 855 375 q 816 720 855 625 q 698 869 776 815 q 502 923 619 922 q 307 869 385 923 q 190 720 229 816 q 150 500 151 625 q 189 280 149 375 q 306 132 228 185 q 502 77 385 78 z "},"Ô":{"ha":1005,"x_min":42,"x_max":963,"o":"m 295 1118 l 454 1306 l 549 1306 l 708 1118 l 603 1118 l 501 1238 l 399 1118 l 295 1118 m 502 -21 q 250 45 353 -21 q 94 229 147 112 q 42 500 42 347 q 94 771 42 653 q 250 955 147 888 q 502 1021 353 1021 q 755 955 652 1021 q 910 771 857 888 q 963 500 963 653 q 910 229 963 347 q 755 45 857 112 q 502 -21 652 -21 m 502 77 q 698 131 619 77 q 816 280 776 184 q 855 500 855 375 q 816 720 855 625 q 698 869 776 815 q 502 923 619 922 q 307 869 385 923 q 190 720 229 816 q 150 500 151 625 q 189 280 149 375 q 306 132 228 185 q 502 77 385 78 z "},"Ố":{"ha":1005,"x_min":42,"x_max":963,"o":"m 304 1118 l 463 1306 l 558 1306 l 717 1118 l 613 1118 l 510 1238 l 408 1118 l 304 1118 m 781 1264 l 694 1264 l 776 1479 l 864 1479 l 781 1264 m 502 -21 q 250 45 353 -21 q 94 229 147 112 q 42 500 42 347 q 94 771 42 653 q 250 955 147 888 q 502 1021 353 1021 q 755 955 652 1021 q 910 771 857 888 q 963 500 963 653 q 910 229 963 347 q 755 45 857 112 q 502 -21 652 -21 m 502 77 q 698 131 619 77 q 816 280 776 184 q 855 500 855 375 q 816 720 855 625 q 698 869 776 815 q 502 923 619 922 q 307 869 385 923 q 190 720 229 816 q 150 500 151 625 q 189 280 149 375 q 306 132 228 185 q 502 77 385 78 z "},"Ộ":{"ha":1005,"x_min":42,"x_max":963,"o":"m 295 1118 l 454 1306 l 549 1306 l 708 1118 l 603 1118 l 501 1238 l 399 1118 l 295 1118 m 443 -266 l 443 -151 l 562 -151 l 562 -266 l 443 -266 m 502 -21 q 250 45 353 -21 q 94 229 147 112 q 42 500 42 347 q 94 771 42 653 q 250 955 147 888 q 502 1021 353 1021 q 755 955 652 1021 q 910 771 857 888 q 963 500 963 653 q 910 229 963 347 q 755 45 857 112 q 502 -21 652 -21 m 502 77 q 698 131 619 77 q 816 280 776 184 q 855 500 855 375 q 816 720 855 625 q 698 869 776 815 q 502 923 619 922 q 307 869 385 923 q 190 720 229 816 q 150 500 151 625 q 189 280 149 375 q 306 132 228 185 q 502 77 385 78 z "},"Ồ":{"ha":1005,"x_min":42,"x_max":963,"o":"m 295 1118 l 455 1306 l 549 1306 l 708 1118 l 604 1118 l 502 1238 l 399 1118 l 295 1118 m 683 1264 l 600 1479 l 688 1479 l 770 1264 l 683 1264 m 502 -21 q 250 45 353 -21 q 94 229 147 112 q 42 500 42 347 q 94 771 42 653 q 250 955 147 888 q 502 1021 353 1021 q 755 955 652 1021 q 910 771 857 888 q 963 500 963 653 q 910 229 963 347 q 755 45 857 112 q 502 -21 652 -21 m 502 77 q 698 131 619 77 q 816 280 776 184 q 855 500 855 375 q 816 720 855 625 q 698 869 776 815 q 502 923 619 922 q 307 869 385 923 q 190 720 229 816 q 150 500 151 625 q 189 280 149 375 q 306 132 228 185 q 502 77 385 78 z "},"Ổ":{"ha":1005,"x_min":42,"x_max":963,"o":"m 312 1118 l 471 1306 l 565 1306 l 725 1118 l 621 1118 l 518 1238 l 416 1118 l 312 1118 m 722 1275 l 689 1328 q 756 1369 717 1358 q 832 1368 794 1380 q 893 1315 869 1356 q 910 1251 911 1283 q 895 1193 910 1220 q 857 1147 881 1167 q 804 1117 833 1127 l 770 1164 q 830 1214 813 1183 q 830 1276 847 1245 q 799 1301 818 1297 q 760 1298 780 1305 q 722 1275 740 1290 m 502 -21 q 250 45 353 -21 q 94 229 147 112 q 42 500 42 347 q 94 771 42 653 q 250 955 147 888 q 502 1021 353 1021 q 755 955 652 1021 q 910 771 857 888 q 963 500 963 653 q 910 229 963 347 q 755 45 857 112 q 502 -21 652 -21 m 502 77 q 698 131 619 77 q 816 280 776 184 q 855 500 855 375 q 816 720 855 625 q 698 869 776 815 q 502 923 619 922 q 307 869 385 923 q 190 720 229 816 q 150 500 151 625 q 189 280 149 375 q 306 132 228 185 q 502 77 385 78 z "},"Ỗ":{"ha":1005,"x_min":42,"x_max":963,"o":"m 291 1118 l 450 1306 l 544 1306 l 703 1118 l 599 1118 l 497 1238 l 395 1118 l 291 1118 m 606 1340 q 549 1352 577 1340 q 495 1380 522 1364 q 446 1407 469 1395 q 402 1419 423 1419 q 368 1398 376 1419 q 368 1352 360 1376 l 296 1352 q 308 1457 281 1414 q 397 1501 336 1501 q 455 1489 427 1501 q 509 1461 483 1477 q 558 1434 535 1446 q 602 1422 582 1422 q 636 1443 627 1422 q 637 1491 645 1464 l 709 1491 q 697 1385 724 1430 q 606 1340 669 1340 m 502 -21 q 250 45 353 -21 q 94 229 147 112 q 42 500 42 347 q 94 771 42 653 q 250 955 147 888 q 502 1021 353 1021 q 755 955 652 1021 q 910 771 857 888 q 963 500 963 653 q 910 229 963 347 q 755 45 857 112 q 502 -21 652 -21 m 502 77 q 698 131 619 77 q 816 280 776 184 q 855 500 855 375 q 816 720 855 625 q 698 869 776 815 q 502 923 619 922 q 307 869 385 923 q 190 720 229 816 q 150 500 151 625 q 189 280 149 375 q 306 132 228 185 q 502 77 385 78 z "},"Ö":{"ha":1005,"x_min":42,"x_max":963,"o":"m 579 1147 l 579 1258 l 690 1258 l 690 1147 l 579 1147 m 315 1147 l 315 1258 l 426 1258 l 426 1147 l 315 1147 m 502 -21 q 250 45 353 -21 q 94 229 147 112 q 42 500 42 347 q 94 771 42 653 q 250 955 147 888 q 502 1021 353 1021 q 755 955 652 1021 q 910 771 857 888 q 963 500 963 653 q 910 229 963 347 q 755 45 857 112 q 502 -21 652 -21 m 502 77 q 698 131 619 77 q 816 280 776 184 q 855 500 855 375 q 816 720 855 625 q 698 869 776 815 q 502 923 619 922 q 307 869 385 923 q 190 720 229 816 q 150 500 151 625 q 189 280 149 375 q 306 132 228 185 q 502 77 385 78 z "},"Ọ":{"ha":1005,"x_min":42,"x_max":963,"o":"m 432 -266 l 432 -151 l 551 -151 l 551 -266 l 432 -266 m 502 -21 q 250 45 353 -21 q 94 229 147 112 q 42 500 42 347 q 94 771 42 653 q 250 955 147 888 q 502 1021 353 1021 q 755 955 652 1021 q 910 771 857 888 q 963 500 963 653 q 910 229 963 347 q 755 45 857 112 q 502 -21 652 -21 m 502 77 q 698 131 619 77 q 816 280 776 184 q 855 500 855 375 q 816 720 855 625 q 698 869 776 815 q 502 923 619 922 q 307 869 385 923 q 190 720 229 816 q 150 500 151 625 q 189 280 149 375 q 306 132 228 185 q 502 77 385 78 z "},"Ò":{"ha":1005,"x_min":42,"x_max":963,"o":"m 456 1118 l 373 1333 l 460 1333 l 543 1118 l 456 1118 m 502 -21 q 250 45 353 -21 q 94 229 147 112 q 42 500 42 347 q 94 771 42 653 q 250 955 147 888 q 502 1021 353 1021 q 755 955 652 1021 q 910 771 857 888 q 963 500 963 653 q 910 229 963 347 q 755 45 857 112 q 502 -21 652 -21 m 502 77 q 698 131 619 77 q 816 280 776 184 q 855 500 855 375 q 816 720 855 625 q 698 869 776 815 q 502 923 619 922 q 307 869 385 923 q 190 720 229 816 q 150 500 151 625 q 189 280 149 375 q 306 132 228 185 q 502 77 385 78 z "},"Ỏ":{"ha":1005,"x_min":42,"x_max":963,"o":"m 444 1275 l 412 1328 q 478 1369 440 1358 q 555 1368 517 1380 q 616 1315 592 1356 q 633 1251 633 1283 q 618 1193 633 1220 q 580 1147 603 1167 q 527 1117 556 1127 l 493 1164 q 552 1214 535 1183 q 552 1276 569 1245 q 522 1301 540 1297 q 482 1298 503 1305 q 444 1275 462 1290 m 502 -21 q 250 45 353 -21 q 94 229 147 112 q 42 500 42 347 q 94 771 42 653 q 250 955 147 888 q 502 1021 353 1021 q 755 955 652 1021 q 910 771 857 888 q 963 500 963 653 q 910 229 963 347 q 755 45 857 112 q 502 -21 652 -21 m 502 77 q 698 131 619 77 q 816 280 776 184 q 855 500 855 375 q 816 720 855 625 q 698 869 776 815 q 502 923 619 922 q 307 869 385 923 q 190 720 229 816 q 150 500 151 625 q 189 280 149 375 q 306 132 228 185 q 502 77 385 78 z "},"Ơ":{"ha":1005,"x_min":42,"x_max":963,"o":"m 780 1127 l 865 1127 q 864 1026 874 1070 q 812 955 853 981 q 728 931 779 935 q 630 956 676 928 l 630 1006 q 688 996 665 997 q 733 1006 712 995 q 777 1057 770 1024 q 780 1127 783 1090 m 502 -21 q 250 45 353 -21 q 94 229 147 112 q 42 500 42 347 q 94 771 42 653 q 250 955 147 888 q 502 1021 353 1021 q 755 955 652 1021 q 910 771 857 888 q 963 500 963 653 q 910 229 963 347 q 755 45 857 112 q 502 -21 652 -21 m 502 77 q 698 131 619 77 q 816 280 776 184 q 855 500 855 375 q 816 720 855 625 q 698 869 776 815 q 502 923 619 922 q 307 869 385 923 q 190 720 229 816 q 150 500 151 625 q 189 280 149 375 q 306 132 228 185 q 502 77 385 78 z "},"Ớ":{"ha":1005,"x_min":42,"x_max":963,"o":"m 780 1127 l 865 1127 q 864 1026 874 1070 q 812 955 853 981 q 728 931 779 935 q 630 956 676 928 l 630 1006 q 688 996 665 997 q 733 1006 712 995 q 777 1057 770 1024 q 780 1127 783 1090 m 558 1118 l 471 1118 l 553 1333 l 641 1333 l 558 1118 m 502 -21 q 250 45 353 -21 q 94 229 147 112 q 42 500 42 347 q 94 771 42 653 q 250 955 147 888 q 502 1021 353 1021 q 755 955 652 1021 q 910 771 857 888 q 963 500 963 653 q 910 229 963 347 q 755 45 857 112 q 502 -21 652 -21 m 502 77 q 698 131 619 77 q 816 280 776 184 q 855 500 855 375 q 816 720 855 625 q 698 869 776 815 q 502 923 619 922 q 307 869 385 923 q 190 720 229 816 q 150 500 151 625 q 189 280 149 375 q 306 132 228 185 q 502 77 385 78 z "},"Ợ":{"ha":1005,"x_min":42,"x_max":963,"o":"m 449 -266 l 449 -151 l 567 -151 l 567 -266 l 449 -266 m 780 1127 l 865 1127 q 864 1026 874 1070 q 812 955 853 981 q 728 931 779 935 q 630 956 676 928 l 630 1006 q 688 996 665 997 q 733 1006 712 995 q 777 1057 770 1024 q 780 1127 783 1090 m 502 -21 q 250 45 353 -21 q 94 229 147 112 q 42 500 42 347 q 94 771 42 653 q 250 955 147 888 q 502 1021 353 1021 q 755 955 652 1021 q 910 771 857 888 q 963 500 963 653 q 910 229 963 347 q 755 45 857 112 q 502 -21 652 -21 m 502 77 q 698 131 619 77 q 816 280 776 184 q 855 500 855 375 q 816 720 855 625 q 698 869 776 815 q 502 923 619 922 q 307 869 385 923 q 190 720 229 816 q 150 500 151 625 q 189 280 149 375 q 306 132 228 185 q 502 77 385 78 z "},"Ờ":{"ha":1005,"x_min":42,"x_max":963,"o":"m 780 1127 l 865 1127 q 864 1026 874 1070 q 812 955 853 981 q 728 931 779 935 q 630 956 676 928 l 630 1006 q 688 996 665 997 q 733 1006 712 995 q 777 1057 770 1024 q 780 1127 783 1090 m 456 1118 l 373 1333 l 460 1333 l 543 1118 l 456 1118 m 502 -21 q 250 45 353 -21 q 94 229 147 112 q 42 500 42 347 q 94 771 42 653 q 250 955 147 888 q 502 1021 353 1021 q 755 955 652 1021 q 910 771 857 888 q 963 500 963 653 q 910 229 963 347 q 755 45 857 112 q 502 -21 652 -21 m 502 77 q 698 131 619 77 q 816 280 776 184 q 855 500 855 375 q 816 720 855 625 q 698 869 776 815 q 502 923 619 922 q 307 869 385 923 q 190 720 229 816 q 150 500 151 625 q 189 280 149 375 q 306 132 228 185 q 502 77 385 78 z "},"Ở":{"ha":1005,"x_min":42,"x_max":963,"o":"m 780 1127 l 865 1127 q 864 1026 874 1070 q 812 955 853 981 q 728 931 779 935 q 630 956 676 928 l 630 1006 q 688 996 665 997 q 733 1006 712 995 q 777 1057 770 1024 q 780 1127 783 1090 m 444 1275 l 412 1328 q 478 1369 440 1358 q 555 1368 517 1380 q 616 1315 592 1356 q 633 1251 633 1283 q 618 1193 633 1220 q 580 1147 603 1167 q 527 1117 556 1127 l 493 1164 q 552 1214 535 1183 q 552 1276 569 1245 q 522 1301 540 1297 q 482 1298 503 1305 q 444 1275 462 1290 m 502 -21 q 250 45 353 -21 q 94 229 147 112 q 42 500 42 347 q 94 771 42 653 q 250 955 147 888 q 502 1021 353 1021 q 755 955 652 1021 q 910 771 857 888 q 963 500 963 653 q 910 229 963 347 q 755 45 857 112 q 502 -21 652 -21 m 502 77 q 698 131 619 77 q 816 280 776 184 q 855 500 855 375 q 816 720 855 625 q 698 869 776 815 q 502 923 619 922 q 307 869 385 923 q 190 720 229 816 q 150 500 151 625 q 189 280 149 375 q 306 132 228 185 q 502 77 385 78 z "},"Ỡ":{"ha":1005,"x_min":42,"x_max":963,"o":"m 780 1127 l 865 1127 q 864 1026 874 1070 q 812 955 853 981 q 728 931 779 935 q 630 956 676 928 l 630 1006 q 688 996 665 997 q 733 1006 712 995 q 777 1057 770 1024 q 780 1127 783 1090 m 502 -21 q 250 45 353 -21 q 94 229 147 112 q 42 500 42 347 q 94 771 42 653 q 250 955 147 888 q 502 1021 353 1021 q 755 955 652 1021 q 910 771 857 888 q 963 500 963 653 q 910 229 963 347 q 755 45 857 112 q 502 -21 652 -21 m 502 77 q 698 131 619 77 q 816 280 776 184 q 855 500 855 375 q 816 720 855 625 q 698 869 776 815 q 502 923 619 922 q 307 869 385 923 q 190 720 229 816 q 150 500 151 625 q 189 280 149 375 q 306 132 228 185 q 502 77 385 78 m 606 1119 q 549 1131 576 1119 q 495 1159 522 1143 q 446 1186 469 1174 q 402 1198 422 1198 q 367 1177 375 1198 q 367 1131 360 1156 l 295 1131 q 308 1236 280 1193 q 397 1280 335 1280 q 455 1268 426 1280 q 509 1241 483 1256 q 558 1213 535 1225 q 602 1201 581 1201 q 636 1222 626 1201 q 636 1270 645 1243 l 708 1270 q 697 1164 724 1209 q 606 1119 669 1119 z "},"Ő":{"ha":1005,"x_min":42,"x_max":963,"o":"m 673 1118 l 585 1118 l 668 1333 l 756 1333 l 673 1118 m 413 1118 l 325 1118 l 408 1333 l 495 1333 l 413 1118 m 502 -21 q 250 45 353 -21 q 94 229 147 112 q 42 500 42 347 q 94 771 42 653 q 250 955 147 888 q 502 1021 353 1021 q 755 955 652 1021 q 910 771 857 888 q 963 500 963 653 q 910 229 963 347 q 755 45 857 112 q 502 -21 652 -21 m 502 77 q 698 131 619 77 q 816 280 776 184 q 855 500 855 375 q 816 720 855 625 q 698 869 776 815 q 502 923 619 922 q 307 869 385 923 q 190 720 229 816 q 150 500 151 625 q 189 280 149 375 q 306 132 228 185 q 502 77 385 78 z "},"Ō":{"ha":1005,"x_min":42,"x_max":963,"o":"m 328 1167 l 328 1253 l 676 1253 l 676 1167 l 328 1167 m 502 -21 q 250 45 353 -21 q 94 229 147 112 q 42 500 42 347 q 94 771 42 653 q 250 955 147 888 q 502 1021 353 1021 q 755 955 652 1021 q 910 771 857 888 q 963 500 963 653 q 910 229 963 347 q 755 45 857 112 q 502 -21 652 -21 m 502 77 q 698 131 619 77 q 816 280 776 184 q 855 500 855 375 q 816 720 855 625 q 698 869 776 815 q 502 923 619 922 q 307 869 385 923 q 190 720 229 816 q 150 500 151 625 q 189 280 149 375 q 306 132 228 185 q 502 77 385 78 z "},"Ø":{"ha":1005,"x_min":26,"x_max":988,"o":"m 99 -18 l 26 48 l 156 189 l 174 207 l 775 860 l 787 874 l 915 1015 l 988 949 l 849 797 l 836 785 l 235 131 l 220 113 l 99 -18 m 502 -21 q 250 45 353 -21 q 94 229 147 112 q 42 500 42 347 q 94 771 42 653 q 250 955 147 888 q 502 1021 353 1021 q 755 955 652 1021 q 910 771 857 888 q 963 500 963 653 q 910 229 963 347 q 755 45 857 112 q 502 -21 652 -21 m 502 77 q 698 131 619 77 q 816 280 776 184 q 855 500 855 375 q 816 720 855 625 q 698 869 776 815 q 502 923 619 922 q 307 869 385 923 q 190 720 229 816 q 150 500 151 625 q 189 280 149 375 q 306 132 228 185 q 502 77 385 78 z "},"Õ":{"ha":1005,"x_min":42,"x_max":963,"o":"m 502 -21 q 250 45 353 -21 q 94 229 147 112 q 42 500 42 347 q 94 771 42 653 q 250 955 147 888 q 502 1021 353 1021 q 755 955 652 1021 q 910 771 857 888 q 963 500 963 653 q 910 229 963 347 q 755 45 857 112 q 502 -21 652 -21 m 502 77 q 698 131 619 77 q 816 280 776 184 q 855 500 855 375 q 816 720 855 625 q 698 869 776 815 q 502 923 619 922 q 307 869 385 923 q 190 720 229 816 q 150 500 151 625 q 189 280 149 375 q 306 132 228 185 q 502 77 385 78 m 617 1119 q 560 1131 588 1119 q 506 1159 532 1143 q 457 1186 480 1174 q 413 1198 433 1198 q 378 1177 385 1198 q 378 1131 371 1156 l 306 1131 q 318 1236 290 1193 q 408 1280 347 1280 q 465 1268 438 1280 q 519 1241 493 1256 q 568 1213 545 1225 q 613 1201 592 1201 q 646 1222 637 1201 q 647 1270 656 1243 l 719 1270 q 707 1164 735 1209 q 617 1119 679 1119 z "},"Œ":{"ha":1555,"x_min":42,"x_max":1485,"o":"m 502 -21 q 250 45 353 -21 q 94 229 147 112 q 42 500 42 347 q 94 771 42 653 q 250 955 147 888 q 502 1021 353 1021 q 755 955 652 1021 q 910 771 857 888 q 963 500 963 653 q 910 229 963 347 q 755 45 857 112 q 502 -21 652 -21 m 502 77 q 698 131 619 77 q 816 280 776 184 q 855 500 855 375 q 816 720 855 625 q 698 869 776 815 q 502 923 619 922 q 307 869 385 923 q 190 720 229 816 q 150 500 151 625 q 189 280 149 375 q 306 132 228 185 q 502 77 385 78 m 860 0 l 860 1000 l 1485 1000 l 1485 902 l 963 902 l 963 556 l 1402 556 l 1402 458 l 963 458 l 963 98 l 1485 98 l 1485 0 l 860 0 z "},"P":{"ha":839,"x_min":97,"x_max":797,"o":"m 97 0 l 97 1000 l 483 1000 q 516 999 498 1000 q 553 994 535 998 q 686 940 632 983 q 769 833 741 897 q 797 690 797 768 q 769 547 797 612 q 686 440 740 483 q 553 385 631 397 q 516 381 535 383 q 483 380 498 380 l 199 380 l 199 0 l 97 0 m 199 477 l 481 477 q 510 478 493 477 q 542 483 526 480 q 627 526 594 494 q 676 600 660 557 q 692 690 692 643 q 676 780 692 736 q 627 854 660 823 q 542 897 594 885 q 510 901 526 900 q 481 902 493 902 l 199 902 l 199 477 z "},"Þ":{"ha":826,"x_min":97,"x_max":785,"o":"m 97 0 l 97 1000 l 200 1000 l 200 810 l 473 810 q 578 791 526 810 q 644 758 613 779 q 699 710 675 738 q 762 613 740 668 q 784 500 784 558 q 765 393 785 445 q 709 301 744 342 q 605 220 668 250 q 473 190 542 190 l 200 190 l 200 0 l 97 0 m 200 288 l 472 288 q 559 309 516 288 q 631 366 601 330 q 667 429 653 394 q 678 500 680 463 q 662 581 678 542 q 617 649 647 619 q 551 694 590 677 q 472 712 512 712 l 200 712 l 200 288 z "},"Q":{"ha":1005,"x_min":42,"x_max":963,"o":"m 883 -20 l 616 245 l 685 315 l 951 49 l 883 -20 m 502 -21 q 250 45 353 -21 q 94 229 147 112 q 42 500 42 347 q 94 771 42 653 q 250 955 147 888 q 502 1021 353 1021 q 755 955 652 1021 q 910 771 857 888 q 963 500 963 653 q 910 229 963 347 q 755 45 857 112 q 502 -21 652 -21 m 502 77 q 698 131 619 77 q 816 280 776 184 q 855 500 855 375 q 816 720 855 625 q 698 869 776 815 q 502 923 619 922 q 307 869 385 923 q 190 720 229 816 q 150 500 151 625 q 189 280 149 375 q 306 132 228 185 q 502 77 385 78 z "},"R":{"ha":876,"x_min":97,"x_max":820,"o":"m 97 0 l 97 1000 l 483 1000 q 516 999 498 1000 q 553 994 535 998 q 686 940 632 983 q 769 833 741 897 q 797 690 797 768 q 738 493 797 576 q 567 388 678 410 l 531 380 l 199 380 l 199 0 l 97 0 m 703 0 l 506 407 l 603 444 l 820 0 l 703 0 m 199 477 l 481 477 q 510 478 493 477 q 542 483 526 480 q 627 526 594 494 q 676 600 660 557 q 692 690 692 643 q 676 780 692 736 q 627 854 660 823 q 542 897 594 885 q 510 901 526 900 q 481 902 493 902 l 199 902 l 199 477 z "},"Ŕ":{"ha":876,"x_min":97,"x_max":820,"o":"m 447 1118 l 360 1118 l 442 1333 l 530 1333 l 447 1118 m 97 0 l 97 1000 l 483 1000 q 516 999 498 1000 q 553 994 535 998 q 686 940 632 983 q 769 833 741 897 q 797 690 797 768 q 738 493 797 576 q 567 388 678 410 l 531 380 l 199 380 l 199 0 l 97 0 m 703 0 l 506 407 l 603 444 l 820 0 l 703 0 m 199 477 l 481 477 q 510 478 493 477 q 542 483 526 480 q 627 526 594 494 q 676 600 660 557 q 692 690 692 643 q 676 780 692 736 q 627 854 660 823 q 542 897 594 885 q 510 901 526 900 q 481 902 493 902 l 199 902 l 199 477 z "},"Ř":{"ha":876,"x_min":97,"x_max":820,"o":"m 193 1306 l 297 1306 l 399 1185 l 502 1306 l 606 1306 l 447 1118 l 352 1118 l 193 1306 m 97 0 l 97 1000 l 483 1000 q 516 999 498 1000 q 553 994 535 998 q 686 940 632 983 q 769 833 741 897 q 797 690 797 768 q 738 493 797 576 q 567 388 678 410 l 531 380 l 199 380 l 199 0 l 97 0 m 703 0 l 506 407 l 603 444 l 820 0 l 703 0 m 199 477 l 481 477 q 510 478 493 477 q 542 483 526 480 q 627 526 594 494 q 676 600 660 557 q 692 690 692 643 q 676 780 692 736 q 627 854 660 823 q 542 897 594 885 q 510 901 526 900 q 481 902 493 902 l 199 902 l 199 477 z "},"Ŗ":{"ha":876,"x_min":97,"x_max":820,"o":"m 371 -382 l 371 -328 q 394 -323 379 -328 q 422 -305 410 -318 q 433 -266 434 -291 l 371 -266 l 371 -151 l 485 -151 l 485 -266 q 450 -353 485 -324 q 371 -382 414 -382 m 97 0 l 97 1000 l 483 1000 q 516 999 498 1000 q 553 994 535 998 q 686 940 632 983 q 769 833 741 897 q 797 690 797 768 q 738 493 797 576 q 567 388 678 410 l 531 380 l 199 380 l 199 0 l 97 0 m 703 0 l 506 407 l 603 444 l 820 0 l 703 0 m 199 477 l 481 477 q 510 478 493 477 q 542 483 526 480 q 627 526 594 494 q 676 600 660 557 q 692 690 692 643 q 676 780 692 736 q 627 854 660 823 q 542 897 594 885 q 510 901 526 900 q 481 902 493 902 l 199 902 l 199 477 z "},"S":{"ha":856,"x_min":47,"x_max":810,"o":"m 444 -21 q 256 14 340 -21 q 118 114 172 49 q 47 267 63 178 l 151 285 q 256 132 176 188 q 449 77 337 77 q 581 100 522 77 q 672 167 639 124 q 706 269 706 210 q 692 335 706 308 q 655 381 678 363 q 605 411 632 399 q 552 431 578 423 l 299 506 q 214 540 253 519 q 146 589 175 560 q 101 657 117 618 q 85 746 85 696 q 130 892 85 831 q 251 988 174 954 q 427 1020 328 1021 q 606 985 527 1020 q 736 884 685 949 q 804 728 788 818 l 697 709 q 649 822 687 774 q 554 896 612 870 q 426 923 496 922 q 307 900 359 923 q 224 839 254 878 q 193 750 193 800 q 221 669 193 699 q 291 621 249 638 q 371 592 332 603 l 567 535 q 639 511 597 526 q 719 466 680 495 q 784 391 758 438 q 810 273 810 344 q 782 149 810 203 q 705 56 755 94 q 589 -1 656 19 q 444 -21 523 -21 z "},"Ś":{"ha":856,"x_min":47,"x_max":810,"o":"m 478 1118 l 390 1118 l 474 1333 l 561 1333 l 478 1118 m 444 -21 q 256 14 340 -21 q 118 114 172 49 q 47 267 63 178 l 151 285 q 256 132 176 188 q 449 77 337 77 q 581 100 522 77 q 672 167 639 124 q 706 269 706 210 q 692 335 706 308 q 655 381 678 363 q 605 411 632 399 q 552 431 578 423 l 299 506 q 214 540 253 519 q 146 589 175 560 q 101 657 117 618 q 85 746 85 696 q 130 892 85 831 q 251 988 174 954 q 427 1020 328 1021 q 606 985 527 1020 q 736 884 685 949 q 804 728 788 818 l 697 709 q 649 822 687 774 q 554 896 612 870 q 426 923 496 922 q 307 900 359 923 q 224 839 254 878 q 193 750 193 800 q 221 669 193 699 q 291 621 249 638 q 371 592 332 603 l 567 535 q 639 511 597 526 q 719 466 680 495 q 784 391 758 438 q 810 273 810 344 q 782 149 810 203 q 705 56 755 94 q 589 -1 656 19 q 444 -21 523 -21 z "},"Š":{"ha":856,"x_min":47,"x_max":810,"o":"m 240 1306 l 344 1306 l 446 1185 l 548 1306 l 652 1306 l 493 1118 l 399 1118 l 240 1306 m 444 -21 q 256 14 340 -21 q 118 114 172 49 q 47 267 63 178 l 151 285 q 256 132 176 188 q 449 77 337 77 q 581 100 522 77 q 672 167 639 124 q 706 269 706 210 q 692 335 706 308 q 655 381 678 363 q 605 411 632 399 q 552 431 578 423 l 299 506 q 214 540 253 519 q 146 589 175 560 q 101 657 117 618 q 85 746 85 696 q 130 892 85 831 q 251 988 174 954 q 427 1020 328 1021 q 606 985 527 1020 q 736 884 685 949 q 804 728 788 818 l 697 709 q 649 822 687 774 q 554 896 612 870 q 426 923 496 922 q 307 900 359 923 q 224 839 254 878 q 193 750 193 800 q 221 669 193 699 q 291 621 249 638 q 371 592 332 603 l 567 535 q 639 511 597 526 q 719 466 680 495 q 784 391 758 438 q 810 273 810 344 q 782 149 810 203 q 705 56 755 94 q 589 -1 656 19 q 444 -21 523 -21 z "},"Ş":{"ha":856,"x_min":47,"x_max":810,"o":"m 424 -333 q 377 -327 399 -333 q 336 -312 356 -321 l 363 -241 q 416 -253 394 -253 q 458 -236 443 -253 q 473 -199 473 -219 q 444 -153 473 -167 q 381 -128 416 -139 l 432 15 l 508 15 l 472 -83 q 533 -128 510 -99 q 556 -202 556 -157 q 517 -296 556 -258 q 424 -333 478 -333 m 444 -21 q 256 14 340 -21 q 118 114 172 49 q 47 267 63 178 l 151 285 q 256 132 176 188 q 449 77 337 77 q 581 100 522 77 q 672 167 639 124 q 706 269 706 210 q 692 335 706 308 q 655 381 678 363 q 605 411 632 399 q 552 431 578 423 l 299 506 q 214 540 253 519 q 146 589 175 560 q 101 657 117 618 q 85 746 85 696 q 130 892 85 831 q 251 988 174 954 q 427 1020 328 1021 q 606 985 527 1020 q 736 884 685 949 q 804 728 788 818 l 697 709 q 649 822 687 774 q 554 896 612 870 q 426 923 496 922 q 307 900 359 923 q 224 839 254 878 q 193 750 193 800 q 221 669 193 699 q 291 621 249 638 q 371 592 332 603 l 567 535 q 639 511 597 526 q 719 466 680 495 q 784 391 758 438 q 810 273 810 344 q 782 149 810 203 q 705 56 755 94 q 589 -1 656 19 q 444 -21 523 -21 z "},"Ŝ":{"ha":856,"x_min":47,"x_max":810,"o":"m 232 1118 l 392 1306 l 486 1306 l 645 1118 l 541 1118 l 439 1238 l 336 1118 l 232 1118 m 444 -21 q 256 14 340 -21 q 118 114 172 49 q 47 267 63 178 l 151 285 q 256 132 176 188 q 449 77 337 77 q 581 100 522 77 q 672 167 639 124 q 706 269 706 210 q 692 335 706 308 q 655 381 678 363 q 605 411 632 399 q 552 431 578 423 l 299 506 q 214 540 253 519 q 146 589 175 560 q 101 657 117 618 q 85 746 85 696 q 130 892 85 831 q 251 988 174 954 q 427 1020 328 1021 q 606 985 527 1020 q 736 884 685 949 q 804 728 788 818 l 697 709 q 649 822 687 774 q 554 896 612 870 q 426 923 496 922 q 307 900 359 923 q 224 839 254 878 q 193 750 193 800 q 221 669 193 699 q 291 621 249 638 q 371 592 332 603 l 567 535 q 639 511 597 526 q 719 466 680 495 q 784 391 758 438 q 810 273 810 344 q 782 149 810 203 q 705 56 755 94 q 589 -1 656 19 q 444 -21 523 -21 z "},"Ș":{"ha":856,"x_min":47,"x_max":810,"o":"m 405 -382 l 405 -328 q 428 -323 413 -328 q 456 -305 444 -318 q 467 -266 468 -291 l 405 -266 l 405 -151 l 520 -151 l 520 -266 q 484 -353 520 -324 q 405 -382 448 -382 m 444 -21 q 256 14 340 -21 q 118 114 172 49 q 47 267 63 178 l 151 285 q 256 132 176 188 q 449 77 337 77 q 581 100 522 77 q 672 167 639 124 q 706 269 706 210 q 692 335 706 308 q 655 381 678 363 q 605 411 632 399 q 552 431 578 423 l 299 506 q 214 540 253 519 q 146 589 175 560 q 101 657 117 618 q 85 746 85 696 q 130 892 85 831 q 251 988 174 954 q 427 1020 328 1021 q 606 985 527 1020 q 736 884 685 949 q 804 728 788 818 l 697 709 q 649 822 687 774 q 554 896 612 870 q 426 923 496 922 q 307 900 359 923 q 224 839 254 878 q 193 750 193 800 q 221 669 193 699 q 291 621 249 638 q 371 592 332 603 l 567 535 q 639 511 597 526 q 719 466 680 495 q 784 391 758 438 q 810 273 810 344 q 782 149 810 203 q 705 56 755 94 q 589 -1 656 19 q 444 -21 523 -21 z "},"ẞ":{"ha":983,"x_min":97,"x_max":899,"o":"m 583 -21 q 510 -15 541 -21 q 451 0 479 -9 l 451 101 q 513 85 483 90 q 576 81 542 81 q 689 105 638 81 q 768 173 739 128 q 797 285 797 218 q 765 394 797 349 q 672 464 732 439 q 531 491 613 488 l 519 566 l 694 865 q 612 903 660 885 q 494 922 564 922 q 309 867 379 922 q 219 726 240 812 q 206 639 209 684 q 203 549 203 594 l 203 0 l 97 0 l 97 599 q 101 694 97 653 q 115 767 106 735 q 201 919 142 864 q 336 998 260 974 q 494 1021 413 1021 q 634 1002 572 1021 q 744 958 696 984 q 827 907 792 931 l 637 570 q 762 527 702 562 q 861 432 822 493 q 899 283 899 372 q 816 60 899 142 q 583 -21 733 -21 z "},"T":{"ha":828,"x_min":14,"x_max":815,"o":"m 363 0 l 363 902 l 14 902 l 14 1000 l 815 1000 l 815 902 l 465 902 l 465 0 l 363 0 z "},"Ŧ":{"ha":828,"x_min":14,"x_max":815,"o":"m 109 449 l 109 551 l 720 551 l 720 449 l 109 449 m 363 0 l 363 902 l 14 902 l 14 1000 l 815 1000 l 815 902 l 465 902 l 465 0 l 363 0 z "},"Ť":{"ha":828,"x_min":14,"x_max":815,"o":"m 207 1306 l 311 1306 l 413 1185 l 516 1306 l 620 1306 l 460 1118 l 366 1118 l 207 1306 m 363 0 l 363 902 l 14 902 l 14 1000 l 815 1000 l 815 902 l 465 902 l 465 0 l 363 0 z "},"Ţ":{"ha":828,"x_min":14,"x_max":815,"o":"m 363 0 l 363 902 l 14 902 l 14 1000 l 815 1000 l 815 902 l 465 902 l 465 0 l 363 0 m 371 -340 q 324 -333 346 -340 q 283 -318 302 -327 l 309 -247 q 363 -260 341 -260 q 405 -243 390 -260 q 419 -206 419 -226 q 391 -159 419 -174 q 327 -135 363 -145 l 378 8 l 454 8 l 419 -89 q 480 -134 456 -106 q 503 -208 503 -163 q 464 -302 503 -265 q 371 -340 424 -340 z "},"Ț":{"ha":828,"x_min":14,"x_max":815,"o":"m 357 -382 l 357 -328 q 381 -323 365 -328 q 408 -305 396 -318 q 419 -266 420 -291 l 357 -266 l 357 -151 l 472 -151 l 472 -266 q 436 -353 472 -324 q 357 -382 400 -382 m 363 0 l 363 902 l 14 902 l 14 1000 l 815 1000 l 815 902 l 465 902 l 465 0 l 363 0 z "},"U":{"ha":975,"x_min":97,"x_max":878,"o":"m 488 -21 q 285 26 373 -21 q 147 160 197 74 q 97 361 97 246 l 97 999 l 200 1000 l 200 374 q 226 240 200 297 q 295 147 253 183 q 389 93 338 110 q 488 76 440 76 q 587 93 536 76 q 680 147 638 110 q 749 240 722 183 q 775 374 775 297 l 775 1000 l 878 1000 l 878 361 q 828 160 878 246 q 690 27 778 74 q 488 -21 602 -21 z "},"Ú":{"ha":975,"x_min":97,"x_max":878,"o":"m 520 1118 l 433 1118 l 515 1333 l 603 1333 l 520 1118 m 488 -21 q 285 26 373 -21 q 147 160 197 74 q 97 361 97 246 l 97 999 l 200 1000 l 200 374 q 226 240 200 297 q 295 147 253 183 q 389 93 338 110 q 488 76 440 76 q 587 93 536 76 q 680 147 638 110 q 749 240 722 183 q 775 374 775 297 l 775 1000 l 878 1000 l 878 361 q 828 160 878 246 q 690 27 778 74 q 488 -21 602 -21 z "},"Ŭ":{"ha":975,"x_min":97,"x_max":878,"o":"m 488 1089 q 398 1113 438 1089 q 333 1178 357 1138 q 308 1268 308 1219 l 393 1268 q 421 1201 393 1229 q 488 1174 449 1174 q 555 1201 527 1174 q 582 1268 582 1229 l 667 1268 q 643 1178 667 1219 q 578 1113 619 1138 q 488 1089 537 1089 m 488 -21 q 285 26 373 -21 q 147 160 197 74 q 97 361 97 246 l 97 999 l 200 1000 l 200 374 q 226 240 200 297 q 295 147 253 183 q 389 93 338 110 q 488 76 440 76 q 587 93 536 76 q 680 147 638 110 q 749 240 722 183 q 775 374 775 297 l 775 1000 l 878 1000 l 878 361 q 828 160 878 246 q 690 27 778 74 q 488 -21 602 -21 z "},"Û":{"ha":975,"x_min":97,"x_max":878,"o":"m 280 1118 l 440 1306 l 534 1306 l 693 1118 l 589 1118 l 487 1238 l 384 1118 l 280 1118 m 488 -21 q 285 26 373 -21 q 147 160 197 74 q 97 361 97 246 l 97 999 l 200 1000 l 200 374 q 226 240 200 297 q 295 147 253 183 q 389 93 338 110 q 488 76 440 76 q 587 93 536 76 q 680 147 638 110 q 749 240 722 183 q 775 374 775 297 l 775 1000 l 878 1000 l 878 361 q 828 160 878 246 q 690 27 778 74 q 488 -21 602 -21 z "},"Ü":{"ha":975,"x_min":97,"x_max":878,"o":"m 565 1147 l 565 1258 l 676 1258 l 676 1147 l 565 1147 m 299 1147 l 299 1258 l 410 1258 l 410 1147 l 299 1147 m 488 -21 q 285 26 373 -21 q 147 160 197 74 q 97 361 97 246 l 97 999 l 200 1000 l 200 374 q 226 240 200 297 q 295 147 253 183 q 389 93 338 110 q 488 76 440 76 q 587 93 536 76 q 680 147 638 110 q 749 240 722 183 q 775 374 775 297 l 775 1000 l 878 1000 l 878 361 q 828 160 878 246 q 690 27 778 74 q 488 -21 602 -21 z "},"Ụ":{"ha":975,"x_min":97,"x_max":878,"o":"m 438 -266 l 438 -151 l 556 -151 l 556 -266 l 438 -266 m 488 -21 q 285 26 373 -21 q 147 160 197 74 q 97 361 97 246 l 97 999 l 200 1000 l 200 374 q 226 240 200 297 q 295 147 253 183 q 389 93 338 110 q 488 76 440 76 q 587 93 536 76 q 680 147 638 110 q 749 240 722 183 q 775 374 775 297 l 775 1000 l 878 1000 l 878 361 q 828 160 878 246 q 690 27 778 74 q 488 -21 602 -21 z "},"Ù":{"ha":975,"x_min":97,"x_max":878,"o":"m 458 1118 l 376 1333 l 463 1333 l 546 1118 l 458 1118 m 488 -21 q 285 26 373 -21 q 147 160 197 74 q 97 361 97 246 l 97 999 l 200 1000 l 200 374 q 226 240 200 297 q 295 147 253 183 q 389 93 338 110 q 488 76 440 76 q 587 93 536 76 q 680 147 638 110 q 749 240 722 183 q 775 374 775 297 l 775 1000 l 878 1000 l 878 361 q 828 160 878 246 q 690 27 778 74 q 488 -21 602 -21 z "},"Ủ":{"ha":975,"x_min":97,"x_max":878,"o":"m 419 1275 l 387 1328 q 453 1369 415 1358 q 530 1368 492 1380 q 591 1315 567 1356 q 608 1251 608 1283 q 593 1193 608 1220 q 555 1147 578 1167 q 502 1117 531 1127 l 468 1164 q 527 1214 510 1183 q 527 1276 544 1245 q 497 1301 515 1297 q 457 1298 478 1305 q 419 1275 437 1290 m 488 -21 q 285 26 373 -21 q 147 160 197 74 q 97 361 97 246 l 97 999 l 200 1000 l 200 374 q 226 240 200 297 q 295 147 253 183 q 389 93 338 110 q 488 76 440 76 q 587 93 536 76 q 680 147 638 110 q 749 240 722 183 q 775 374 775 297 l 775 1000 l 878 1000 l 878 361 q 828 160 878 246 q 690 27 778 74 q 488 -21 602 -21 z "},"Ư":{"ha":975,"x_min":97,"x_max":1022,"o":"m 928 1125 l 1014 1125 q 1011 1024 1022 1068 q 961 953 1001 980 q 889 930 929 932 q 806 934 848 928 l 806 1000 q 837 1001 822 1001 q 869 1004 853 1001 q 924 1050 916 1014 q 928 1125 931 1085 m 488 -21 q 285 26 373 -21 q 147 160 197 74 q 97 361 97 246 l 97 999 l 200 1000 l 200 374 q 226 240 200 297 q 295 147 253 183 q 389 93 338 110 q 488 76 440 76 q 587 93 536 76 q 680 147 638 110 q 749 240 722 183 q 775 374 775 297 l 775 1000 l 878 1000 l 878 361 q 828 160 878 246 q 690 27 778 74 q 488 -21 602 -21 z "},"Ứ":{"ha":975,"x_min":97,"x_max":1022,"o":"m 928 1125 l 1014 1125 q 1011 1024 1022 1068 q 961 953 1001 980 q 889 930 929 932 q 806 934 848 928 l 806 1000 q 837 1001 822 1001 q 869 1004 853 1001 q 924 1050 916 1014 q 928 1125 931 1085 m 520 1118 l 433 1118 l 515 1333 l 603 1333 l 520 1118 m 488 -21 q 285 26 373 -21 q 147 160 197 74 q 97 361 97 246 l 97 999 l 200 1000 l 200 374 q 226 240 200 297 q 295 147 253 183 q 389 93 338 110 q 488 76 440 76 q 587 93 536 76 q 680 147 638 110 q 749 240 722 183 q 775 374 775 297 l 775 1000 l 878 1000 l 878 361 q 828 160 878 246 q 690 27 778 74 q 488 -21 602 -21 z "},"Ự":{"ha":975,"x_min":97,"x_max":1022,"o":"m 435 -266 l 435 -151 l 554 -151 l 554 -266 l 435 -266 m 928 1125 l 1014 1125 q 1011 1024 1022 1068 q 961 953 1001 980 q 889 930 929 932 q 806 934 848 928 l 806 1000 q 837 1001 822 1001 q 869 1004 853 1001 q 924 1050 916 1014 q 928 1125 931 1085 m 488 -21 q 285 26 373 -21 q 147 160 197 74 q 97 361 97 246 l 97 999 l 200 1000 l 200 374 q 226 240 200 297 q 295 147 253 183 q 389 93 338 110 q 488 76 440 76 q 587 93 536 76 q 680 147 638 110 q 749 240 722 183 q 775 374 775 297 l 775 1000 l 878 1000 l 878 361 q 828 160 878 246 q 690 27 778 74 q 488 -21 602 -21 z "},"Ừ":{"ha":975,"x_min":97,"x_max":1022,"o":"m 928 1125 l 1014 1125 q 1011 1024 1022 1068 q 961 953 1001 980 q 889 930 929 932 q 806 934 848 928 l 806 1000 q 837 1001 822 1001 q 869 1004 853 1001 q 924 1050 916 1014 q 928 1125 931 1085 m 458 1118 l 376 1333 l 463 1333 l 546 1118 l 458 1118 m 488 -21 q 285 26 373 -21 q 147 160 197 74 q 97 361 97 246 l 97 999 l 200 1000 l 200 374 q 226 240 200 297 q 295 147 253 183 q 389 93 338 110 q 488 76 440 76 q 587 93 536 76 q 680 147 638 110 q 749 240 722 183 q 775 374 775 297 l 775 1000 l 878 1000 l 878 361 q 828 160 878 246 q 690 27 778 74 q 488 -21 602 -21 z "},"Ử":{"ha":975,"x_min":97,"x_max":1022,"o":"m 928 1125 l 1014 1125 q 1011 1024 1022 1068 q 961 953 1001 980 q 889 930 929 932 q 806 934 848 928 l 806 1000 q 837 1001 822 1001 q 869 1004 853 1001 q 924 1050 916 1014 q 928 1125 931 1085 m 419 1275 l 387 1328 q 453 1369 415 1358 q 530 1368 492 1380 q 591 1315 567 1356 q 608 1251 608 1283 q 593 1193 608 1220 q 555 1147 578 1167 q 502 1117 531 1127 l 468 1164 q 527 1214 510 1183 q 527 1276 544 1245 q 497 1301 515 1297 q 457 1298 478 1305 q 419 1275 437 1290 m 488 -21 q 285 26 373 -21 q 147 160 197 74 q 97 361 97 246 l 97 999 l 200 1000 l 200 374 q 226 240 200 297 q 295 147 253 183 q 389 93 338 110 q 488 76 440 76 q 587 93 536 76 q 680 147 638 110 q 749 240 722 183 q 775 374 775 297 l 775 1000 l 878 1000 l 878 361 q 828 160 878 246 q 690 27 778 74 q 488 -21 602 -21 z "},"Ữ":{"ha":975,"x_min":97,"x_max":1022,"o":"m 928 1125 l 1014 1125 q 1011 1024 1022 1068 q 961 953 1001 980 q 889 930 929 932 q 806 934 848 928 l 806 1000 q 837 1001 822 1001 q 869 1004 853 1001 q 924 1050 916 1014 q 928 1125 931 1085 m 488 -21 q 285 26 373 -21 q 147 160 197 74 q 97 361 97 246 l 97 999 l 200 1000 l 200 374 q 226 240 200 297 q 295 147 253 183 q 389 93 338 110 q 488 76 440 76 q 587 93 536 76 q 680 147 638 110 q 749 240 722 183 q 775 374 775 297 l 775 1000 l 878 1000 l 878 361 q 828 160 878 246 q 690 27 778 74 q 488 -21 602 -21 m 599 1119 q 542 1131 569 1119 q 488 1159 514 1143 q 439 1186 462 1174 q 394 1198 415 1198 q 360 1177 367 1198 q 360 1131 353 1156 l 288 1131 q 300 1236 272 1193 q 390 1280 328 1280 q 447 1268 419 1280 q 501 1241 475 1256 q 550 1213 527 1225 q 594 1201 574 1201 q 628 1222 619 1201 q 628 1270 638 1243 l 701 1270 q 689 1164 717 1209 q 599 1119 661 1119 z "},"Ű":{"ha":975,"x_min":97,"x_max":878,"o":"m 650 1118 l 563 1118 l 645 1333 l 733 1333 l 650 1118 m 390 1118 l 302 1118 l 385 1333 l 472 1333 l 390 1118 m 488 -21 q 285 26 373 -21 q 147 160 197 74 q 97 361 97 246 l 97 999 l 200 1000 l 200 374 q 226 240 200 297 q 295 147 253 183 q 389 93 338 110 q 488 76 440 76 q 587 93 536 76 q 680 147 638 110 q 749 240 722 183 q 775 374 775 297 l 775 1000 l 878 1000 l 878 361 q 828 160 878 246 q 690 27 778 74 q 488 -21 602 -21 z "},"Ū":{"ha":975,"x_min":97,"x_max":878,"o":"m 313 1167 l 313 1253 l 662 1253 l 662 1167 l 313 1167 m 488 -21 q 285 26 373 -21 q 147 160 197 74 q 97 361 97 246 l 97 999 l 200 1000 l 200 374 q 226 240 200 297 q 295 147 253 183 q 389 93 338 110 q 488 76 440 76 q 587 93 536 76 q 680 147 638 110 q 749 240 722 183 q 775 374 775 297 l 775 1000 l 878 1000 l 878 361 q 828 160 878 246 q 690 27 778 74 q 488 -21 602 -21 z "},"Ų":{"ha":975,"x_min":97,"x_max":878,"o":"m 488 -21 q 285 26 373 -21 q 147 160 197 74 q 97 361 97 246 l 97 999 l 200 1000 l 200 374 q 226 240 200 297 q 295 147 253 183 q 389 93 338 110 q 488 76 440 76 q 587 93 536 76 q 680 147 638 110 q 749 240 722 183 q 775 374 775 297 l 775 1000 l 878 1000 l 878 361 q 828 160 878 246 q 690 27 778 74 q 488 -21 602 -21 m 608 -288 q 541 -269 571 -288 q 493 -219 511 -250 q 475 -153 475 -188 q 501 -61 475 -108 q 570 30 527 -14 q 667 108 613 74 l 722 47 q 643 -13 679 21 q 586 -82 608 -47 q 564 -147 564 -117 q 580 -189 564 -173 q 617 -206 596 -206 q 650 -196 633 -206 q 681 -172 667 -187 l 726 -226 q 671 -273 702 -257 q 608 -288 640 -288 z "},"Ů":{"ha":975,"x_min":97,"x_max":878,"o":"m 490 1081 q 413 1102 448 1081 q 358 1157 378 1122 q 337 1233 337 1191 q 358 1310 337 1275 q 413 1365 378 1344 q 490 1385 448 1385 q 566 1365 532 1385 q 621 1310 601 1344 q 642 1233 642 1275 q 621 1157 642 1191 q 566 1102 601 1122 q 490 1081 532 1081 m 490 1157 q 544 1180 522 1157 q 566 1233 566 1202 q 544 1288 566 1265 q 490 1310 522 1310 q 436 1288 458 1310 q 413 1233 413 1265 q 436 1180 413 1202 q 490 1157 458 1157 m 488 -21 q 285 26 373 -21 q 147 160 197 74 q 97 361 97 246 l 97 999 l 200 1000 l 200 374 q 226 240 200 297 q 295 147 253 183 q 389 93 338 110 q 488 76 440 76 q 587 93 536 76 q 680 147 638 110 q 749 240 722 183 q 775 374 775 297 l 775 1000 l 878 1000 l 878 361 q 828 160 878 246 q 690 27 778 74 q 488 -21 602 -21 z "},"Ũ":{"ha":975,"x_min":97,"x_max":878,"o":"m 488 -21 q 285 26 373 -21 q 147 160 197 74 q 97 361 97 246 l 97 999 l 200 1000 l 200 374 q 226 240 200 297 q 295 147 253 183 q 389 93 338 110 q 488 76 440 76 q 587 93 536 76 q 680 147 638 110 q 749 240 722 183 q 775 374 775 297 l 775 1000 l 878 1000 l 878 361 q 828 160 878 246 q 690 27 778 74 q 488 -21 602 -21 m 599 1119 q 542 1131 569 1119 q 488 1159 514 1143 q 439 1186 462 1174 q 394 1198 415 1198 q 360 1177 367 1198 q 360 1131 353 1156 l 288 1131 q 300 1236 272 1193 q 390 1280 328 1280 q 447 1268 419 1280 q 501 1241 475 1256 q 550 1213 527 1225 q 594 1201 574 1201 q 628 1222 619 1201 q 628 1270 638 1243 l 701 1270 q 689 1164 717 1209 q 599 1119 661 1119 z "},"V":{"ha":838,"x_min":7,"x_max":831,"o":"m 351 0 l 7 1000 l 113 1000 l 418 116 l 725 1000 l 831 1000 l 487 0 l 351 0 z "},"W":{"ha":1299,"x_min":23,"x_max":1276,"o":"m 312 0 l 23 1000 l 129 1000 l 363 174 l 596 999 l 703 1000 l 937 174 l 1169 1000 l 1276 1000 l 988 0 l 885 0 l 649 820 l 415 0 l 312 0 z "},"Ẃ":{"ha":1299,"x_min":23,"x_max":1276,"o":"m 700 1118 l 613 1118 l 695 1333 l 783 1333 l 700 1118 m 312 0 l 23 1000 l 129 1000 l 363 174 l 596 999 l 703 1000 l 937 174 l 1169 1000 l 1276 1000 l 988 0 l 885 0 l 649 820 l 415 0 l 312 0 z "},"Ŵ":{"ha":1299,"x_min":23,"x_max":1276,"o":"m 443 1118 l 602 1306 l 697 1306 l 856 1118 l 752 1118 l 649 1238 l 547 1118 l 443 1118 m 312 0 l 23 1000 l 129 1000 l 363 174 l 596 999 l 703 1000 l 937 174 l 1169 1000 l 1276 1000 l 988 0 l 885 0 l 649 820 l 415 0 l 312 0 z "},"Ẅ":{"ha":1299,"x_min":23,"x_max":1276,"o":"m 727 1147 l 727 1258 l 838 1258 l 838 1147 l 727 1147 m 463 1147 l 463 1258 l 574 1258 l 574 1147 l 463 1147 m 312 0 l 23 1000 l 129 1000 l 363 174 l 596 999 l 703 1000 l 937 174 l 1169 1000 l 1276 1000 l 988 0 l 885 0 l 649 820 l 415 0 l 312 0 z "},"Ẁ":{"ha":1299,"x_min":23,"x_max":1276,"o":"m 600 1118 l 517 1333 l 604 1333 l 688 1118 l 600 1118 m 312 0 l 23 1000 l 129 1000 l 363 174 l 596 999 l 703 1000 l 937 174 l 1169 1000 l 1276 1000 l 988 0 l 885 0 l 649 820 l 415 0 l 312 0 z "},"X":{"ha":842,"x_min":14,"x_max":828,"o":"m 14 0 l 360 506 l 23 1000 l 147 1000 l 421 592 l 695 1000 l 819 1000 l 482 506 l 828 0 l 704 0 l 421 420 l 138 0 l 14 0 z "},"Y":{"ha":772,"x_min":0,"x_max":772,"o":"m 335 0 l 335 419 l 0 1000 l 118 1000 l 387 535 l 654 1000 l 772 1000 l 438 419 l 438 0 l 335 0 z "},"Ý":{"ha":772,"x_min":0,"x_max":772,"o":"m 417 1118 l 329 1118 l 412 1333 l 499 1333 l 417 1118 m 335 0 l 335 419 l 0 1000 l 118 1000 l 387 535 l 654 1000 l 772 1000 l 438 419 l 438 0 l 335 0 z "},"Ŷ":{"ha":772,"x_min":0,"x_max":772,"o":"m 179 1118 l 338 1306 l 433 1306 l 592 1118 l 488 1118 l 385 1238 l 283 1118 l 179 1118 m 335 0 l 335 419 l 0 1000 l 118 1000 l 387 535 l 654 1000 l 772 1000 l 438 419 l 438 0 l 335 0 z "},"Ÿ":{"ha":772,"x_min":0,"x_max":772,"o":"m 463 1147 l 463 1258 l 574 1258 l 574 1147 l 463 1147 m 199 1147 l 199 1258 l 310 1258 l 310 1147 l 199 1147 m 335 0 l 335 419 l 0 1000 l 118 1000 l 387 535 l 654 1000 l 772 1000 l 438 419 l 438 0 l 335 0 z "},"Ỵ":{"ha":772,"x_min":0,"x_max":772,"o":"m 327 -266 l 327 -151 l 445 -151 l 445 -266 l 327 -266 m 335 0 l 335 419 l 0 1000 l 118 1000 l 387 535 l 654 1000 l 772 1000 l 438 419 l 438 0 l 335 0 z "},"Ỳ":{"ha":772,"x_min":0,"x_max":772,"o":"m 347 1118 l 264 1333 l 351 1333 l 434 1118 l 347 1118 m 335 0 l 335 419 l 0 1000 l 118 1000 l 387 535 l 654 1000 l 772 1000 l 438 419 l 438 0 l 335 0 z "},"Ỷ":{"ha":772,"x_min":0,"x_max":772,"o":"m 308 1275 l 275 1328 q 342 1369 303 1358 q 418 1368 381 1380 q 479 1315 456 1356 q 497 1251 497 1283 q 482 1193 496 1220 q 443 1147 467 1167 q 390 1117 419 1127 l 357 1164 q 416 1214 399 1183 q 416 1276 433 1245 q 385 1301 404 1297 q 346 1298 367 1305 q 308 1275 326 1290 m 335 0 l 335 419 l 0 1000 l 118 1000 l 387 535 l 654 1000 l 772 1000 l 438 419 l 438 0 l 335 0 z "},"Ỹ":{"ha":772,"x_min":0,"x_max":772,"o":"m 499 1119 q 442 1131 469 1119 q 388 1159 414 1143 q 339 1186 362 1174 q 294 1198 315 1198 q 260 1177 268 1198 q 260 1131 253 1156 l 188 1131 q 201 1236 173 1193 q 290 1280 228 1280 q 347 1268 319 1280 q 401 1241 375 1256 q 451 1213 427 1225 q 494 1201 474 1201 q 528 1222 519 1201 q 529 1270 538 1243 l 601 1270 q 589 1164 617 1209 q 499 1119 561 1119 m 335 0 l 335 419 l 0 1000 l 118 1000 l 387 535 l 654 1000 l 772 1000 l 438 419 l 438 0 l 335 0 z "},"Z":{"ha":853,"x_min":69,"x_max":783,"o":"m 69 0 l 69 22 l 616 902 l 83 902 l 83 1000 l 783 1000 l 783 976 l 240 97 l 778 97 l 778 0 l 69 0 z "},"Ź":{"ha":853,"x_min":69,"x_max":783,"o":"m 465 1118 l 377 1118 l 460 1333 l 548 1333 l 465 1118 m 69 0 l 69 22 l 616 902 l 83 902 l 83 1000 l 783 1000 l 783 976 l 240 97 l 778 97 l 778 0 l 69 0 z "},"Ž":{"ha":853,"x_min":69,"x_max":783,"o":"m 245 1306 l 349 1306 l 451 1185 l 553 1306 l 658 1306 l 499 1118 l 404 1118 l 245 1306 m 69 0 l 69 22 l 616 902 l 83 902 l 83 1000 l 783 1000 l 783 976 l 240 97 l 778 97 l 778 0 l 69 0 z "},"Ż":{"ha":853,"x_min":69,"x_max":783,"o":"m 399 1159 l 399 1278 l 517 1278 l 517 1159 l 399 1159 m 69 0 l 69 22 l 616 902 l 83 902 l 83 1000 l 783 1000 l 783 976 l 240 97 l 778 97 l 778 0 l 69 0 z "},"a":{"ha":772,"x_min":56,"x_max":688,"o":"m 312 -21 q 170 10 227 -21 q 84 91 113 40 q 56 201 56 142 q 80 306 56 263 q 148 377 105 349 q 247 419 190 405 q 373 444 303 433 q 508 463 442 455 q 624 478 574 471 l 588 456 q 545 621 590 567 q 388 674 500 674 q 258 640 311 674 q 183 530 205 605 l 84 559 q 188 715 110 660 q 390 771 265 771 q 564 732 492 771 q 666 621 636 694 q 684 548 680 588 q 688 466 688 508 l 688 0 l 597 0 l 597 188 l 624 177 q 505 30 585 81 q 312 -21 424 -21 m 324 67 q 449 93 395 67 q 535 164 502 119 q 577 265 567 208 q 586 344 585 301 q 587 409 587 388 l 626 389 q 513 375 574 382 q 393 359 452 368 q 288 338 335 350 q 226 312 256 328 q 177 269 196 296 q 158 201 158 242 q 174 138 158 169 q 227 88 190 108 q 324 67 263 67 z "},"á":{"ha":772,"x_min":56,"x_max":688,"o":"m 438 868 l 350 868 l 433 1083 l 521 1083 l 438 868 m 312 -21 q 170 10 227 -21 q 84 91 113 40 q 56 201 56 142 q 80 306 56 263 q 148 377 105 349 q 247 419 190 405 q 373 444 303 433 q 508 463 442 455 q 624 478 574 471 l 588 456 q 545 621 590 567 q 388 674 500 674 q 258 640 311 674 q 183 530 205 605 l 84 559 q 188 715 110 660 q 390 771 265 771 q 564 732 492 771 q 666 621 636 694 q 684 548 680 588 q 688 466 688 508 l 688 0 l 597 0 l 597 188 l 624 177 q 505 30 585 81 q 312 -21 424 -21 m 324 67 q 449 93 395 67 q 535 164 502 119 q 577 265 567 208 q 586 344 585 301 q 587 409 587 388 l 626 389 q 513 375 574 382 q 393 359 452 368 q 288 338 335 350 q 226 312 256 328 q 177 269 196 296 q 158 201 158 242 q 174 138 158 169 q 227 88 190 108 q 324 67 263 67 z "},"ă":{"ha":772,"x_min":56,"x_max":688,"o":"m 397 839 q 306 863 347 839 q 241 928 265 888 q 217 1018 217 969 l 302 1018 q 330 951 302 979 q 397 924 358 924 q 464 951 436 924 q 491 1018 491 979 l 576 1018 q 551 928 576 969 q 486 863 527 888 q 397 839 446 839 m 312 -21 q 170 10 227 -21 q 84 91 113 40 q 56 201 56 142 q 80 306 56 263 q 148 377 105 349 q 247 419 190 405 q 373 444 303 433 q 508 463 442 455 q 624 478 574 471 l 588 456 q 545 621 590 567 q 388 674 500 674 q 258 640 311 674 q 183 530 205 605 l 84 559 q 188 715 110 660 q 390 771 265 771 q 564 732 492 771 q 666 621 636 694 q 684 548 680 588 q 688 466 688 508 l 688 0 l 597 0 l 597 188 l 624 177 q 505 30 585 81 q 312 -21 424 -21 m 324 67 q 449 93 395 67 q 535 164 502 119 q 577 265 567 208 q 586 344 585 301 q 587 409 587 388 l 626 389 q 513 375 574 382 q 393 359 452 368 q 288 338 335 350 q 226 312 256 328 q 177 269 196 296 q 158 201 158 242 q 174 138 158 169 q 227 88 190 108 q 324 67 263 67 z "},"ắ":{"ha":772,"x_min":56,"x_max":688,"o":"m 395 839 q 305 863 346 839 q 240 928 264 888 q 216 1018 216 969 l 301 1018 q 328 951 301 979 q 395 924 356 924 q 462 951 435 924 q 490 1018 490 979 l 574 1018 q 550 928 574 969 q 485 863 526 888 q 395 839 444 839 m 438 1056 l 350 1056 l 433 1271 l 520 1271 l 438 1056 m 312 -21 q 170 10 227 -21 q 84 91 113 40 q 56 201 56 142 q 80 306 56 263 q 148 377 105 349 q 247 419 190 405 q 373 444 303 433 q 508 463 442 455 q 624 478 574 471 l 588 456 q 545 621 590 567 q 388 674 500 674 q 258 640 311 674 q 183 530 205 605 l 84 559 q 188 715 110 660 q 390 771 265 771 q 564 732 492 771 q 666 621 636 694 q 684 548 680 588 q 688 466 688 508 l 688 0 l 597 0 l 597 188 l 624 177 q 505 30 585 81 q 312 -21 424 -21 m 324 67 q 449 93 395 67 q 535 164 502 119 q 577 265 567 208 q 586 344 585 301 q 587 409 587 388 l 626 389 q 513 375 574 382 q 393 359 452 368 q 288 338 335 350 q 226 312 256 328 q 177 269 196 296 q 158 201 158 242 q 174 138 158 169 q 227 88 190 108 q 324 67 263 67 z "},"ặ":{"ha":772,"x_min":56,"x_max":688,"o":"m 321 -266 l 321 -151 l 440 -151 l 440 -266 l 321 -266 m 397 839 q 306 863 347 839 q 241 928 265 888 q 217 1018 217 969 l 302 1018 q 330 951 302 979 q 397 924 358 924 q 464 951 436 924 q 491 1018 491 979 l 576 1018 q 551 928 576 969 q 486 863 527 888 q 397 839 446 839 m 312 -21 q 170 10 227 -21 q 84 91 113 40 q 56 201 56 142 q 80 306 56 263 q 148 377 105 349 q 247 419 190 405 q 373 444 303 433 q 508 463 442 455 q 624 478 574 471 l 588 456 q 545 621 590 567 q 388 674 500 674 q 258 640 311 674 q 183 530 205 605 l 84 559 q 188 715 110 660 q 390 771 265 771 q 564 732 492 771 q 666 621 636 694 q 684 548 680 588 q 688 466 688 508 l 688 0 l 597 0 l 597 188 l 624 177 q 505 30 585 81 q 312 -21 424 -21 m 324 67 q 449 93 395 67 q 535 164 502 119 q 577 265 567 208 q 586 344 585 301 q 587 409 587 388 l 626 389 q 513 375 574 382 q 393 359 452 368 q 288 338 335 350 q 226 312 256 328 q 177 269 196 296 q 158 201 158 242 q 174 138 158 169 q 227 88 190 108 q 324 67 263 67 z "},"ằ":{"ha":772,"x_min":56,"x_max":688,"o":"m 400 839 q 309 863 350 839 q 245 928 269 888 q 221 1018 221 969 l 306 1018 q 333 951 306 979 q 400 924 360 924 q 467 951 439 924 q 494 1018 494 979 l 579 1018 q 555 928 579 969 q 490 863 531 888 q 400 839 449 839 m 358 1056 l 274 1271 l 362 1271 l 445 1056 l 358 1056 m 312 -21 q 170 10 227 -21 q 84 91 113 40 q 56 201 56 142 q 80 306 56 263 q 148 377 105 349 q 247 419 190 405 q 373 444 303 433 q 508 463 442 455 q 624 478 574 471 l 588 456 q 545 621 590 567 q 388 674 500 674 q 258 640 311 674 q 183 530 205 605 l 84 559 q 188 715 110 660 q 390 771 265 771 q 564 732 492 771 q 666 621 636 694 q 684 548 680 588 q 688 466 688 508 l 688 0 l 597 0 l 597 188 l 624 177 q 505 30 585 81 q 312 -21 424 -21 m 324 67 q 449 93 395 67 q 535 164 502 119 q 577 265 567 208 q 586 344 585 301 q 587 409 587 388 l 626 389 q 513 375 574 382 q 393 359 452 368 q 288 338 335 350 q 226 312 256 328 q 177 269 196 296 q 158 201 158 242 q 174 138 158 169 q 227 88 190 108 q 324 67 263 67 z "},"ẳ":{"ha":772,"x_min":56,"x_max":688,"o":"m 410 839 q 319 863 360 839 q 255 928 278 888 q 231 1018 231 969 l 315 1018 q 343 951 315 979 q 410 924 371 924 q 477 951 449 924 q 504 1018 504 979 l 589 1018 q 565 928 589 969 q 500 863 540 888 q 410 839 459 839 m 311 1201 l 278 1255 q 345 1295 306 1284 q 421 1294 384 1306 q 483 1241 458 1283 q 500 1178 500 1209 q 485 1120 499 1147 q 446 1073 470 1093 q 394 1043 422 1053 l 360 1090 q 419 1141 402 1110 q 419 1202 436 1172 q 388 1227 407 1224 q 349 1224 369 1231 q 311 1201 328 1217 m 312 -21 q 170 10 227 -21 q 84 91 113 40 q 56 201 56 142 q 80 306 56 263 q 148 377 105 349 q 247 419 190 405 q 373 444 303 433 q 508 463 442 455 q 624 478 574 471 l 588 456 q 545 621 590 567 q 388 674 500 674 q 258 640 311 674 q 183 530 205 605 l 84 559 q 188 715 110 660 q 390 771 265 771 q 564 732 492 771 q 666 621 636 694 q 684 548 680 588 q 688 466 688 508 l 688 0 l 597 0 l 597 188 l 624 177 q 505 30 585 81 q 312 -21 424 -21 m 324 67 q 449 93 395 67 q 535 164 502 119 q 577 265 567 208 q 586 344 585 301 q 587 409 587 388 l 626 389 q 513 375 574 382 q 393 359 452 368 q 288 338 335 350 q 226 312 256 328 q 177 269 196 296 q 158 201 158 242 q 174 138 158 169 q 227 88 190 108 q 324 67 263 67 z "},"ẵ":{"ha":772,"x_min":56,"x_max":688,"o":"m 487 1058 q 430 1070 457 1058 q 376 1097 402 1082 q 326 1125 350 1113 q 283 1137 303 1137 q 248 1115 256 1137 q 248 1069 240 1094 l 176 1069 q 188 1175 160 1132 q 277 1219 216 1219 q 335 1207 307 1219 q 389 1179 363 1194 q 439 1152 415 1164 q 483 1140 462 1140 q 516 1160 507 1140 q 517 1209 526 1181 l 589 1209 q 577 1103 605 1148 q 487 1058 549 1058 m 381 839 q 290 863 331 839 q 225 928 249 888 q 201 1018 201 969 l 286 1018 q 314 951 286 979 q 381 924 342 924 q 448 951 420 924 q 475 1018 475 979 l 560 1018 q 536 928 560 969 q 471 863 512 888 q 381 839 430 839 m 312 -21 q 170 10 227 -21 q 84 91 113 40 q 56 201 56 142 q 80 306 56 263 q 148 377 105 349 q 247 419 190 405 q 373 444 303 433 q 508 463 442 455 q 624 478 574 471 l 588 456 q 545 621 590 567 q 388 674 500 674 q 258 640 311 674 q 183 530 205 605 l 84 559 q 188 715 110 660 q 390 771 265 771 q 564 732 492 771 q 666 621 636 694 q 684 548 680 588 q 688 466 688 508 l 688 0 l 597 0 l 597 188 l 624 177 q 505 30 585 81 q 312 -21 424 -21 m 324 67 q 449 93 395 67 q 535 164 502 119 q 577 265 567 208 q 586 344 585 301 q 587 409 587 388 l 626 389 q 513 375 574 382 q 393 359 452 368 q 288 338 335 350 q 226 312 256 328 q 177 269 196 296 q 158 201 158 242 q 174 138 158 169 q 227 88 190 108 q 324 67 263 67 z "},"â":{"ha":772,"x_min":56,"x_max":688,"o":"m 190 868 l 349 1056 l 444 1056 l 603 868 l 499 868 l 397 988 l 294 868 l 190 868 m 312 -21 q 170 10 227 -21 q 84 91 113 40 q 56 201 56 142 q 80 306 56 263 q 148 377 105 349 q 247 419 190 405 q 373 444 303 433 q 508 463 442 455 q 624 478 574 471 l 588 456 q 545 621 590 567 q 388 674 500 674 q 258 640 311 674 q 183 530 205 605 l 84 559 q 188 715 110 660 q 390 771 265 771 q 564 732 492 771 q 666 621 636 694 q 684 548 680 588 q 688 466 688 508 l 688 0 l 597 0 l 597 188 l 624 177 q 505 30 585 81 q 312 -21 424 -21 m 324 67 q 449 93 395 67 q 535 164 502 119 q 577 265 567 208 q 586 344 585 301 q 587 409 587 388 l 626 389 q 513 375 574 382 q 393 359 452 368 q 288 338 335 350 q 226 312 256 328 q 177 269 196 296 q 158 201 158 242 q 174 138 158 169 q 227 88 190 108 q 324 67 263 67 z "},"ấ":{"ha":772,"x_min":56,"x_max":755,"o":"m 195 868 l 354 1056 l 449 1056 l 608 868 l 504 868 l 401 988 l 299 868 l 195 868 m 672 1014 l 585 1014 l 667 1229 l 755 1229 l 672 1014 m 312 -21 q 170 10 227 -21 q 84 91 113 40 q 56 201 56 142 q 80 306 56 263 q 148 377 105 349 q 247 419 190 405 q 373 444 303 433 q 508 463 442 455 q 624 478 574 471 l 588 456 q 545 621 590 567 q 388 674 500 674 q 258 640 311 674 q 183 530 205 605 l 84 559 q 188 715 110 660 q 390 771 265 771 q 564 732 492 771 q 666 621 636 694 q 684 548 680 588 q 688 466 688 508 l 688 0 l 597 0 l 597 188 l 624 177 q 505 30 585 81 q 312 -21 424 -21 m 324 67 q 449 93 395 67 q 535 164 502 119 q 577 265 567 208 q 586 344 585 301 q 587 409 587 388 l 626 389 q 513 375 574 382 q 393 359 452 368 q 288 338 335 350 q 226 312 256 328 q 177 269 196 296 q 158 201 158 242 q 174 138 158 169 q 227 88 190 108 q 324 67 263 67 z "},"ậ":{"ha":772,"x_min":56,"x_max":688,"o":"m 321 -266 l 321 -151 l 440 -151 l 440 -266 l 321 -266 m 190 868 l 349 1056 l 444 1056 l 603 868 l 499 868 l 397 988 l 294 868 l 190 868 m 312 -21 q 170 10 227 -21 q 84 91 113 40 q 56 201 56 142 q 80 306 56 263 q 148 377 105 349 q 247 419 190 405 q 373 444 303 433 q 508 463 442 455 q 624 478 574 471 l 588 456 q 545 621 590 567 q 388 674 500 674 q 258 640 311 674 q 183 530 205 605 l 84 559 q 188 715 110 660 q 390 771 265 771 q 564 732 492 771 q 666 621 636 694 q 684 548 680 588 q 688 466 688 508 l 688 0 l 597 0 l 597 188 l 624 177 q 505 30 585 81 q 312 -21 424 -21 m 324 67 q 449 93 395 67 q 535 164 502 119 q 577 265 567 208 q 586 344 585 301 q 587 409 587 388 l 626 389 q 513 375 574 382 q 393 359 452 368 q 288 338 335 350 q 226 312 256 328 q 177 269 196 296 q 158 201 158 242 q 174 138 158 169 q 227 88 190 108 q 324 67 263 67 z "},"ầ":{"ha":772,"x_min":56,"x_max":688,"o":"m 199 868 l 358 1056 l 452 1056 l 612 868 l 508 868 l 405 988 l 303 868 l 199 868 m 586 1014 l 503 1229 l 591 1229 l 674 1014 l 586 1014 m 312 -21 q 170 10 227 -21 q 84 91 113 40 q 56 201 56 142 q 80 306 56 263 q 148 377 105 349 q 247 419 190 405 q 373 444 303 433 q 508 463 442 455 q 624 478 574 471 l 588 456 q 545 621 590 567 q 388 674 500 674 q 258 640 311 674 q 183 530 205 605 l 84 559 q 188 715 110 660 q 390 771 265 771 q 564 732 492 771 q 666 621 636 694 q 684 548 680 588 q 688 466 688 508 l 688 0 l 597 0 l 597 188 l 624 177 q 505 30 585 81 q 312 -21 424 -21 m 324 67 q 449 93 395 67 q 535 164 502 119 q 577 265 567 208 q 586 344 585 301 q 587 409 587 388 l 626 389 q 513 375 574 382 q 393 359 452 368 q 288 338 335 350 q 226 312 256 328 q 177 269 196 296 q 158 201 158 242 q 174 138 158 169 q 227 88 190 108 q 324 67 263 67 z "},"ẩ":{"ha":772,"x_min":56,"x_max":781,"o":"m 181 868 l 341 1056 l 435 1056 l 594 868 l 490 868 l 388 988 l 285 868 l 181 868 m 592 1025 l 558 1078 q 626 1119 587 1108 q 702 1118 665 1130 q 763 1065 739 1106 q 780 1001 781 1033 q 765 943 779 970 q 726 897 751 917 q 674 867 702 877 l 640 914 q 699 964 682 933 q 699 1026 717 995 q 669 1051 688 1047 q 630 1048 650 1055 q 592 1025 609 1040 m 312 -21 q 170 10 227 -21 q 84 91 113 40 q 56 201 56 142 q 80 306 56 263 q 148 377 105 349 q 247 419 190 405 q 373 444 303 433 q 508 463 442 455 q 624 478 574 471 l 588 456 q 545 621 590 567 q 388 674 500 674 q 258 640 311 674 q 183 530 205 605 l 84 559 q 188 715 110 660 q 390 771 265 771 q 564 732 492 771 q 666 621 636 694 q 684 548 680 588 q 688 466 688 508 l 688 0 l 597 0 l 597 188 l 624 177 q 505 30 585 81 q 312 -21 424 -21 m 324 67 q 449 93 395 67 q 535 164 502 119 q 577 265 567 208 q 586 344 585 301 q 587 409 587 388 l 626 389 q 513 375 574 382 q 393 359 452 368 q 288 338 335 350 q 226 312 256 328 q 177 269 196 296 q 158 201 158 242 q 174 138 158 169 q 227 88 190 108 q 324 67 263 67 z "},"ẫ":{"ha":772,"x_min":56,"x_max":688,"o":"m 188 868 l 347 1056 l 442 1056 l 601 868 l 497 868 l 394 988 l 292 868 l 188 868 m 503 1090 q 447 1102 474 1090 q 393 1130 419 1114 q 343 1157 367 1145 q 299 1169 320 1169 q 265 1148 273 1169 q 265 1102 258 1126 l 193 1102 q 206 1207 178 1164 q 294 1251 233 1251 q 352 1239 324 1251 q 406 1211 380 1227 q 456 1184 432 1196 q 499 1172 479 1172 q 533 1193 524 1172 q 534 1241 542 1214 l 606 1241 q 594 1135 622 1180 q 503 1090 566 1090 m 312 -21 q 170 10 227 -21 q 84 91 113 40 q 56 201 56 142 q 80 306 56 263 q 148 377 105 349 q 247 419 190 405 q 373 444 303 433 q 508 463 442 455 q 624 478 574 471 l 588 456 q 545 621 590 567 q 388 674 500 674 q 258 640 311 674 q 183 530 205 605 l 84 559 q 188 715 110 660 q 390 771 265 771 q 564 732 492 771 q 666 621 636 694 q 684 548 680 588 q 688 466 688 508 l 688 0 l 597 0 l 597 188 l 624 177 q 505 30 585 81 q 312 -21 424 -21 m 324 67 q 449 93 395 67 q 535 164 502 119 q 577 265 567 208 q 586 344 585 301 q 587 409 587 388 l 626 389 q 513 375 574 382 q 393 359 452 368 q 288 338 335 350 q 226 312 256 328 q 177 269 196 296 q 158 201 158 242 q 174 138 158 169 q 227 88 190 108 q 324 67 263 67 z "},"ä":{"ha":772,"x_min":56,"x_max":688,"o":"m 478 897 l 478 1008 l 590 1008 l 590 897 l 478 897 m 214 897 l 214 1008 l 325 1008 l 325 897 l 214 897 m 312 -21 q 170 10 227 -21 q 84 91 113 40 q 56 201 56 142 q 80 306 56 263 q 148 377 105 349 q 247 419 190 405 q 373 444 303 433 q 508 463 442 455 q 624 478 574 471 l 588 456 q 545 621 590 567 q 388 674 500 674 q 258 640 311 674 q 183 530 205 605 l 84 559 q 188 715 110 660 q 390 771 265 771 q 564 732 492 771 q 666 621 636 694 q 684 548 680 588 q 688 466 688 508 l 688 0 l 597 0 l 597 188 l 624 177 q 505 30 585 81 q 312 -21 424 -21 m 324 67 q 449 93 395 67 q 535 164 502 119 q 577 265 567 208 q 586 344 585 301 q 587 409 587 388 l 626 389 q 513 375 574 382 q 393 359 452 368 q 288 338 335 350 q 226 312 256 328 q 177 269 196 296 q 158 201 158 242 q 174 138 158 169 q 227 88 190 108 q 324 67 263 67 z "},"ạ":{"ha":772,"x_min":56,"x_max":688,"o":"m 321 -266 l 321 -151 l 440 -151 l 440 -266 l 321 -266 m 312 -21 q 170 10 227 -21 q 84 91 113 40 q 56 201 56 142 q 80 306 56 263 q 148 377 105 349 q 247 419 190 405 q 373 444 303 433 q 508 463 442 455 q 624 478 574 471 l 588 456 q 545 621 590 567 q 388 674 500 674 q 258 640 311 674 q 183 530 205 605 l 84 559 q 188 715 110 660 q 390 771 265 771 q 564 732 492 771 q 666 621 636 694 q 684 548 680 588 q 688 466 688 508 l 688 0 l 597 0 l 597 188 l 624 177 q 505 30 585 81 q 312 -21 424 -21 m 324 67 q 449 93 395 67 q 535 164 502 119 q 577 265 567 208 q 586 344 585 301 q 587 409 587 388 l 626 389 q 513 375 574 382 q 393 359 452 368 q 288 338 335 350 q 226 312 256 328 q 177 269 196 296 q 158 201 158 242 q 174 138 158 169 q 227 88 190 108 q 324 67 263 67 z "},"à":{"ha":772,"x_min":56,"x_max":688,"o":"m 353 868 l 270 1083 l 358 1083 l 441 868 l 353 868 m 312 -21 q 170 10 227 -21 q 84 91 113 40 q 56 201 56 142 q 80 306 56 263 q 148 377 105 349 q 247 419 190 405 q 373 444 303 433 q 508 463 442 455 q 624 478 574 471 l 588 456 q 545 621 590 567 q 388 674 500 674 q 258 640 311 674 q 183 530 205 605 l 84 559 q 188 715 110 660 q 390 771 265 771 q 564 732 492 771 q 666 621 636 694 q 684 548 680 588 q 688 466 688 508 l 688 0 l 597 0 l 597 188 l 624 177 q 505 30 585 81 q 312 -21 424 -21 m 324 67 q 449 93 395 67 q 535 164 502 119 q 577 265 567 208 q 586 344 585 301 q 587 409 587 388 l 626 389 q 513 375 574 382 q 393 359 452 368 q 288 338 335 350 q 226 312 256 328 q 177 269 196 296 q 158 201 158 242 q 174 138 158 169 q 227 88 190 108 q 324 67 263 67 z "},"ả":{"ha":772,"x_min":56,"x_max":688,"o":"m 318 1027 l 285 1081 q 352 1120 313 1109 q 428 1120 391 1132 q 489 1067 465 1108 q 506 1003 507 1034 q 491 945 506 972 q 453 898 477 918 q 400 869 428 878 l 367 916 q 426 966 408 935 q 426 1028 443 997 q 395 1053 414 1049 q 356 1050 376 1057 q 318 1027 335 1042 m 312 -21 q 170 10 227 -21 q 84 91 113 40 q 56 201 56 142 q 80 306 56 263 q 148 377 105 349 q 247 419 190 405 q 373 444 303 433 q 508 463 442 455 q 624 478 574 471 l 588 456 q 545 621 590 567 q 388 674 500 674 q 258 640 311 674 q 183 530 205 605 l 84 559 q 188 715 110 660 q 390 771 265 771 q 564 732 492 771 q 666 621 636 694 q 684 548 680 588 q 688 466 688 508 l 688 0 l 597 0 l 597 188 l 624 177 q 505 30 585 81 q 312 -21 424 -21 m 324 67 q 449 93 395 67 q 535 164 502 119 q 577 265 567 208 q 586 344 585 301 q 587 409 587 388 l 626 389 q 513 375 574 382 q 393 359 452 368 q 288 338 335 350 q 226 312 256 328 q 177 269 196 296 q 158 201 158 242 q 174 138 158 169 q 227 88 190 108 q 324 67 263 67 z "},"ā":{"ha":772,"x_min":56,"x_max":688,"o":"m 242 917 l 242 1003 l 590 1003 l 590 917 l 242 917 m 312 -21 q 170 10 227 -21 q 84 91 113 40 q 56 201 56 142 q 80 306 56 263 q 148 377 105 349 q 247 419 190 405 q 373 444 303 433 q 508 463 442 455 q 624 478 574 471 l 588 456 q 545 621 590 567 q 388 674 500 674 q 258 640 311 674 q 183 530 205 605 l 84 559 q 188 715 110 660 q 390 771 265 771 q 564 732 492 771 q 666 621 636 694 q 684 548 680 588 q 688 466 688 508 l 688 0 l 597 0 l 597 188 l 624 177 q 505 30 585 81 q 312 -21 424 -21 m 324 67 q 449 93 395 67 q 535 164 502 119 q 577 265 567 208 q 586 344 585 301 q 587 409 587 388 l 626 389 q 513 375 574 382 q 393 359 452 368 q 288 338 335 350 q 226 312 256 328 q 177 269 196 296 q 158 201 158 242 q 174 138 158 169 q 227 88 190 108 q 324 67 263 67 z "},"ą":{"ha":772,"x_min":56,"x_max":692,"o":"m 575 -335 q 508 -316 538 -335 q 460 -266 478 -297 q 442 -199 442 -235 q 468 -107 442 -154 q 537 -17 494 -60 q 633 61 581 27 l 688 0 q 610 -59 646 -26 q 553 -128 574 -93 q 531 -194 531 -164 q 547 -236 531 -219 q 584 -252 563 -252 q 617 -243 600 -252 q 648 -218 633 -233 l 692 -273 q 638 -319 669 -303 q 575 -335 607 -335 m 312 -21 q 170 10 227 -21 q 84 91 113 40 q 56 201 56 142 q 80 306 56 263 q 148 377 105 349 q 247 419 190 405 q 373 444 303 433 q 508 463 442 455 q 624 478 574 471 l 588 456 q 545 621 590 567 q 388 674 500 674 q 258 640 311 674 q 183 530 205 605 l 84 559 q 188 715 110 660 q 390 771 265 771 q 564 732 492 771 q 666 621 636 694 q 684 548 680 588 q 688 466 688 508 l 688 0 l 597 0 l 597 188 l 624 177 q 505 30 585 81 q 312 -21 424 -21 m 324 67 q 449 93 395 67 q 535 164 502 119 q 577 265 567 208 q 586 344 585 301 q 587 409 587 388 l 626 389 q 513 375 574 382 q 393 359 452 368 q 288 338 335 350 q 226 312 256 328 q 177 269 196 296 q 158 201 158 242 q 174 138 158 169 q 227 88 190 108 q 324 67 263 67 z "},"å":{"ha":772,"x_min":56,"x_max":688,"o":"m 396 831 q 319 852 354 831 q 264 907 285 872 q 244 983 244 941 q 264 1060 244 1025 q 319 1115 285 1094 q 396 1135 354 1135 q 473 1115 438 1135 q 527 1060 507 1094 q 548 983 548 1025 q 527 907 548 941 q 473 852 507 872 q 396 831 438 831 m 396 907 q 450 930 428 907 q 472 983 472 952 q 450 1038 472 1015 q 396 1060 428 1060 q 342 1038 365 1060 q 319 983 319 1015 q 342 930 319 952 q 396 907 365 907 m 312 -21 q 170 10 227 -21 q 84 91 113 40 q 56 201 56 142 q 80 306 56 263 q 148 377 105 349 q 247 419 190 405 q 373 444 303 433 q 508 463 442 455 q 624 478 574 471 l 588 456 q 545 621 590 567 q 388 674 500 674 q 258 640 311 674 q 183 530 205 605 l 84 559 q 188 715 110 660 q 390 771 265 771 q 564 732 492 771 q 666 621 636 694 q 684 548 680 588 q 688 466 688 508 l 688 0 l 597 0 l 597 188 l 624 177 q 505 30 585 81 q 312 -21 424 -21 m 324 67 q 449 93 395 67 q 535 164 502 119 q 577 265 567 208 q 586 344 585 301 q 587 409 587 388 l 626 389 q 513 375 574 382 q 393 359 452 368 q 288 338 335 350 q 226 312 256 328 q 177 269 196 296 q 158 201 158 242 q 174 138 158 169 q 227 88 190 108 q 324 67 263 67 z "},"ã":{"ha":772,"x_min":56,"x_max":688,"o":"m 508 869 q 451 881 478 869 q 397 909 423 893 q 348 936 371 924 q 303 948 324 948 q 269 927 277 948 q 269 881 262 906 l 197 881 q 210 986 182 943 q 299 1030 238 1030 q 356 1018 328 1030 q 410 991 384 1006 q 460 963 436 975 q 503 951 483 951 q 538 972 528 951 q 538 1020 547 993 l 610 1020 q 598 914 626 959 q 508 869 570 869 m 312 -21 q 170 10 227 -21 q 84 91 113 40 q 56 201 56 142 q 80 306 56 263 q 148 377 105 349 q 247 419 190 405 q 373 444 303 433 q 508 463 442 455 q 624 478 574 471 l 588 456 q 545 621 590 567 q 388 674 500 674 q 258 640 311 674 q 183 530 205 605 l 84 559 q 188 715 110 660 q 390 771 265 771 q 564 732 492 771 q 666 621 636 694 q 684 548 680 588 q 688 466 688 508 l 688 0 l 597 0 l 597 188 l 624 177 q 505 30 585 81 q 312 -21 424 -21 m 324 67 q 449 93 395 67 q 535 164 502 119 q 577 265 567 208 q 586 344 585 301 q 587 409 587 388 l 626 389 q 513 375 574 382 q 393 359 452 368 q 288 338 335 350 q 226 312 256 328 q 177 269 196 296 q 158 201 158 242 q 174 138 158 169 q 227 88 190 108 q 324 67 263 67 z "},"æ":{"ha":1308,"x_min":56,"x_max":1255,"o":"m 930 -21 q 746 30 822 -21 q 630 169 670 81 q 590 373 590 258 q 631 581 590 492 q 747 721 671 671 q 928 771 822 771 q 1111 717 1038 771 q 1219 568 1184 663 q 1252 347 1255 472 l 1153 347 l 1153 383 q 1098 598 1150 519 q 926 677 1045 677 q 794 639 846 677 q 717 532 742 600 q 692 375 692 464 q 751 159 692 240 q 926 77 810 77 q 1057 113 999 77 q 1147 222 1115 149 l 1238 185 q 1164 73 1210 119 q 1058 3 1117 27 q 930 -21 998 -21 m 324 67 q 467 104 404 67 q 556 197 529 140 q 580 267 573 229 q 587 337 586 306 q 588 383 588 369 l 612 356 l 397 349 q 326 344 367 349 q 247 327 285 340 q 183 284 208 313 q 158 203 158 255 q 202 103 158 139 q 324 67 247 67 m 319 -21 q 125 40 194 -21 q 56 202 56 101 q 80 306 56 265 q 142 370 103 347 q 225 406 181 394 q 312 422 270 418 q 384 428 354 426 l 602 435 l 587 418 q 572 561 592 503 q 507 646 552 618 q 391 674 462 674 q 260 643 317 674 q 181 537 203 612 l 84 567 q 146 677 102 631 q 253 747 190 722 q 392 771 316 771 q 579 720 508 771 q 674 581 650 670 q 686 519 684 549 q 688 462 688 488 l 644 188 q 563 63 614 109 q 449 -2 512 17 q 319 -21 385 -21 m 658 347 l 658 434 l 1200 434 l 1200 347 l 658 347 z "},"b":{"ha":822,"x_min":97,"x_max":767,"o":"m 434 -21 q 259 32 331 -21 q 151 174 188 84 q 114 376 114 264 q 151 579 114 490 q 260 719 188 668 q 438 771 333 771 q 615 719 541 771 q 727 577 688 667 q 767 376 767 488 q 727 174 767 263 q 613 32 688 84 q 434 -21 539 -21 m 97 0 l 97 1000 l 199 1000 l 199 565 l 188 565 l 188 0 l 97 0 m 424 74 q 554 114 502 74 q 632 222 606 153 q 658 376 658 290 q 633 528 658 460 q 555 636 607 597 q 422 676 502 676 q 291 638 343 676 q 214 532 240 599 q 188 376 188 464 q 214 220 188 289 q 292 113 240 152 q 424 74 344 74 z "},"c":{"ha":769,"x_min":56,"x_max":723,"o":"m 408 -21 q 217 30 295 -21 q 98 170 138 81 q 56 375 57 259 q 99 582 57 493 q 219 721 140 672 q 409 771 297 771 q 607 715 523 771 q 723 563 692 660 l 623 531 q 539 636 597 599 q 408 673 482 673 q 272 635 326 673 q 191 530 217 597 q 164 375 165 463 q 226 159 165 240 q 408 77 288 77 q 539 112 485 77 q 620 215 592 147 l 723 184 q 601 32 681 84 q 408 -21 520 -21 z "},"ć":{"ha":769,"x_min":56,"x_max":723,"o":"m 463 868 l 375 868 l 458 1083 l 545 1083 l 463 868 m 408 -21 q 217 30 295 -21 q 98 170 138 81 q 56 375 57 259 q 99 582 57 493 q 219 721 140 672 q 409 771 297 771 q 607 715 523 771 q 723 563 692 660 l 623 531 q 539 636 597 599 q 408 673 482 673 q 272 635 326 673 q 191 530 217 597 q 164 375 165 463 q 226 159 165 240 q 408 77 288 77 q 539 112 485 77 q 620 215 592 147 l 723 184 q 601 32 681 84 q 408 -21 520 -21 z "},"č":{"ha":769,"x_min":56,"x_max":723,"o":"m 202 1056 l 306 1056 l 408 935 l 510 1056 l 615 1056 l 456 868 l 361 868 l 202 1056 m 408 -21 q 217 30 295 -21 q 98 170 138 81 q 56 375 57 259 q 99 582 57 493 q 219 721 140 672 q 409 771 297 771 q 607 715 523 771 q 723 563 692 660 l 623 531 q 539 636 597 599 q 408 673 482 673 q 272 635 326 673 q 191 530 217 597 q 164 375 165 463 q 226 159 165 240 q 408 77 288 77 q 539 112 485 77 q 620 215 592 147 l 723 184 q 601 32 681 84 q 408 -21 520 -21 z "},"ç":{"ha":769,"x_min":56,"x_max":723,"o":"m 374 -333 q 327 -327 349 -333 q 286 -312 306 -321 l 313 -241 q 366 -253 344 -253 q 408 -236 393 -253 q 423 -199 423 -219 q 394 -153 423 -167 q 331 -128 366 -139 l 382 15 l 458 15 l 422 -83 q 483 -128 460 -99 q 506 -202 506 -157 q 467 -296 506 -258 q 374 -333 428 -333 m 408 -21 q 217 30 295 -21 q 98 170 138 81 q 56 375 57 259 q 99 582 57 493 q 219 721 140 672 q 409 771 297 771 q 607 715 523 771 q 723 563 692 660 l 623 531 q 539 636 597 599 q 408 673 482 673 q 272 635 326 673 q 191 530 217 597 q 164 375 165 463 q 226 159 165 240 q 408 77 288 77 q 539 112 485 77 q 620 215 592 147 l 723 184 q 601 32 681 84 q 408 -21 520 -21 z "},"ĉ":{"ha":769,"x_min":56,"x_max":723,"o":"m 203 868 l 363 1056 l 458 1056 l 617 868 l 513 868 l 410 988 l 308 868 l 203 868 m 408 -21 q 217 30 295 -21 q 98 170 138 81 q 56 375 57 259 q 99 582 57 493 q 219 721 140 672 q 409 771 297 771 q 607 715 523 771 q 723 563 692 660 l 623 531 q 539 636 597 599 q 408 673 482 673 q 272 635 326 673 q 191 530 217 597 q 164 375 165 463 q 226 159 165 240 q 408 77 288 77 q 539 112 485 77 q 620 215 592 147 l 723 184 q 601 32 681 84 q 408 -21 520 -21 z "},"ċ":{"ha":769,"x_min":56,"x_max":723,"o":"m 362 909 l 362 1028 l 481 1028 l 481 909 l 362 909 m 408 -21 q 217 30 295 -21 q 98 170 138 81 q 56 375 57 259 q 99 582 57 493 q 219 721 140 672 q 409 771 297 771 q 607 715 523 771 q 723 563 692 660 l 623 531 q 539 636 597 599 q 408 673 482 673 q 272 635 326 673 q 191 530 217 597 q 164 375 165 463 q 226 159 165 240 q 408 77 288 77 q 539 112 485 77 q 620 215 592 147 l 723 184 q 601 32 681 84 q 408 -21 520 -21 z "},"d":{"ha":823,"x_min":56,"x_max":726,"o":"m 388 -21 q 209 32 283 -21 q 95 174 135 84 q 56 376 56 263 q 95 577 56 488 q 208 719 134 667 q 384 771 281 771 q 562 719 490 771 q 671 579 634 668 q 708 376 708 490 q 672 174 708 264 q 563 32 635 84 q 388 -21 492 -21 m 399 74 q 531 113 478 74 q 608 220 583 152 q 634 376 634 289 q 608 532 634 464 q 531 638 583 599 q 401 676 479 676 q 267 636 320 676 q 189 528 215 597 q 164 376 164 460 q 190 222 164 290 q 268 114 216 153 q 399 74 320 74 m 634 0 l 634 565 l 623 565 l 623 1000 l 726 1000 l 726 0 l 634 0 z "},"ð":{"ha":809,"x_min":56,"x_max":753,"o":"m 405 -21 q 219 25 297 -22 q 99 155 142 71 q 56 349 56 238 q 99 545 56 462 q 220 675 142 629 q 405 720 298 722 q 538 696 474 722 q 649 617 602 670 q 593 782 638 711 q 475 896 548 853 q 306 945 401 938 l 320 1031 q 525 974 438 1025 q 665 831 613 923 q 719 713 699 776 q 746 562 738 649 q 753 352 753 475 q 711 155 753 239 q 591 24 669 70 q 405 -21 513 -22 m 405 74 q 586 148 524 74 q 649 351 649 223 q 585 553 649 480 q 405 626 521 627 q 223 552 286 627 q 160 350 160 478 q 224 147 160 219 q 405 74 287 74 m 428 781 l 364 835 l 569 1087 l 634 1032 l 428 781 z "},"ď":{"ha":997,"x_min":56,"x_max":984,"o":"m 388 -21 q 209 32 283 -21 q 95 174 135 84 q 56 376 56 263 q 95 577 56 488 q 208 719 134 667 q 384 771 281 771 q 562 719 490 771 q 671 579 634 668 q 708 376 708 490 q 672 174 708 264 q 563 32 635 84 q 388 -21 492 -21 m 399 74 q 531 113 478 74 q 608 220 583 152 q 634 376 634 289 q 608 532 634 464 q 531 638 583 599 q 401 676 479 676 q 267 636 320 676 q 189 528 215 597 q 164 376 164 460 q 190 222 164 290 q 268 114 216 153 q 399 74 320 74 m 634 0 l 634 565 l 623 565 l 623 1000 l 726 1000 l 726 0 l 634 0 m 866 718 l 872 769 q 913 780 900 767 q 928 815 925 793 q 929 863 931 838 l 866 863 l 866 1010 l 985 1010 l 985 835 q 952 740 985 772 q 866 718 920 708 z "},"đ":{"ha":823,"x_min":56,"x_max":823,"o":"m 474 824 l 474 911 l 823 911 l 823 824 l 474 824 m 388 -21 q 209 32 283 -21 q 95 174 135 84 q 56 376 56 263 q 95 577 56 488 q 208 719 134 667 q 384 771 281 771 q 562 719 490 771 q 671 579 634 668 q 708 376 708 490 q 672 174 708 264 q 563 32 635 84 q 388 -21 492 -21 m 399 74 q 531 113 478 74 q 608 220 583 152 q 634 376 634 289 q 608 532 634 464 q 531 638 583 599 q 401 676 479 676 q 267 636 320 676 q 189 528 215 597 q 164 376 164 460 q 190 222 164 290 q 268 114 216 153 q 399 74 320 74 m 634 0 l 634 565 l 623 565 l 623 1000 l 726 1000 l 726 0 l 634 0 z "},"e":{"ha":812,"x_min":56,"x_max":759,"o":"m 415 -21 q 225 28 305 -21 q 100 165 144 76 q 56 372 56 253 q 99 584 56 494 q 223 722 143 674 q 410 771 302 771 q 600 720 522 771 q 719 574 678 669 q 756 347 759 478 l 651 347 l 651 383 q 589 603 649 528 q 413 677 528 677 q 228 599 292 677 q 164 375 164 520 q 228 155 164 233 q 410 77 292 77 q 551 114 491 77 q 646 222 611 151 l 741 185 q 610 33 697 87 q 415 -21 524 -21 m 128 347 l 128 432 l 701 432 l 701 347 l 128 347 z "},"é":{"ha":812,"x_min":56,"x_max":759,"o":"m 469 868 l 382 868 l 465 1083 l 552 1083 l 469 868 m 415 -21 q 225 28 305 -21 q 100 165 144 76 q 56 372 56 253 q 99 584 56 494 q 223 722 143 674 q 410 771 302 771 q 600 720 522 771 q 719 574 678 669 q 756 347 759 478 l 651 347 l 651 383 q 589 603 649 528 q 413 677 528 677 q 228 599 292 677 q 164 375 164 520 q 228 155 164 233 q 410 77 292 77 q 551 114 491 77 q 646 222 611 151 l 741 185 q 610 33 697 87 q 415 -21 524 -21 m 128 347 l 128 432 l 701 432 l 701 347 l 128 347 z "},"ě":{"ha":812,"x_min":56,"x_max":759,"o":"m 203 1056 l 308 1056 l 410 935 l 512 1056 l 616 1056 l 457 868 l 363 868 l 203 1056 m 415 -21 q 225 28 305 -21 q 100 165 144 76 q 56 372 56 253 q 99 584 56 494 q 223 722 143 674 q 410 771 302 771 q 600 720 522 771 q 719 574 678 669 q 756 347 759 478 l 651 347 l 651 383 q 589 603 649 528 q 413 677 528 677 q 228 599 292 677 q 164 375 164 520 q 228 155 164 233 q 410 77 292 77 q 551 114 491 77 q 646 222 611 151 l 741 185 q 610 33 697 87 q 415 -21 524 -21 m 128 347 l 128 432 l 701 432 l 701 347 l 128 347 z "},"ê":{"ha":812,"x_min":56,"x_max":759,"o":"m 203 868 l 363 1056 l 457 1056 l 616 868 l 512 868 l 410 988 l 308 868 l 203 868 m 415 -21 q 225 28 305 -21 q 100 165 144 76 q 56 372 56 253 q 99 584 56 494 q 223 722 143 674 q 410 771 302 771 q 600 720 522 771 q 719 574 678 669 q 756 347 759 478 l 651 347 l 651 383 q 589 603 649 528 q 413 677 528 677 q 228 599 292 677 q 164 375 164 520 q 228 155 164 233 q 410 77 292 77 q 551 114 491 77 q 646 222 611 151 l 741 185 q 610 33 697 87 q 415 -21 524 -21 m 128 347 l 128 432 l 701 432 l 701 347 l 128 347 z "},"ế":{"ha":812,"x_min":56,"x_max":776,"o":"m 216 868 l 375 1056 l 469 1056 l 628 868 l 524 868 l 422 988 l 320 868 l 216 868 m 693 1014 l 606 1014 l 688 1229 l 776 1229 l 693 1014 m 415 -21 q 225 28 305 -21 q 100 165 144 76 q 56 372 56 253 q 99 584 56 494 q 223 722 143 674 q 410 771 302 771 q 600 720 522 771 q 719 574 678 669 q 756 347 759 478 l 651 347 l 651 383 q 589 603 649 528 q 413 677 528 677 q 228 599 292 677 q 164 375 164 520 q 228 155 164 233 q 410 77 292 77 q 551 114 491 77 q 646 222 611 151 l 741 185 q 610 33 697 87 q 415 -21 524 -21 m 128 347 l 128 432 l 701 432 l 701 347 l 128 347 z "},"ệ":{"ha":812,"x_min":56,"x_max":759,"o":"m 347 -266 l 347 -151 l 465 -151 l 465 -266 l 347 -266 m 203 868 l 363 1056 l 457 1056 l 616 868 l 512 868 l 410 988 l 308 868 l 203 868 m 415 -21 q 225 28 305 -21 q 100 165 144 76 q 56 372 56 253 q 99 584 56 494 q 223 722 143 674 q 410 771 302 771 q 600 720 522 771 q 719 574 678 669 q 756 347 759 478 l 651 347 l 651 383 q 589 603 649 528 q 413 677 528 677 q 228 599 292 677 q 164 375 164 520 q 228 155 164 233 q 410 77 292 77 q 551 114 491 77 q 646 222 611 151 l 741 185 q 610 33 697 87 q 415 -21 524 -21 m 128 347 l 128 432 l 701 432 l 701 347 l 128 347 z "},"ề":{"ha":812,"x_min":56,"x_max":759,"o":"m 203 868 l 362 1056 l 456 1056 l 616 868 l 512 868 l 409 988 l 307 868 l 203 868 m 590 1014 l 508 1229 l 595 1229 l 678 1014 l 590 1014 m 415 -21 q 225 28 305 -21 q 100 165 144 76 q 56 372 56 253 q 99 584 56 494 q 223 722 143 674 q 410 771 302 771 q 600 720 522 771 q 719 574 678 669 q 756 347 759 478 l 651 347 l 651 383 q 589 603 649 528 q 413 677 528 677 q 228 599 292 677 q 164 375 164 520 q 228 155 164 233 q 410 77 292 77 q 551 114 491 77 q 646 222 611 151 l 741 185 q 610 33 697 87 q 415 -21 524 -21 m 128 347 l 128 432 l 701 432 l 701 347 l 128 347 z "},"ể":{"ha":812,"x_min":56,"x_max":809,"o":"m 210 868 l 369 1056 l 464 1056 l 623 868 l 519 868 l 417 988 l 314 868 l 210 868 m 620 1025 l 587 1078 q 654 1119 615 1108 q 730 1118 693 1130 q 791 1065 767 1106 q 808 1001 809 1033 q 793 943 808 970 q 755 897 779 917 q 702 867 731 877 l 669 914 q 728 964 710 933 q 728 1026 745 995 q 697 1051 716 1047 q 658 1048 678 1055 q 620 1025 638 1040 m 415 -21 q 225 28 305 -21 q 100 165 144 76 q 56 372 56 253 q 99 584 56 494 q 223 722 143 674 q 410 771 302 771 q 600 720 522 771 q 719 574 678 669 q 756 347 759 478 l 651 347 l 651 383 q 589 603 649 528 q 413 677 528 677 q 228 599 292 677 q 164 375 164 520 q 228 155 164 233 q 410 77 292 77 q 551 114 491 77 q 646 222 611 151 l 741 185 q 610 33 697 87 q 415 -21 524 -21 m 128 347 l 128 432 l 701 432 l 701 347 l 128 347 z "},"ễ":{"ha":812,"x_min":56,"x_max":759,"o":"m 208 868 l 367 1056 l 461 1056 l 620 868 l 516 868 l 414 988 l 312 868 l 208 868 m 523 1090 q 466 1102 494 1090 q 412 1130 438 1114 q 363 1157 386 1145 q 319 1169 340 1169 q 285 1148 292 1169 q 285 1102 277 1126 l 213 1102 q 225 1207 197 1164 q 314 1251 253 1251 q 372 1239 344 1251 q 425 1211 399 1227 q 475 1184 451 1196 q 519 1172 499 1172 q 553 1193 544 1172 q 553 1241 562 1214 l 626 1241 q 613 1135 641 1180 q 523 1090 585 1090 m 415 -21 q 225 28 305 -21 q 100 165 144 76 q 56 372 56 253 q 99 584 56 494 q 223 722 143 674 q 410 771 302 771 q 600 720 522 771 q 719 574 678 669 q 756 347 759 478 l 651 347 l 651 383 q 589 603 649 528 q 413 677 528 677 q 228 599 292 677 q 164 375 164 520 q 228 155 164 233 q 410 77 292 77 q 551 114 491 77 q 646 222 611 151 l 741 185 q 610 33 697 87 q 415 -21 524 -21 m 128 347 l 128 432 l 701 432 l 701 347 l 128 347 z "},"ë":{"ha":812,"x_min":56,"x_max":759,"o":"m 488 897 l 488 1008 l 599 1008 l 599 897 l 488 897 m 223 897 l 223 1008 l 334 1008 l 334 897 l 223 897 m 415 -21 q 225 28 305 -21 q 100 165 144 76 q 56 372 56 253 q 99 584 56 494 q 223 722 143 674 q 410 771 302 771 q 600 720 522 771 q 719 574 678 669 q 756 347 759 478 l 651 347 l 651 383 q 589 603 649 528 q 413 677 528 677 q 228 599 292 677 q 164 375 164 520 q 228 155 164 233 q 410 77 292 77 q 551 114 491 77 q 646 222 611 151 l 741 185 q 610 33 697 87 q 415 -21 524 -21 m 128 347 l 128 432 l 701 432 l 701 347 l 128 347 z "},"ė":{"ha":812,"x_min":56,"x_max":759,"o":"m 352 909 l 352 1028 l 470 1028 l 470 909 l 352 909 m 415 -21 q 225 28 305 -21 q 100 165 144 76 q 56 372 56 253 q 99 584 56 494 q 223 722 143 674 q 410 771 302 771 q 600 720 522 771 q 719 574 678 669 q 756 347 759 478 l 651 347 l 651 383 q 589 603 649 528 q 413 677 528 677 q 228 599 292 677 q 164 375 164 520 q 228 155 164 233 q 410 77 292 77 q 551 114 491 77 q 646 222 611 151 l 741 185 q 610 33 697 87 q 415 -21 524 -21 m 128 347 l 128 432 l 701 432 l 701 347 l 128 347 z "},"ẹ":{"ha":812,"x_min":56,"x_max":759,"o":"m 356 -266 l 356 -151 l 475 -151 l 475 -266 l 356 -266 m 415 -21 q 225 28 305 -21 q 100 165 144 76 q 56 372 56 253 q 99 584 56 494 q 223 722 143 674 q 410 771 302 771 q 600 720 522 771 q 719 574 678 669 q 756 347 759 478 l 651 347 l 651 383 q 589 603 649 528 q 413 677 528 677 q 228 599 292 677 q 164 375 164 520 q 228 155 164 233 q 410 77 292 77 q 551 114 491 77 q 646 222 611 151 l 741 185 q 610 33 697 87 q 415 -21 524 -21 m 128 347 l 128 432 l 701 432 l 701 347 l 128 347 z "},"è":{"ha":812,"x_min":56,"x_max":759,"o":"m 376 868 l 294 1083 l 381 1083 l 464 868 l 376 868 m 415 -21 q 225 28 305 -21 q 100 165 144 76 q 56 372 56 253 q 99 584 56 494 q 223 722 143 674 q 410 771 302 771 q 600 720 522 771 q 719 574 678 669 q 756 347 759 478 l 651 347 l 651 383 q 589 603 649 528 q 413 677 528 677 q 228 599 292 677 q 164 375 164 520 q 228 155 164 233 q 410 77 292 77 q 551 114 491 77 q 646 222 611 151 l 741 185 q 610 33 697 87 q 415 -21 524 -21 m 128 347 l 128 432 l 701 432 l 701 347 l 128 347 z "},"ẻ":{"ha":833,"x_min":56,"x_max":759,"o":"m 339 1027 l 306 1081 q 373 1120 334 1109 q 449 1120 412 1132 q 510 1067 486 1108 q 527 1003 528 1034 q 512 945 526 972 q 474 898 498 918 q 421 869 449 878 l 388 916 q 447 966 429 935 q 447 1028 464 997 q 416 1053 435 1049 q 377 1050 397 1057 q 339 1027 356 1042 m 415 -21 q 225 28 305 -21 q 100 165 144 76 q 56 372 56 253 q 99 584 56 494 q 223 722 143 674 q 410 771 302 771 q 600 720 522 771 q 719 574 678 669 q 756 347 759 478 l 651 347 l 651 383 q 589 603 649 528 q 413 677 528 677 q 228 599 292 677 q 164 375 164 520 q 228 155 164 233 q 410 77 292 77 q 551 114 491 77 q 646 222 611 151 l 741 185 q 610 33 697 87 q 415 -21 524 -21 m 128 347 l 128 432 l 701 432 l 701 347 l 128 347 z "},"ē":{"ha":812,"x_min":56,"x_max":759,"o":"m 251 917 l 251 1003 l 599 1003 l 599 917 l 251 917 m 415 -21 q 225 28 305 -21 q 100 165 144 76 q 56 372 56 253 q 99 584 56 494 q 223 722 143 674 q 410 771 302 771 q 600 720 522 771 q 719 574 678 669 q 756 347 759 478 l 651 347 l 651 383 q 589 603 649 528 q 413 677 528 677 q 228 599 292 677 q 164 375 164 520 q 228 155 164 233 q 410 77 292 77 q 551 114 491 77 q 646 222 611 151 l 741 185 q 610 33 697 87 q 415 -21 524 -21 m 128 347 l 128 432 l 701 432 l 701 347 l 128 347 z "},"ę":{"ha":812,"x_min":56,"x_max":759,"o":"m 621 -322 q 538 -329 580 -339 q 469 -290 496 -319 q 437 -222 443 -261 q 444 -142 431 -183 q 472 -82 455 -112 q 508 -26 490 -51 q 547 22 521 -8 q 602 90 574 53 q 649 163 631 126 l 728 159 q 691 97 713 129 q 647 33 669 64 q 607 -22 625 2 q 580 -60 588 -47 q 547 -116 562 -88 q 525 -169 532 -144 q 521 -201 521 -184 q 534 -232 522 -219 q 587 -246 558 -256 q 639 -217 617 -237 l 685 -273 q 657 -300 673 -287 q 621 -322 641 -312 m 415 -21 q 225 28 305 -21 q 100 165 144 76 q 56 372 56 253 q 99 584 56 494 q 223 722 143 674 q 410 771 302 771 q 600 720 522 771 q 719 574 678 669 q 756 347 759 478 l 651 347 l 651 383 q 589 603 649 528 q 413 677 528 677 q 228 599 292 677 q 164 375 164 520 q 228 155 164 233 q 410 77 292 77 q 551 114 491 77 q 646 222 611 151 l 741 185 q 610 33 697 87 q 415 -21 524 -21 m 128 347 l 128 432 l 701 432 l 701 347 l 128 347 z "},"ẽ":{"ha":812,"x_min":56,"x_max":759,"o":"m 519 869 q 463 881 490 869 q 409 909 435 893 q 359 936 383 924 q 315 948 336 948 q 281 927 288 948 q 281 881 274 906 l 209 881 q 221 986 193 943 q 310 1030 249 1030 q 368 1018 340 1030 q 422 991 396 1006 q 471 963 448 975 q 515 951 494 951 q 549 972 540 951 q 549 1020 558 993 l 622 1020 q 610 914 638 959 q 519 869 582 869 m 415 -21 q 225 28 305 -21 q 100 165 144 76 q 56 372 56 253 q 99 584 56 494 q 223 722 143 674 q 410 771 302 771 q 600 720 522 771 q 719 574 678 669 q 756 347 759 478 l 651 347 l 651 383 q 589 603 649 528 q 413 677 528 677 q 228 599 292 677 q 164 375 164 520 q 228 155 164 233 q 410 77 292 77 q 551 114 491 77 q 646 222 611 151 l 741 185 q 610 33 697 87 q 415 -21 524 -21 m 128 347 l 128 432 l 701 432 l 701 347 l 128 347 z "},"ə":{"ha":812,"x_min":53,"x_max":756,"o":"m 398 771 q 588 722 507 771 q 712 585 668 674 q 756 378 756 497 q 713 166 756 256 q 589 28 669 76 q 401 -21 510 -21 q 212 30 290 -21 q 93 176 133 81 q 57 403 53 272 l 160 403 l 160 367 q 224 148 163 222 q 399 73 284 73 q 584 151 520 73 q 648 375 648 230 q 584 595 648 517 q 401 673 520 673 q 261 636 322 673 q 166 528 201 599 l 71 565 q 202 717 116 664 q 398 771 289 771 m 684 403 l 684 318 l 111 318 l 111 403 l 684 403 z "},"f":{"ha":492,"x_min":42,"x_max":478,"o":"m 172 0 l 172 806 q 175 863 172 835 q 188 918 178 892 q 218 966 197 944 q 268 1002 241 991 q 325 1017 295 1014 q 383 1021 354 1021 l 478 1021 l 478 935 l 390 935 q 302 906 331 935 q 274 817 274 878 l 274 0 l 172 0 m 42 663 l 42 750 l 478 750 l 478 663 l 42 663 z "},"g":{"ha":822,"x_min":56,"x_max":725,"o":"m 395 -354 q 282 -337 338 -354 q 178 -284 226 -320 q 99 -189 131 -247 l 192 -137 q 280 -227 223 -200 q 395 -255 336 -255 q 527 -225 476 -255 q 600 -135 577 -194 q 622 12 623 -76 l 622 212 l 634 212 l 634 750 l 725 750 l 725 10 q 723 -51 725 -22 q 717 -109 722 -81 q 662 -247 703 -193 q 554 -328 621 -301 q 395 -354 487 -354 m 388 -21 q 209 32 283 -21 q 95 174 135 84 q 56 376 56 263 q 95 577 56 488 q 208 719 134 667 q 384 771 281 771 q 562 719 490 771 q 671 579 634 668 q 708 376 708 490 q 672 174 708 264 q 563 32 635 84 q 388 -21 492 -21 m 399 74 q 531 113 478 74 q 608 220 583 152 q 634 376 634 289 q 608 532 634 464 q 531 638 583 599 q 401 676 479 676 q 267 636 320 676 q 189 528 215 597 q 164 376 164 460 q 190 222 164 290 q 268 114 216 153 q 399 74 320 74 z "},"ğ":{"ha":822,"x_min":56,"x_max":725,"o":"m 440 839 q 349 863 390 839 q 284 928 308 888 q 260 1018 260 969 l 345 1018 q 373 951 345 979 q 440 924 401 924 q 507 951 479 924 q 534 1018 534 979 l 619 1018 q 594 928 619 969 q 530 863 570 888 q 440 839 489 839 m 395 -354 q 282 -337 338 -354 q 178 -284 226 -320 q 99 -189 131 -247 l 192 -137 q 280 -227 223 -200 q 395 -255 336 -255 q 527 -225 476 -255 q 600 -135 577 -194 q 622 12 623 -76 l 622 212 l 634 212 l 634 750 l 725 750 l 725 10 q 723 -51 725 -22 q 717 -109 722 -81 q 662 -247 703 -193 q 554 -328 621 -301 q 395 -354 487 -354 m 388 -21 q 209 32 283 -21 q 95 174 135 84 q 56 376 56 263 q 95 577 56 488 q 208 719 134 667 q 384 771 281 771 q 562 719 490 771 q 671 579 634 668 q 708 376 708 490 q 672 174 708 264 q 563 32 635 84 q 388 -21 492 -21 m 399 74 q 531 113 478 74 q 608 220 583 152 q 634 376 634 289 q 608 532 634 464 q 531 638 583 599 q 401 676 479 676 q 267 636 320 676 q 189 528 215 597 q 164 376 164 460 q 190 222 164 290 q 268 114 216 153 q 399 74 320 74 z "},"ĝ":{"ha":822,"x_min":56,"x_max":725,"o":"m 193 868 l 353 1056 l 447 1056 l 606 868 l 502 868 l 400 988 l 297 868 l 193 868 m 395 -354 q 282 -337 338 -354 q 178 -284 226 -320 q 99 -189 131 -247 l 192 -137 q 280 -227 223 -200 q 395 -255 336 -255 q 527 -225 476 -255 q 600 -135 577 -194 q 622 12 623 -76 l 622 212 l 634 212 l 634 750 l 725 750 l 725 10 q 723 -51 725 -22 q 717 -109 722 -81 q 662 -247 703 -193 q 554 -328 621 -301 q 395 -354 487 -354 m 388 -21 q 209 32 283 -21 q 95 174 135 84 q 56 376 56 263 q 95 577 56 488 q 208 719 134 667 q 384 771 281 771 q 562 719 490 771 q 671 579 634 668 q 708 376 708 490 q 672 174 708 264 q 563 32 635 84 q 388 -21 492 -21 m 399 74 q 531 113 478 74 q 608 220 583 152 q 634 376 634 289 q 608 532 634 464 q 531 638 583 599 q 401 676 479 676 q 267 636 320 676 q 189 528 215 597 q 164 376 164 460 q 190 222 164 290 q 268 114 216 153 q 399 74 320 74 z "},"ģ":{"ha":822,"x_min":56,"x_max":725,"o":"m 478 1140 l 478 1085 q 455 1081 470 1085 q 427 1063 440 1076 q 417 1024 415 1049 l 478 1024 l 478 909 l 363 909 l 363 1024 q 399 1111 363 1083 q 478 1140 435 1140 m 395 -354 q 282 -337 338 -354 q 178 -284 226 -320 q 99 -189 131 -247 l 192 -137 q 280 -227 223 -200 q 395 -255 336 -255 q 527 -225 476 -255 q 600 -135 577 -194 q 622 12 623 -76 l 622 212 l 634 212 l 634 750 l 725 750 l 725 10 q 723 -51 725 -22 q 717 -109 722 -81 q 662 -247 703 -193 q 554 -328 621 -301 q 395 -354 487 -354 m 388 -21 q 209 32 283 -21 q 95 174 135 84 q 56 376 56 263 q 95 577 56 488 q 208 719 134 667 q 384 771 281 771 q 562 719 490 771 q 671 579 634 668 q 708 376 708 490 q 672 174 708 264 q 563 32 635 84 q 388 -21 492 -21 m 399 74 q 531 113 478 74 q 608 220 583 152 q 634 376 634 289 q 608 532 634 464 q 531 638 583 599 q 401 676 479 676 q 267 636 320 676 q 189 528 215 597 q 164 376 164 460 q 190 222 164 290 q 268 114 216 153 q 399 74 320 74 z "},"ġ":{"ha":822,"x_min":56,"x_max":725,"o":"m 377 909 l 377 1028 l 495 1028 l 495 909 l 377 909 m 395 -354 q 282 -337 338 -354 q 178 -284 226 -320 q 99 -189 131 -247 l 192 -137 q 280 -227 223 -200 q 395 -255 336 -255 q 527 -225 476 -255 q 600 -135 577 -194 q 622 12 623 -76 l 622 212 l 634 212 l 634 750 l 725 750 l 725 10 q 723 -51 725 -22 q 717 -109 722 -81 q 662 -247 703 -193 q 554 -328 621 -301 q 395 -354 487 -354 m 388 -21 q 209 32 283 -21 q 95 174 135 84 q 56 376 56 263 q 95 577 56 488 q 208 719 134 667 q 384 771 281 771 q 562 719 490 771 q 671 579 634 668 q 708 376 708 490 q 672 174 708 264 q 563 32 635 84 q 388 -21 492 -21 m 399 74 q 531 113 478 74 q 608 220 583 152 q 634 376 634 289 q 608 532 634 464 q 531 638 583 599 q 401 676 479 676 q 267 636 320 676 q 189 528 215 597 q 164 376 164 460 q 190 222 164 290 q 268 114 216 153 q 399 74 320 74 z "},"h":{"ha":825,"x_min":97,"x_max":742,"o":"m 639 0 l 639 383 q 627 498 639 445 q 589 589 615 550 q 522 650 563 628 q 422 672 481 672 q 326 653 367 672 q 257 599 285 634 q 214 514 228 564 q 199 400 199 464 l 127 416 q 167 610 127 531 q 278 728 208 688 q 441 769 349 769 q 559 748 508 769 q 644 692 609 727 q 701 611 679 656 q 732 514 722 565 q 742 413 742 463 l 742 0 l 639 0 m 97 0 l 97 1000 l 189 1000 l 189 435 l 199 435 l 199 0 l 97 0 z "},"ħ":{"ha":825,"x_min":8,"x_max":742,"o":"m 8 824 l 8 911 l 356 911 l 356 824 l 8 824 m 639 0 l 639 383 q 627 498 639 445 q 589 589 615 550 q 522 650 563 628 q 422 672 481 672 q 326 653 367 672 q 257 599 285 634 q 214 514 228 564 q 199 400 199 464 l 127 416 q 167 610 127 531 q 278 728 208 688 q 441 769 349 769 q 559 748 508 769 q 644 692 609 727 q 701 611 679 656 q 732 514 722 565 q 742 413 742 463 l 742 0 l 639 0 m 97 0 l 97 1000 l 189 1000 l 189 435 l 199 435 l 199 0 l 97 0 z "},"ĥ":{"ha":825,"x_min":-65,"x_max":742,"o":"m -65 1118 l 94 1306 l 189 1306 l 349 1118 l 244 1118 l 142 1238 l 40 1118 l -65 1118 m 639 0 l 639 383 q 627 498 639 445 q 589 589 615 550 q 522 650 563 628 q 422 672 481 672 q 326 653 367 672 q 257 599 285 634 q 214 514 228 564 q 199 400 199 464 l 127 416 q 167 610 127 531 q 278 728 208 688 q 441 769 349 769 q 559 748 508 769 q 644 692 609 727 q 701 611 679 656 q 732 514 722 565 q 742 413 742 463 l 742 0 l 639 0 m 97 0 l 97 1000 l 189 1000 l 189 435 l 199 435 l 199 0 l 97 0 z "},"i":{"ha":324,"x_min":111,"x_max":213,"o":"m 111 892 l 111 1007 l 213 1007 l 213 892 l 111 892 m 111 0 l 111 750 l 213 750 l 213 0 l 111 0 z "},"ı":{"ha":324,"x_min":111,"x_max":213,"o":"m 111 0 l 111 750 l 213 750 l 213 0 l 111 0 z "},"í":{"ha":324,"x_min":111,"x_max":290,"o":"m 208 868 l 120 868 l 203 1083 l 290 1083 l 208 868 m 111 0 l 111 750 l 213 750 l 213 0 l 111 0 z "},"î":{"ha":324,"x_min":-41,"x_max":372,"o":"m -41 868 l 119 1056 l 213 1056 l 372 868 l 268 868 l 166 988 l 63 868 l -41 868 m 111 0 l 111 750 l 213 750 l 213 0 l 111 0 z "},"ï":{"ha":324,"x_min":-26,"x_max":350,"o":"m 239 897 l 239 1008 l 350 1008 l 350 897 l 239 897 m -26 897 l -26 1008 l 85 1008 l 85 897 l -26 897 m 111 0 l 111 750 l 213 750 l 213 0 l 111 0 z "},"ị":{"ha":324,"x_min":103,"x_max":222,"o":"m 103 -266 l 103 -151 l 222 -151 l 222 -266 l 103 -266 m 111 892 l 111 1007 l 213 1007 l 213 892 l 111 892 m 111 0 l 111 750 l 213 750 l 213 0 l 111 0 z "},"ì":{"ha":324,"x_min":33,"x_max":213,"o":"m 117 868 l 33 1083 l 121 1083 l 204 868 l 117 868 m 111 0 l 111 750 l 213 750 l 213 0 l 111 0 z "},"ỉ":{"ha":324,"x_min":38,"x_max":260,"o":"m 72 1027 l 38 1081 q 106 1120 67 1109 q 182 1120 144 1132 q 242 1067 219 1108 q 260 1003 260 1034 q 245 945 259 972 q 206 898 231 918 q 153 869 182 878 l 120 916 q 179 966 162 935 q 179 1028 197 997 q 149 1053 167 1049 q 109 1050 130 1057 q 72 1027 89 1042 m 111 0 l 111 750 l 213 750 l 213 0 l 111 0 z "},"ī":{"ha":324,"x_min":-12,"x_max":336,"o":"m -12 917 l -12 1003 l 336 1003 l 336 917 l -12 917 m 111 0 l 111 750 l 213 750 l 213 0 l 111 0 z "},"į":{"ha":324,"x_min":-33,"x_max":217,"o":"m 99 -335 q 32 -316 63 -335 q -16 -266 2 -297 q -33 -199 -33 -235 q -8 -107 -33 -154 q 61 -17 18 -60 q 158 61 105 27 l 213 0 q 135 -59 171 -26 q 77 -128 99 -93 q 56 -194 56 -164 q 72 -236 56 -219 q 108 -252 88 -252 q 141 -243 124 -252 q 172 -218 158 -233 l 217 -273 q 163 -319 194 -303 q 99 -335 132 -335 m 111 892 l 111 1007 l 213 1007 l 213 892 l 111 892 m 111 0 l 111 750 l 213 750 l 213 0 l 111 0 z "},"ĩ":{"ha":324,"x_min":-60,"x_max":384,"o":"m 266 869 q 209 881 237 869 q 155 909 181 893 q 106 936 129 924 q 62 948 83 948 q 28 927 35 948 q 28 881 20 906 l -44 881 q -32 986 -60 943 q 57 1030 -4 1030 q 115 1018 87 1030 q 168 991 142 1006 q 218 963 194 975 q 262 951 242 951 q 296 972 287 951 q 297 1020 305 993 l 369 1020 q 356 914 384 959 q 266 869 328 869 m 111 0 l 111 750 l 213 750 l 213 0 l 111 0 z "},"j":{"ha":348,"x_min":-14,"x_max":241,"o":"m -14 -333 l -14 -235 l 28 -235 q 109 -209 79 -235 q 140 -122 140 -183 l 140 750 l 241 750 l 241 -147 q 196 -287 241 -241 q 59 -333 151 -333 l -14 -333 m 140 892 l 140 1007 l 241 1007 l 241 892 l 140 892 z "},"ĵ":{"ha":348,"x_min":-17,"x_max":396,"o":"m -14 -333 l -14 -235 l 28 -235 q 109 -209 79 -235 q 140 -122 140 -183 l 140 750 l 241 750 l 241 -147 q 196 -287 241 -241 q 59 -333 151 -333 l -14 -333 m -17 868 l 142 1056 l 236 1056 l 396 868 l 292 868 l 189 988 l 87 868 l -17 868 z "},"k":{"ha":689,"x_min":97,"x_max":717,"o":"m 97 0 l 97 1000 l 200 1000 l 200 389 l 535 750 l 671 750 l 319 375 l 717 0 l 568 0 l 200 361 l 200 0 l 97 0 z "},"ķ":{"ha":689,"x_min":97,"x_max":717,"o":"m 320 -382 l 320 -328 q 344 -323 328 -328 q 371 -305 359 -318 q 382 -266 383 -291 l 320 -266 l 320 -151 l 435 -151 l 435 -266 q 399 -353 435 -324 q 320 -382 363 -382 m 97 0 l 97 1000 l 200 1000 l 200 389 l 535 750 l 671 750 l 319 375 l 717 0 l 568 0 l 200 361 l 200 0 l 97 0 z "},"l":{"ha":324,"x_min":111,"x_max":213,"o":"m 111 0 l 111 1021 l 213 1021 l 213 0 l 111 0 z "},"ĺ":{"ha":324,"x_min":111,"x_max":290,"o":"m 208 1118 l 120 1118 l 203 1333 l 290 1333 l 208 1118 m 111 0 l 111 1021 l 213 1021 l 213 0 l 111 0 z "},"ľ":{"ha":460,"x_min":111,"x_max":447,"o":"m 111 0 l 111 1021 l 213 1021 l 213 0 l 111 0 m 328 718 l 335 769 q 375 780 363 767 q 390 815 388 793 q 392 863 393 838 l 328 863 l 328 1010 l 447 1010 l 447 835 q 415 740 447 772 q 328 718 383 708 z "},"ļ":{"ha":324,"x_min":105,"x_max":219,"o":"m 105 -382 l 105 -328 q 128 -323 113 -328 q 156 -305 144 -318 q 166 -266 167 -291 l 105 -266 l 105 -151 l 219 -151 l 219 -266 q 184 -353 219 -324 q 105 -382 148 -382 m 111 0 l 111 1021 l 213 1021 l 213 0 l 111 0 z "},"ł":{"ha":522,"x_min":56,"x_max":466,"o":"m 56 335 l 56 450 l 466 685 l 466 572 l 56 335 m 210 0 l 210 1021 l 313 1021 l 313 0 l 210 0 z "},"m":{"ha":1178,"x_min":97,"x_max":1094,"o":"m 992 0 l 992 492 q 944 629 992 579 q 822 678 896 678 q 739 659 779 678 q 673 597 699 640 q 647 484 647 553 l 586 501 q 618 642 584 582 q 711 736 651 703 q 845 770 770 770 q 1026 700 958 770 q 1094 512 1094 631 l 1094 0 l 992 0 m 97 0 l 97 750 l 188 750 l 188 565 l 199 565 l 199 0 l 97 0 m 545 0 l 546 485 q 498 627 546 575 q 373 678 451 678 q 247 625 295 678 q 199 484 199 572 l 138 517 q 172 647 138 590 q 265 737 206 704 q 399 770 324 770 q 527 740 471 770 q 615 651 583 709 q 647 509 647 592 l 646 0 l 545 0 z "},"n":{"ha":825,"x_min":97,"x_max":742,"o":"m 639 0 l 639 383 q 627 498 639 445 q 589 589 615 550 q 522 650 563 628 q 422 672 481 672 q 326 653 367 672 q 257 599 285 634 q 214 514 228 564 q 199 400 199 464 l 127 416 q 167 610 127 531 q 278 728 208 688 q 441 769 349 769 q 559 748 508 769 q 644 692 609 727 q 701 611 679 656 q 732 514 722 565 q 742 413 742 463 l 742 0 l 639 0 m 97 0 l 97 750 l 189 750 l 189 565 l 199 565 l 199 0 l 97 0 z "},"ń":{"ha":825,"x_min":97,"x_max":742,"o":"m 473 868 l 385 868 l 468 1083 l 556 1083 l 473 868 m 639 0 l 639 383 q 627 498 639 445 q 589 589 615 550 q 522 650 563 628 q 422 672 481 672 q 326 653 367 672 q 257 599 285 634 q 214 514 228 564 q 199 400 199 464 l 127 416 q 167 610 127 531 q 278 728 208 688 q 441 769 349 769 q 559 748 508 769 q 644 692 609 727 q 701 611 679 656 q 732 514 722 565 q 742 413 742 463 l 742 0 l 639 0 m 97 0 l 97 750 l 189 750 l 189 565 l 199 565 l 199 0 l 97 0 z "},"ň":{"ha":825,"x_min":97,"x_max":742,"o":"m 208 1056 l 313 1056 l 415 935 l 517 1056 l 622 1056 l 462 868 l 367 868 l 208 1056 m 639 0 l 639 383 q 627 498 639 445 q 589 589 615 550 q 522 650 563 628 q 422 672 481 672 q 326 653 367 672 q 257 599 285 634 q 214 514 228 564 q 199 400 199 464 l 127 416 q 167 610 127 531 q 278 728 208 688 q 441 769 349 769 q 559 748 508 769 q 644 692 609 727 q 701 611 679 656 q 732 514 722 565 q 742 413 742 463 l 742 0 l 639 0 m 97 0 l 97 750 l 189 750 l 189 565 l 199 565 l 199 0 l 97 0 z "},"ņ":{"ha":825,"x_min":97,"x_max":742,"o":"m 364 -382 l 364 -328 q 388 -323 372 -328 q 415 -305 403 -318 q 426 -266 427 -291 l 364 -266 l 364 -151 l 478 -151 l 478 -266 q 443 -353 478 -324 q 364 -382 407 -382 m 639 0 l 639 383 q 627 498 639 445 q 589 589 615 550 q 522 650 563 628 q 422 672 481 672 q 326 653 367 672 q 257 599 285 634 q 214 514 228 564 q 199 400 199 464 l 127 416 q 167 610 127 531 q 278 728 208 688 q 441 769 349 769 q 559 748 508 769 q 644 692 609 727 q 701 611 679 656 q 732 514 722 565 q 742 413 742 463 l 742 0 l 639 0 m 97 0 l 97 750 l 189 750 l 189 565 l 199 565 l 199 0 l 97 0 z "},"ŋ":{"ha":825,"x_min":97,"x_max":742,"o":"m 645 -273 q 581 -276 608 -278 q 527 -267 553 -274 l 527 -185 q 576 -187 555 -189 q 611 -176 597 -186 q 632 -143 625 -165 q 639 -81 639 -120 l 639 2 l 742 2 l 742 -128 q 715 -230 742 -195 q 645 -273 689 -265 m 639 0 l 639 383 q 627 498 639 445 q 589 589 615 550 q 522 650 563 628 q 422 672 481 672 q 326 653 367 672 q 257 599 285 634 q 214 514 228 564 q 199 400 199 464 l 127 416 q 167 610 127 531 q 278 728 208 688 q 441 769 349 769 q 559 748 508 769 q 644 692 609 727 q 701 611 679 656 q 732 514 722 565 q 742 413 742 463 l 742 0 l 639 0 m 97 0 l 97 750 l 189 750 l 189 565 l 199 565 l 199 0 l 97 0 z "},"ñ":{"ha":825,"x_min":97,"x_max":742,"o":"m 517 869 q 460 881 488 869 q 407 909 433 893 q 357 936 381 924 q 313 948 333 948 q 278 927 286 948 q 278 881 271 906 l 206 881 q 219 986 191 943 q 308 1030 247 1030 q 366 1018 338 1030 q 420 991 394 1006 q 469 963 446 975 q 513 951 492 951 q 547 972 538 951 q 547 1020 556 993 l 619 1020 q 608 914 635 959 q 517 869 580 869 m 639 0 l 639 383 q 627 498 639 445 q 589 589 615 550 q 522 650 563 628 q 422 672 481 672 q 326 653 367 672 q 257 599 285 634 q 214 514 228 564 q 199 400 199 464 l 127 416 q 167 610 127 531 q 278 728 208 688 q 441 769 349 769 q 559 748 508 769 q 644 692 609 727 q 701 611 679 656 q 732 514 722 565 q 742 413 742 463 l 742 0 l 639 0 m 97 0 l 97 750 l 189 750 l 189 565 l 199 565 l 199 0 l 97 0 z "},"o":{"ha":822,"x_min":56,"x_max":766,"o":"m 410 -21 q 219 30 299 -21 q 98 170 140 81 q 56 376 56 260 q 99 583 56 494 q 221 721 142 672 q 410 771 301 771 q 602 720 523 771 q 724 581 682 670 q 766 376 766 492 q 724 168 766 258 q 601 29 681 79 q 410 -21 522 -21 m 410 77 q 597 160 535 77 q 658 376 658 243 q 596 592 658 512 q 410 673 535 673 q 272 635 326 673 q 191 530 217 597 q 164 376 164 463 q 226 159 164 240 q 410 77 289 77 z "},"ó":{"ha":822,"x_min":56,"x_max":766,"o":"m 454 868 l 367 868 l 449 1083 l 537 1083 l 454 868 m 410 -21 q 219 30 299 -21 q 98 170 140 81 q 56 376 56 260 q 99 583 56 494 q 221 721 142 672 q 410 771 301 771 q 602 720 523 771 q 724 581 682 670 q 766 376 766 492 q 724 168 766 258 q 601 29 681 79 q 410 -21 522 -21 m 410 77 q 597 160 535 77 q 658 376 658 243 q 596 592 658 512 q 410 673 535 673 q 272 635 326 673 q 191 530 217 597 q 164 376 164 463 q 226 159 164 240 q 410 77 289 77 z "},"ô":{"ha":822,"x_min":56,"x_max":766,"o":"m 203 868 l 363 1056 l 458 1056 l 617 868 l 513 868 l 410 988 l 308 868 l 203 868 m 410 -21 q 219 30 299 -21 q 98 170 140 81 q 56 376 56 260 q 99 583 56 494 q 221 721 142 672 q 410 771 301 771 q 602 720 523 771 q 724 581 682 670 q 766 376 766 492 q 724 168 766 258 q 601 29 681 79 q 410 -21 522 -21 m 410 77 q 597 160 535 77 q 658 376 658 243 q 596 592 658 512 q 410 673 535 673 q 272 635 326 673 q 191 530 217 597 q 164 376 164 463 q 226 159 164 240 q 410 77 289 77 z "},"ố":{"ha":822,"x_min":56,"x_max":772,"o":"m 212 868 l 371 1056 l 465 1056 l 624 868 l 520 868 l 418 988 l 316 868 l 212 868 m 689 1014 l 601 1014 l 684 1229 l 772 1229 l 689 1014 m 410 -21 q 219 30 299 -21 q 98 170 140 81 q 56 376 56 260 q 99 583 56 494 q 221 721 142 672 q 410 771 301 771 q 602 720 523 771 q 724 581 682 670 q 766 376 766 492 q 724 168 766 258 q 601 29 681 79 q 410 -21 522 -21 m 410 77 q 597 160 535 77 q 658 376 658 243 q 596 592 658 512 q 410 673 535 673 q 272 635 326 673 q 191 530 217 597 q 164 376 164 463 q 226 159 164 240 q 410 77 289 77 z "},"ộ":{"ha":822,"x_min":56,"x_max":766,"o":"m 357 -266 l 357 -151 l 476 -151 l 476 -266 l 357 -266 m 203 868 l 363 1056 l 458 1056 l 617 868 l 513 868 l 410 988 l 308 868 l 203 868 m 410 -21 q 219 30 299 -21 q 98 170 140 81 q 56 376 56 260 q 99 583 56 494 q 221 721 142 672 q 410 771 301 771 q 602 720 523 771 q 724 581 682 670 q 766 376 766 492 q 724 168 766 258 q 601 29 681 79 q 410 -21 522 -21 m 410 77 q 597 160 535 77 q 658 376 658 243 q 596 592 658 512 q 410 673 535 673 q 272 635 326 673 q 191 530 217 597 q 164 376 164 463 q 226 159 164 240 q 410 77 289 77 z "},"ồ":{"ha":822,"x_min":56,"x_max":766,"o":"m 219 868 l 378 1056 l 472 1056 l 631 868 l 527 868 l 425 988 l 323 868 l 219 868 m 606 1014 l 523 1229 l 610 1229 l 694 1014 l 606 1014 m 410 -21 q 219 30 299 -21 q 98 170 140 81 q 56 376 56 260 q 99 583 56 494 q 221 721 142 672 q 410 771 301 771 q 602 720 523 771 q 724 581 682 670 q 766 376 766 492 q 724 168 766 258 q 601 29 681 79 q 410 -21 522 -21 m 410 77 q 597 160 535 77 q 658 376 658 243 q 596 592 658 512 q 410 673 535 673 q 272 635 326 673 q 191 530 217 597 q 164 376 164 463 q 226 159 164 240 q 410 77 289 77 z "},"ổ":{"ha":822,"x_min":56,"x_max":802,"o":"m 203 868 l 363 1056 l 457 1056 l 616 868 l 512 868 l 410 988 l 307 868 l 203 868 m 613 1025 l 580 1078 q 647 1119 608 1108 q 723 1118 686 1130 q 784 1065 760 1106 q 801 1001 802 1033 q 786 943 801 970 q 748 897 772 917 q 695 867 724 877 l 662 914 q 721 964 703 933 q 721 1026 738 995 q 690 1051 709 1047 q 651 1048 672 1055 q 613 1025 631 1040 m 410 -21 q 219 30 299 -21 q 98 170 140 81 q 56 376 56 260 q 99 583 56 494 q 221 721 142 672 q 410 771 301 771 q 602 720 523 771 q 724 581 682 670 q 766 376 766 492 q 724 168 766 258 q 601 29 681 79 q 410 -21 522 -21 m 410 77 q 597 160 535 77 q 658 376 658 243 q 596 592 658 512 q 410 673 535 673 q 272 635 326 673 q 191 530 217 597 q 164 376 164 463 q 226 159 164 240 q 410 77 289 77 z "},"ỗ":{"ha":822,"x_min":56,"x_max":766,"o":"m 212 868 l 372 1056 l 466 1056 l 625 868 l 521 868 l 419 988 l 316 868 l 212 868 m 528 1090 q 471 1102 499 1090 q 417 1130 443 1114 q 368 1157 391 1145 q 324 1169 344 1169 q 289 1148 297 1169 q 290 1102 282 1126 l 217 1102 q 230 1207 201 1164 q 319 1251 258 1251 q 376 1239 349 1251 q 430 1211 404 1227 q 480 1184 456 1196 q 524 1172 503 1172 q 557 1193 548 1172 q 558 1241 567 1214 l 630 1241 q 618 1135 646 1180 q 528 1090 590 1090 m 410 -21 q 219 30 299 -21 q 98 170 140 81 q 56 376 56 260 q 99 583 56 494 q 221 721 142 672 q 410 771 301 771 q 602 720 523 771 q 724 581 682 670 q 766 376 766 492 q 724 168 766 258 q 601 29 681 79 q 410 -21 522 -21 m 410 77 q 597 160 535 77 q 658 376 658 243 q 596 592 658 512 q 410 673 535 673 q 272 635 326 673 q 191 530 217 597 q 164 376 164 463 q 226 159 164 240 q 410 77 289 77 z "},"ö":{"ha":822,"x_min":56,"x_max":766,"o":"m 488 897 l 488 1008 l 599 1008 l 599 897 l 488 897 m 223 897 l 223 1008 l 334 1008 l 334 897 l 223 897 m 410 -21 q 219 30 299 -21 q 98 170 140 81 q 56 376 56 260 q 99 583 56 494 q 221 721 142 672 q 410 771 301 771 q 602 720 523 771 q 724 581 682 670 q 766 376 766 492 q 724 168 766 258 q 601 29 681 79 q 410 -21 522 -21 m 410 77 q 597 160 535 77 q 658 376 658 243 q 596 592 658 512 q 410 673 535 673 q 272 635 326 673 q 191 530 217 597 q 164 376 164 463 q 226 159 164 240 q 410 77 289 77 z "},"ọ":{"ha":822,"x_min":56,"x_max":766,"o":"m 351 -266 l 351 -151 l 470 -151 l 470 -266 l 351 -266 m 410 -21 q 219 30 299 -21 q 98 170 140 81 q 56 376 56 260 q 99 583 56 494 q 221 721 142 672 q 410 771 301 771 q 602 720 523 771 q 724 581 682 670 q 766 376 766 492 q 724 168 766 258 q 601 29 681 79 q 410 -21 522 -21 m 410 77 q 597 160 535 77 q 658 376 658 243 q 596 592 658 512 q 410 673 535 673 q 272 635 326 673 q 191 530 217 597 q 164 376 164 463 q 226 159 164 240 q 410 77 289 77 z "},"ò":{"ha":822,"x_min":56,"x_max":766,"o":"m 361 868 l 278 1083 l 365 1083 l 449 868 l 361 868 m 410 -21 q 219 30 299 -21 q 98 170 140 81 q 56 376 56 260 q 99 583 56 494 q 221 721 142 672 q 410 771 301 771 q 602 720 523 771 q 724 581 682 670 q 766 376 766 492 q 724 168 766 258 q 601 29 681 79 q 410 -21 522 -21 m 410 77 q 597 160 535 77 q 658 376 658 243 q 596 592 658 512 q 410 673 535 673 q 272 635 326 673 q 191 530 217 597 q 164 376 164 463 q 226 159 164 240 q 410 77 289 77 z "},"ỏ":{"ha":822,"x_min":56,"x_max":766,"o":"m 339 1027 l 306 1081 q 373 1120 334 1109 q 449 1120 412 1132 q 510 1067 486 1108 q 527 1003 528 1034 q 512 945 526 972 q 474 898 498 918 q 421 869 449 878 l 388 916 q 447 966 429 935 q 447 1028 464 997 q 416 1053 435 1049 q 377 1050 397 1057 q 339 1027 356 1042 m 410 -21 q 219 30 299 -21 q 98 170 140 81 q 56 376 56 260 q 99 583 56 494 q 221 721 142 672 q 410 771 301 771 q 602 720 523 771 q 724 581 682 670 q 766 376 766 492 q 724 168 766 258 q 601 29 681 79 q 410 -21 522 -21 m 410 77 q 597 160 535 77 q 658 376 658 243 q 596 592 658 512 q 410 673 535 673 q 272 635 326 673 q 191 530 217 597 q 164 376 164 463 q 226 159 164 240 q 410 77 289 77 z "},"ơ":{"ha":822,"x_min":56,"x_max":770,"o":"m 676 875 l 762 875 q 759 774 770 818 q 708 703 749 729 q 624 679 676 683 q 526 704 573 676 l 526 754 q 585 744 561 744 q 629 753 608 743 q 673 805 667 772 q 676 875 679 838 m 410 -21 q 219 30 299 -21 q 98 170 140 81 q 56 376 56 260 q 99 583 56 494 q 221 721 142 672 q 410 771 301 771 q 602 720 523 771 q 724 581 682 670 q 766 376 766 492 q 724 168 766 258 q 601 29 681 79 q 410 -21 522 -21 m 410 77 q 597 160 535 77 q 658 376 658 243 q 596 592 658 512 q 410 673 535 673 q 272 635 326 673 q 191 530 217 597 q 164 376 164 463 q 226 159 164 240 q 410 77 289 77 z "},"ớ":{"ha":846,"x_min":56,"x_max":770,"o":"m 676 875 l 762 875 q 759 774 770 818 q 708 703 749 729 q 624 679 676 683 q 526 704 573 676 l 526 754 q 585 744 561 744 q 629 753 608 743 q 673 805 667 772 q 676 875 679 838 m 454 868 l 367 868 l 449 1083 l 537 1083 l 454 868 m 410 -21 q 219 30 299 -21 q 98 170 140 81 q 56 376 56 260 q 99 583 56 494 q 221 721 142 672 q 410 771 301 771 q 602 720 523 771 q 724 581 682 670 q 766 376 766 492 q 724 168 766 258 q 601 29 681 79 q 410 -21 522 -21 m 410 77 q 597 160 535 77 q 658 376 658 243 q 596 592 658 512 q 410 673 535 673 q 272 635 326 673 q 191 530 217 597 q 164 376 164 463 q 226 159 164 240 q 410 77 289 77 z "},"ợ":{"ha":822,"x_min":56,"x_max":770,"o":"m 356 -266 l 356 -151 l 475 -151 l 475 -266 l 356 -266 m 676 875 l 762 875 q 759 774 770 818 q 708 703 749 729 q 624 679 676 683 q 526 704 573 676 l 526 754 q 585 744 561 744 q 629 753 608 743 q 673 805 667 772 q 676 875 679 838 m 410 -21 q 219 30 299 -21 q 98 170 140 81 q 56 376 56 260 q 99 583 56 494 q 221 721 142 672 q 410 771 301 771 q 602 720 523 771 q 724 581 682 670 q 766 376 766 492 q 724 168 766 258 q 601 29 681 79 q 410 -21 522 -21 m 410 77 q 597 160 535 77 q 658 376 658 243 q 596 592 658 512 q 410 673 535 673 q 272 635 326 673 q 191 530 217 597 q 164 376 164 463 q 226 159 164 240 q 410 77 289 77 z "},"ờ":{"ha":846,"x_min":56,"x_max":770,"o":"m 676 875 l 762 875 q 759 774 770 818 q 708 703 749 729 q 624 679 676 683 q 526 704 573 676 l 526 754 q 585 744 561 744 q 629 753 608 743 q 673 805 667 772 q 676 875 679 838 m 361 868 l 278 1083 l 365 1083 l 449 868 l 361 868 m 410 -21 q 219 30 299 -21 q 98 170 140 81 q 56 376 56 260 q 99 583 56 494 q 221 721 142 672 q 410 771 301 771 q 602 720 523 771 q 724 581 682 670 q 766 376 766 492 q 724 168 766 258 q 601 29 681 79 q 410 -21 522 -21 m 410 77 q 597 160 535 77 q 658 376 658 243 q 596 592 658 512 q 410 673 535 673 q 272 635 326 673 q 191 530 217 597 q 164 376 164 463 q 226 159 164 240 q 410 77 289 77 z "},"ở":{"ha":822,"x_min":56,"x_max":770,"o":"m 339 1027 l 306 1081 q 373 1120 334 1109 q 449 1120 412 1132 q 510 1067 486 1108 q 527 1003 528 1034 q 512 945 526 972 q 474 898 498 918 q 421 869 449 878 l 388 916 q 447 966 429 935 q 447 1028 464 997 q 416 1053 435 1049 q 377 1050 397 1057 q 339 1027 356 1042 m 676 875 l 762 875 q 759 774 770 818 q 708 703 749 729 q 624 679 676 683 q 526 704 573 676 l 526 754 q 585 744 561 744 q 629 753 608 743 q 673 805 667 772 q 676 875 679 838 m 410 -21 q 219 30 299 -21 q 98 170 140 81 q 56 376 56 260 q 99 583 56 494 q 221 721 142 672 q 410 771 301 771 q 602 720 523 771 q 724 581 682 670 q 766 376 766 492 q 724 168 766 258 q 601 29 681 79 q 410 -21 522 -21 m 410 77 q 597 160 535 77 q 658 376 658 243 q 596 592 658 512 q 410 673 535 673 q 272 635 326 673 q 191 530 217 597 q 164 376 164 463 q 226 159 164 240 q 410 77 289 77 z "},"ỡ":{"ha":822,"x_min":56,"x_max":770,"o":"m 519 869 q 463 881 490 869 q 409 909 435 893 q 359 936 383 924 q 315 948 336 948 q 281 927 288 948 q 281 881 274 906 l 209 881 q 221 986 193 943 q 310 1030 249 1030 q 368 1018 340 1030 q 422 991 396 1006 q 471 963 448 975 q 515 951 494 951 q 549 972 540 951 q 549 1020 558 993 l 622 1020 q 610 914 638 959 q 519 869 582 869 m 676 875 l 762 875 q 759 774 770 818 q 708 703 749 729 q 624 679 676 683 q 526 704 573 676 l 526 754 q 585 744 561 744 q 629 753 608 743 q 673 805 667 772 q 676 875 679 838 m 410 -21 q 219 30 299 -21 q 98 170 140 81 q 56 376 56 260 q 99 583 56 494 q 221 721 142 672 q 410 771 301 771 q 602 720 523 771 q 724 581 682 670 q 766 376 766 492 q 724 168 766 258 q 601 29 681 79 q 410 -21 522 -21 m 410 77 q 597 160 535 77 q 658 376 658 243 q 596 592 658 512 q 410 673 535 673 q 272 635 326 673 q 191 530 217 597 q 164 376 164 463 q 226 159 164 240 q 410 77 289 77 z "},"ő":{"ha":822,"x_min":56,"x_max":766,"o":"m 582 868 l 494 868 l 577 1083 l 665 1083 l 582 868 m 322 868 l 234 868 l 317 1083 l 405 1083 l 322 868 m 410 -21 q 219 30 299 -21 q 98 170 140 81 q 56 376 56 260 q 99 583 56 494 q 221 721 142 672 q 410 771 301 771 q 602 720 523 771 q 724 581 682 670 q 766 376 766 492 q 724 168 766 258 q 601 29 681 79 q 410 -21 522 -21 m 410 77 q 597 160 535 77 q 658 376 658 243 q 596 592 658 512 q 410 673 535 673 q 272 635 326 673 q 191 530 217 597 q 164 376 164 463 q 226 159 164 240 q 410 77 289 77 z "},"ō":{"ha":822,"x_min":56,"x_max":766,"o":"m 237 917 l 237 1003 l 585 1003 l 585 917 l 237 917 m 410 -21 q 219 30 299 -21 q 98 170 140 81 q 56 376 56 260 q 99 583 56 494 q 221 721 142 672 q 410 771 301 771 q 602 720 523 771 q 724 581 682 670 q 766 376 766 492 q 724 168 766 258 q 601 29 681 79 q 410 -21 522 -21 m 410 77 q 597 160 535 77 q 658 376 658 243 q 596 592 658 512 q 410 673 535 673 q 272 635 326 673 q 191 530 217 597 q 164 376 164 463 q 226 159 164 240 q 410 77 289 77 z "},"ø":{"ha":822,"x_min":28,"x_max":794,"o":"m 97 -7 l 28 63 l 146 181 l 175 200 l 606 630 l 623 656 l 724 757 l 794 688 l 680 575 l 654 559 l 231 136 l 210 106 l 97 -7 m 410 -21 q 219 30 299 -21 q 98 170 140 81 q 56 376 56 260 q 99 583 56 494 q 221 721 142 672 q 410 771 301 771 q 602 720 523 771 q 724 581 682 670 q 766 376 766 492 q 724 168 766 258 q 601 29 681 79 q 410 -21 522 -21 m 410 77 q 597 160 535 77 q 658 376 658 243 q 596 592 658 512 q 410 673 535 673 q 272 635 326 673 q 191 530 217 597 q 164 376 164 463 q 226 159 164 240 q 410 77 289 77 z "},"õ":{"ha":822,"x_min":56,"x_max":766,"o":"m 516 869 q 459 881 486 869 q 405 909 431 893 q 356 936 379 924 q 312 948 332 948 q 277 927 285 948 q 277 881 269 906 l 205 881 q 217 986 190 943 q 306 1030 245 1030 q 364 1018 336 1030 q 418 991 392 1006 q 468 963 444 975 q 512 951 491 951 q 545 972 536 951 q 546 1020 555 993 l 618 1020 q 606 914 634 959 q 516 869 578 869 m 410 -21 q 219 30 299 -21 q 98 170 140 81 q 56 376 56 260 q 99 583 56 494 q 221 721 142 672 q 410 771 301 771 q 602 720 523 771 q 724 581 682 670 q 766 376 766 492 q 724 168 766 258 q 601 29 681 79 q 410 -21 522 -21 m 410 77 q 597 160 535 77 q 658 376 658 243 q 596 592 658 512 q 410 673 535 673 q 272 635 326 673 q 191 530 217 597 q 164 376 164 463 q 226 159 164 240 q 410 77 289 77 z "},"œ":{"ha":1415,"x_min":56,"x_max":1363,"o":"m 1018 -21 q 828 28 908 -21 q 703 165 748 76 q 659 372 659 253 q 703 584 659 494 q 826 722 747 674 q 1014 771 906 771 q 1203 720 1125 771 q 1322 574 1282 669 q 1359 347 1363 478 l 1255 347 l 1255 383 q 1192 603 1252 528 q 1017 677 1132 677 q 832 599 896 677 q 767 375 767 520 q 832 155 767 233 q 1014 77 896 77 q 1155 114 1094 77 q 1249 222 1215 151 l 1344 185 q 1214 33 1300 87 q 1018 -21 1127 -21 m 731 347 l 731 432 l 1304 432 l 1304 347 l 731 347 m 410 -21 q 219 30 299 -21 q 98 170 140 81 q 56 376 56 260 q 99 583 56 494 q 221 721 142 672 q 410 771 301 771 q 602 720 523 771 q 724 581 682 670 q 766 376 766 492 q 724 168 766 258 q 601 29 681 79 q 410 -21 522 -21 m 410 77 q 597 160 535 77 q 658 376 658 243 q 596 592 658 512 q 410 673 535 673 q 272 635 326 673 q 191 530 217 597 q 164 376 164 463 q 226 159 164 240 q 410 77 289 77 z "},"p":{"ha":822,"x_min":97,"x_max":767,"o":"m 434 -21 q 259 32 331 -21 q 151 174 188 84 q 114 376 114 264 q 151 579 114 490 q 260 719 188 668 q 438 771 333 771 q 615 719 541 771 q 727 577 688 667 q 767 376 767 488 q 727 174 767 263 q 613 32 688 84 q 434 -21 539 -21 m 97 -333 l 97 750 l 188 750 l 188 185 l 199 185 l 199 -333 l 97 -333 m 424 74 q 554 114 502 74 q 632 222 606 153 q 658 376 658 290 q 633 528 658 460 q 555 636 607 597 q 422 676 502 676 q 291 638 343 676 q 214 532 240 599 q 188 376 188 464 q 214 220 188 289 q 292 113 240 152 q 424 74 344 74 z "},"þ":{"ha":822,"x_min":97,"x_max":767,"o":"m 97 562 l 97 1000 l 199 1000 l 199 562 l 97 562 m 434 -21 q 259 32 331 -21 q 151 174 188 84 q 114 376 114 264 q 151 579 114 490 q 260 719 188 668 q 438 771 333 771 q 615 719 541 771 q 727 577 688 667 q 767 376 767 488 q 727 174 767 263 q 613 32 688 84 q 434 -21 539 -21 m 97 -333 l 97 750 l 188 750 l 188 185 l 199 185 l 199 -333 l 97 -333 m 424 74 q 554 114 502 74 q 632 222 606 153 q 658 376 658 290 q 633 528 658 460 q 555 636 607 597 q 422 676 502 676 q 291 638 343 676 q 214 532 240 599 q 188 376 188 464 q 214 220 188 289 q 292 113 240 152 q 424 74 344 74 z "},"q":{"ha":823,"x_min":56,"x_max":726,"o":"m 388 -21 q 209 32 283 -21 q 95 174 135 84 q 56 376 56 263 q 95 577 56 488 q 208 719 134 667 q 384 771 281 771 q 562 719 490 771 q 671 579 634 668 q 708 376 708 490 q 672 174 708 264 q 563 32 635 84 q 388 -21 492 -21 m 399 74 q 531 113 478 74 q 608 220 583 152 q 634 376 634 289 q 608 532 634 464 q 531 638 583 599 q 401 676 479 676 q 267 636 320 676 q 189 528 215 597 q 164 376 164 460 q 190 222 164 290 q 268 114 216 153 q 399 74 320 74 m 623 -333 l 623 185 l 634 185 l 634 750 l 726 750 l 726 -333 l 623 -333 z "},"r":{"ha":501,"x_min":97,"x_max":466,"o":"m 97 0 l 97 750 l 189 750 l 189 569 l 171 593 q 203 655 183 626 q 247 701 224 683 q 315 740 276 726 q 394 756 354 753 q 466 750 433 758 l 466 654 q 376 659 425 665 q 287 620 328 653 q 231 550 249 591 q 206 464 212 510 q 199 374 199 419 l 199 0 l 97 0 z "},"ŕ":{"ha":501,"x_min":97,"x_max":466,"o":"m 277 868 l 190 868 l 272 1083 l 360 1083 l 277 868 m 97 0 l 97 750 l 189 750 l 189 569 l 171 593 q 203 655 183 626 q 247 701 224 683 q 315 740 276 726 q 394 756 354 753 q 466 750 433 758 l 466 654 q 376 659 425 665 q 287 620 328 653 q 231 550 249 591 q 206 464 212 510 q 199 374 199 419 l 199 0 l 97 0 z "},"ř":{"ha":501,"x_min":74,"x_max":488,"o":"m 74 1056 l 178 1056 l 281 935 l 383 1056 l 488 1056 l 328 868 l 234 868 l 74 1056 m 97 0 l 97 750 l 189 750 l 189 569 l 171 593 q 203 655 183 626 q 247 701 224 683 q 315 740 276 726 q 394 756 354 753 q 466 750 433 758 l 466 654 q 376 659 425 665 q 287 620 328 653 q 231 550 249 591 q 206 464 212 510 q 199 374 199 419 l 199 0 l 97 0 z "},"ŗ":{"ha":501,"x_min":91,"x_max":466,"o":"m 91 -382 l 91 -328 q 115 -323 99 -328 q 142 -305 130 -318 q 153 -266 154 -291 l 91 -266 l 91 -151 l 206 -151 l 206 -266 q 170 -353 206 -324 q 91 -382 134 -382 m 97 0 l 97 750 l 189 750 l 189 569 l 171 593 q 203 655 183 626 q 247 701 224 683 q 315 740 276 726 q 394 756 354 753 q 466 750 433 758 l 466 654 q 376 659 425 665 q 287 620 328 653 q 231 550 249 591 q 206 464 212 510 q 199 374 199 419 l 199 0 l 97 0 z "},"s":{"ha":729,"x_min":56,"x_max":673,"o":"m 377 -20 q 160 37 245 -20 q 56 195 75 94 l 160 213 q 236 111 176 149 q 383 73 295 73 q 517 109 468 73 q 567 206 567 144 q 551 263 567 241 q 488 303 535 285 q 344 348 440 322 q 185 403 242 376 q 103 468 127 431 q 78 557 78 504 q 115 669 78 621 q 215 744 151 717 q 363 771 278 771 q 515 743 448 771 q 623 667 582 716 q 672 552 664 617 l 567 533 q 502 638 557 599 q 362 678 447 676 q 232 648 282 680 q 182 562 182 615 q 200 511 182 532 q 266 471 218 490 q 401 430 313 452 q 564 374 505 403 q 648 306 623 345 q 673 208 673 266 q 594 41 673 101 q 377 -20 515 -20 z "},"ś":{"ha":729,"x_min":56,"x_max":673,"o":"m 411 868 l 324 868 l 406 1083 l 494 1083 l 411 868 m 377 -20 q 160 37 245 -20 q 56 195 75 94 l 160 213 q 236 111 176 149 q 383 73 295 73 q 517 109 468 73 q 567 206 567 144 q 551 263 567 241 q 488 303 535 285 q 344 348 440 322 q 185 403 242 376 q 103 468 127 431 q 78 557 78 504 q 115 669 78 621 q 215 744 151 717 q 363 771 278 771 q 515 743 448 771 q 623 667 582 716 q 672 552 664 617 l 567 533 q 502 638 557 599 q 362 678 447 676 q 232 648 282 680 q 182 562 182 615 q 200 511 182 532 q 266 471 218 490 q 401 430 313 452 q 564 374 505 403 q 648 306 623 345 q 673 208 673 266 q 594 41 673 101 q 377 -20 515 -20 z "},"š":{"ha":729,"x_min":56,"x_max":673,"o":"m 173 1056 l 277 1056 l 379 935 l 481 1056 l 585 1056 l 426 868 l 332 868 l 173 1056 m 377 -20 q 160 37 245 -20 q 56 195 75 94 l 160 213 q 236 111 176 149 q 383 73 295 73 q 517 109 468 73 q 567 206 567 144 q 551 263 567 241 q 488 303 535 285 q 344 348 440 322 q 185 403 242 376 q 103 468 127 431 q 78 557 78 504 q 115 669 78 621 q 215 744 151 717 q 363 771 278 771 q 515 743 448 771 q 623 667 582 716 q 672 552 664 617 l 567 533 q 502 638 557 599 q 362 678 447 676 q 232 648 282 680 q 182 562 182 615 q 200 511 182 532 q 266 471 218 490 q 401 430 313 452 q 564 374 505 403 q 648 306 623 345 q 673 208 673 266 q 594 41 673 101 q 377 -20 515 -20 z "},"ş":{"ha":729,"x_min":56,"x_max":673,"o":"m 356 -333 q 309 -327 331 -333 q 267 -312 287 -321 l 294 -241 q 347 -253 326 -253 q 389 -236 374 -253 q 403 -199 403 -219 q 375 -153 403 -167 q 312 -128 347 -139 l 363 15 l 438 15 l 403 -83 q 464 -128 440 -99 q 487 -202 487 -157 q 448 -296 487 -258 q 356 -333 409 -333 m 377 -20 q 160 37 245 -20 q 56 195 75 94 l 160 213 q 236 111 176 149 q 383 73 295 73 q 517 109 468 73 q 567 206 567 144 q 551 263 567 241 q 488 303 535 285 q 344 348 440 322 q 185 403 242 376 q 103 468 127 431 q 78 557 78 504 q 115 669 78 621 q 215 744 151 717 q 363 771 278 771 q 515 743 448 771 q 623 667 582 716 q 672 552 664 617 l 567 533 q 502 638 557 599 q 362 678 447 676 q 232 648 282 680 q 182 562 182 615 q 200 511 182 532 q 266 471 218 490 q 401 430 313 452 q 564 374 505 403 q 648 306 623 345 q 673 208 673 266 q 594 41 673 101 q 377 -20 515 -20 z "},"ŝ":{"ha":729,"x_min":56,"x_max":673,"o":"m 171 868 l 331 1056 l 425 1056 l 584 868 l 480 868 l 378 988 l 275 868 l 171 868 m 377 -20 q 160 37 245 -20 q 56 195 75 94 l 160 213 q 236 111 176 149 q 383 73 295 73 q 517 109 468 73 q 567 206 567 144 q 551 263 567 241 q 488 303 535 285 q 344 348 440 322 q 185 403 242 376 q 103 468 127 431 q 78 557 78 504 q 115 669 78 621 q 215 744 151 717 q 363 771 278 771 q 515 743 448 771 q 623 667 582 716 q 672 552 664 617 l 567 533 q 502 638 557 599 q 362 678 447 676 q 232 648 282 680 q 182 562 182 615 q 200 511 182 532 q 266 471 218 490 q 401 430 313 452 q 564 374 505 403 q 648 306 623 345 q 673 208 673 266 q 594 41 673 101 q 377 -20 515 -20 z "},"ș":{"ha":729,"x_min":56,"x_max":673,"o":"m 313 -382 l 313 -328 q 337 -323 322 -328 q 364 -305 352 -318 q 375 -266 376 -291 l 313 -266 l 313 -151 l 428 -151 l 428 -266 q 392 -353 428 -324 q 313 -382 356 -382 m 377 -20 q 160 37 245 -20 q 56 195 75 94 l 160 213 q 236 111 176 149 q 383 73 295 73 q 517 109 468 73 q 567 206 567 144 q 551 263 567 241 q 488 303 535 285 q 344 348 440 322 q 185 403 242 376 q 103 468 127 431 q 78 557 78 504 q 115 669 78 621 q 215 744 151 717 q 363 771 278 771 q 515 743 448 771 q 623 667 582 716 q 672 552 664 617 l 567 533 q 502 638 557 599 q 362 678 447 676 q 232 648 282 680 q 182 562 182 615 q 200 511 182 532 q 266 471 218 490 q 401 430 313 452 q 564 374 505 403 q 648 306 623 345 q 673 208 673 266 q 594 41 673 101 q 377 -20 515 -20 z "},"ß":{"ha":831,"x_min":97,"x_max":748,"o":"m 434 -20 q 366 -16 398 -20 q 306 0 335 -12 l 306 101 q 363 86 335 91 q 424 81 390 81 q 583 134 522 81 q 644 286 644 188 q 571 432 644 380 q 379 486 498 484 l 379 580 q 467 605 427 585 q 532 661 508 625 q 556 753 556 698 q 507 878 556 833 q 380 923 458 923 q 281 899 326 923 q 218 823 237 876 q 206 770 210 799 q 203 710 203 741 l 203 0 l 97 0 l 97 738 q 101 803 97 773 q 115 856 106 833 q 172 948 135 912 q 262 1003 210 985 q 378 1021 315 1021 q 525 989 461 1021 q 624 897 588 957 q 660 753 660 837 q 630 627 660 683 q 540 548 599 572 q 610 522 574 542 q 677 469 646 502 q 728 390 708 435 q 748 285 748 344 q 667 63 748 147 q 434 -20 587 -20 z "},"t":{"ha":556,"x_min":14,"x_max":506,"o":"m 506 0 q 381 -10 442 -13 q 271 16 319 -8 q 198 90 223 40 q 176 174 178 131 q 174 272 174 217 l 174 958 l 276 958 l 276 276 q 277 197 276 228 q 291 141 278 165 q 370 85 316 94 q 506 90 425 76 l 506 0 m 14 663 l 14 750 l 506 750 l 506 663 l 14 663 z "},"ŧ":{"ha":584,"x_min":14,"x_max":515,"o":"m 14 336 l 14 424 l 515 424 l 515 336 l 14 336 m 506 0 q 381 -10 442 -13 q 271 16 319 -8 q 198 90 223 40 q 176 174 178 131 q 174 272 174 217 l 174 958 l 276 958 l 276 276 q 277 197 276 228 q 291 141 278 165 q 370 85 316 94 q 506 90 425 76 l 506 0 m 14 663 l 14 750 l 506 750 l 506 663 l 14 663 z "},"ť":{"ha":556,"x_min":14,"x_max":548,"o":"m 506 0 q 381 -10 442 -13 q 271 16 319 -8 q 198 90 223 40 q 176 174 178 131 q 174 272 174 217 l 174 958 l 276 958 l 276 276 q 277 197 276 228 q 291 141 278 165 q 370 85 316 94 q 506 90 425 76 l 506 0 m 14 663 l 14 750 l 506 750 l 506 663 l 14 663 m 430 853 l 436 903 q 476 915 464 901 q 492 950 489 928 q 493 998 494 972 l 430 998 l 430 1144 l 549 1144 l 549 970 q 516 874 549 906 q 430 853 484 842 z "},"ţ":{"ha":556,"x_min":14,"x_max":506,"o":"m 297 -333 q 250 -327 272 -333 q 209 -312 228 -321 l 235 -241 q 289 -253 267 -253 q 331 -236 316 -253 q 345 -199 345 -219 q 317 -153 345 -167 q 253 -128 289 -139 l 305 15 l 380 15 l 345 -83 q 405 -128 382 -99 q 428 -202 428 -157 q 390 -296 428 -258 q 297 -333 351 -333 m 506 0 q 381 -10 442 -13 q 271 16 319 -8 q 198 90 223 40 q 176 174 178 131 q 174 272 174 217 l 174 958 l 276 958 l 276 276 q 277 197 276 228 q 291 141 278 165 q 370 85 316 94 q 506 90 425 76 l 506 0 m 14 663 l 14 750 l 506 750 l 506 663 l 14 663 z "},"ț":{"ha":556,"x_min":14,"x_max":506,"o":"m 233 -382 l 233 -328 q 256 -323 241 -328 q 283 -305 272 -318 q 294 -266 295 -291 l 233 -266 l 233 -151 l 347 -151 l 347 -266 q 311 -353 347 -324 q 233 -382 276 -382 m 506 0 q 381 -10 442 -13 q 271 16 319 -8 q 198 90 223 40 q 176 174 178 131 q 174 272 174 217 l 174 958 l 276 958 l 276 276 q 277 197 276 228 q 291 141 278 165 q 370 85 316 94 q 506 90 425 76 l 506 0 m 14 663 l 14 750 l 506 750 l 506 663 l 14 663 z "},"u":{"ha":825,"x_min":83,"x_max":728,"o":"m 384 -19 q 266 2 317 -19 q 181 58 216 23 q 124 139 146 94 q 93 236 103 185 q 83 338 83 287 l 83 750 l 186 750 l 186 367 q 198 253 186 306 q 236 161 210 200 q 303 100 262 122 q 403 78 344 78 q 499 97 458 78 q 568 151 540 116 q 611 236 597 186 q 626 350 626 287 l 698 334 q 658 140 698 219 q 547 22 617 62 q 384 -19 476 -19 m 636 0 l 636 185 l 626 185 l 626 750 l 728 750 l 728 0 l 636 0 z "},"ú":{"ha":825,"x_min":83,"x_max":728,"o":"m 445 868 l 358 868 l 440 1083 l 528 1083 l 445 868 m 384 -19 q 266 2 317 -19 q 181 58 216 23 q 124 139 146 94 q 93 236 103 185 q 83 338 83 287 l 83 750 l 186 750 l 186 367 q 198 253 186 306 q 236 161 210 200 q 303 100 262 122 q 403 78 344 78 q 499 97 458 78 q 568 151 540 116 q 611 236 597 186 q 626 350 626 287 l 698 334 q 658 140 698 219 q 547 22 617 62 q 384 -19 476 -19 m 636 0 l 636 185 l 626 185 l 626 750 l 728 750 l 728 0 l 636 0 z "},"ŭ":{"ha":825,"x_min":83,"x_max":728,"o":"m 406 839 q 315 863 356 839 q 250 928 274 888 q 226 1018 226 969 l 311 1018 q 339 951 311 979 q 406 924 367 924 q 473 951 445 924 q 500 1018 500 979 l 585 1018 q 561 928 585 969 q 496 863 537 888 q 406 839 455 839 m 384 -19 q 266 2 317 -19 q 181 58 216 23 q 124 139 146 94 q 93 236 103 185 q 83 338 83 287 l 83 750 l 186 750 l 186 367 q 198 253 186 306 q 236 161 210 200 q 303 100 262 122 q 403 78 344 78 q 499 97 458 78 q 568 151 540 116 q 611 236 597 186 q 626 350 626 287 l 698 334 q 658 140 698 219 q 547 22 617 62 q 384 -19 476 -19 m 636 0 l 636 185 l 626 185 l 626 750 l 728 750 l 728 0 l 636 0 z "},"û":{"ha":825,"x_min":83,"x_max":728,"o":"m 198 868 l 357 1056 l 451 1056 l 610 868 l 506 868 l 404 988 l 302 868 l 198 868 m 384 -19 q 266 2 317 -19 q 181 58 216 23 q 124 139 146 94 q 93 236 103 185 q 83 338 83 287 l 83 750 l 186 750 l 186 367 q 198 253 186 306 q 236 161 210 200 q 303 100 262 122 q 403 78 344 78 q 499 97 458 78 q 568 151 540 116 q 611 236 597 186 q 626 350 626 287 l 698 334 q 658 140 698 219 q 547 22 617 62 q 384 -19 476 -19 m 636 0 l 636 185 l 626 185 l 626 750 l 728 750 l 728 0 l 636 0 z "},"ü":{"ha":825,"x_min":83,"x_max":728,"o":"m 482 897 l 482 1008 l 593 1008 l 593 897 l 482 897 m 217 897 l 217 1008 l 328 1008 l 328 897 l 217 897 m 384 -19 q 266 2 317 -19 q 181 58 216 23 q 124 139 146 94 q 93 236 103 185 q 83 338 83 287 l 83 750 l 186 750 l 186 367 q 198 253 186 306 q 236 161 210 200 q 303 100 262 122 q 403 78 344 78 q 499 97 458 78 q 568 151 540 116 q 611 236 597 186 q 626 350 626 287 l 698 334 q 658 140 698 219 q 547 22 617 62 q 384 -19 476 -19 m 636 0 l 636 185 l 626 185 l 626 750 l 728 750 l 728 0 l 636 0 z "},"ụ":{"ha":825,"x_min":83,"x_max":728,"o":"m 349 -266 l 349 -151 l 468 -151 l 468 -266 l 349 -266 m 384 -19 q 266 2 317 -19 q 181 58 216 23 q 124 139 146 94 q 93 236 103 185 q 83 338 83 287 l 83 750 l 186 750 l 186 367 q 198 253 186 306 q 236 161 210 200 q 303 100 262 122 q 403 78 344 78 q 499 97 458 78 q 568 151 540 116 q 611 236 597 186 q 626 350 626 287 l 698 334 q 658 140 698 219 q 547 22 617 62 q 384 -19 476 -19 m 636 0 l 636 185 l 626 185 l 626 750 l 728 750 l 728 0 l 636 0 z "},"ù":{"ha":825,"x_min":83,"x_max":728,"o":"m 374 868 l 291 1083 l 378 1083 l 462 868 l 374 868 m 384 -19 q 266 2 317 -19 q 181 58 216 23 q 124 139 146 94 q 93 236 103 185 q 83 338 83 287 l 83 750 l 186 750 l 186 367 q 198 253 186 306 q 236 161 210 200 q 303 100 262 122 q 403 78 344 78 q 499 97 458 78 q 568 151 540 116 q 611 236 597 186 q 626 350 626 287 l 698 334 q 658 140 698 219 q 547 22 617 62 q 384 -19 476 -19 m 636 0 l 636 185 l 626 185 l 626 750 l 728 750 l 728 0 l 636 0 z "},"ủ":{"ha":825,"x_min":83,"x_max":728,"o":"m 339 1027 l 306 1081 q 373 1120 334 1109 q 449 1120 412 1132 q 510 1067 486 1108 q 527 1003 528 1034 q 512 945 526 972 q 474 898 498 918 q 421 869 449 878 l 388 916 q 447 966 429 935 q 447 1028 464 997 q 416 1053 435 1049 q 377 1050 397 1057 q 339 1027 356 1042 m 384 -19 q 266 2 317 -19 q 181 58 216 23 q 124 139 146 94 q 93 236 103 185 q 83 338 83 287 l 83 750 l 186 750 l 186 367 q 198 253 186 306 q 236 161 210 200 q 303 100 262 122 q 403 78 344 78 q 499 97 458 78 q 568 151 540 116 q 611 236 597 186 q 626 350 626 287 l 698 334 q 658 140 698 219 q 547 22 617 62 q 384 -19 476 -19 m 636 0 l 636 185 l 626 185 l 626 750 l 728 750 l 728 0 l 636 0 z "},"ư":{"ha":825,"x_min":83,"x_max":858,"o":"m 765 875 l 850 875 q 848 774 858 818 q 797 703 837 730 q 725 680 765 682 q 642 684 684 678 l 642 750 q 673 751 658 751 q 705 754 689 751 q 760 800 752 764 q 765 875 767 835 m 384 -19 q 266 2 317 -19 q 181 58 216 23 q 124 139 146 94 q 93 236 103 185 q 83 338 83 287 l 83 750 l 186 750 l 186 367 q 198 253 186 306 q 236 161 210 200 q 303 100 262 122 q 403 78 344 78 q 499 97 458 78 q 568 151 540 116 q 611 236 597 186 q 626 350 626 287 l 698 334 q 658 140 698 219 q 547 22 617 62 q 384 -19 476 -19 m 636 0 l 636 185 l 626 185 l 626 750 l 728 750 l 728 0 l 636 0 z "},"ứ":{"ha":825,"x_min":83,"x_max":858,"o":"m 765 875 l 850 875 q 848 774 858 818 q 797 703 837 730 q 725 680 765 682 q 642 684 684 678 l 642 750 q 673 751 658 751 q 705 754 689 751 q 760 800 752 764 q 765 875 767 835 m 445 868 l 358 868 l 440 1083 l 528 1083 l 445 868 m 384 -19 q 266 2 317 -19 q 181 58 216 23 q 124 139 146 94 q 93 236 103 185 q 83 338 83 287 l 83 750 l 186 750 l 186 367 q 198 253 186 306 q 236 161 210 200 q 303 100 262 122 q 403 78 344 78 q 499 97 458 78 q 568 151 540 116 q 611 236 597 186 q 626 350 626 287 l 698 334 q 658 140 698 219 q 547 22 617 62 q 384 -19 476 -19 m 636 0 l 636 185 l 626 185 l 626 750 l 728 750 l 728 0 l 636 0 z "},"ự":{"ha":825,"x_min":83,"x_max":860,"o":"m 765 875 l 851 875 q 849 774 860 818 q 798 703 838 730 q 725 680 766 682 q 643 684 685 678 l 643 750 q 674 751 658 751 q 706 754 690 751 q 761 800 753 764 q 765 875 769 835 m 356 -266 l 356 -151 l 475 -151 l 475 -266 l 356 -266 m 384 -19 q 266 2 317 -19 q 181 58 216 23 q 124 139 146 94 q 93 236 103 185 q 83 338 83 287 l 83 750 l 186 750 l 186 367 q 198 253 186 306 q 236 161 210 200 q 303 100 262 122 q 403 78 344 78 q 499 97 458 78 q 568 151 540 116 q 611 236 597 186 q 626 350 626 287 l 698 334 q 658 140 698 219 q 547 22 617 62 q 384 -19 476 -19 m 636 0 l 636 185 l 626 185 l 626 750 l 728 750 l 728 0 l 636 0 z "},"ừ":{"ha":825,"x_min":83,"x_max":858,"o":"m 765 874 l 850 874 q 848 773 858 817 q 797 703 837 729 q 725 680 765 681 q 642 684 684 678 l 642 749 q 673 750 658 750 q 705 753 689 750 q 760 800 752 764 q 765 874 767 835 m 374 868 l 291 1083 l 378 1083 l 462 868 l 374 868 m 384 -19 q 266 2 317 -19 q 181 58 216 23 q 124 139 146 94 q 93 236 103 185 q 83 338 83 287 l 83 750 l 186 750 l 186 367 q 198 253 186 306 q 236 161 210 200 q 303 100 262 122 q 403 78 344 78 q 499 97 458 78 q 568 151 540 116 q 611 236 597 186 q 626 350 626 287 l 698 334 q 658 140 698 219 q 547 22 617 62 q 384 -19 476 -19 m 636 0 l 636 185 l 626 185 l 626 750 l 728 750 l 728 0 l 636 0 z "},"ử":{"ha":825,"x_min":83,"x_max":858,"o":"m 765 875 l 850 875 q 848 774 858 818 q 797 703 837 730 q 725 680 765 682 q 642 684 684 678 l 642 750 q 673 751 658 751 q 705 754 689 751 q 760 800 752 764 q 765 875 767 835 m 339 1027 l 306 1081 q 373 1120 334 1109 q 449 1120 412 1132 q 510 1067 486 1108 q 527 1003 528 1034 q 512 945 526 972 q 474 898 498 918 q 421 869 449 878 l 388 916 q 447 966 429 935 q 447 1028 464 997 q 416 1053 435 1049 q 377 1050 397 1057 q 339 1027 356 1042 m 384 -19 q 266 2 317 -19 q 181 58 216 23 q 124 139 146 94 q 93 236 103 185 q 83 338 83 287 l 83 750 l 186 750 l 186 367 q 198 253 186 306 q 236 161 210 200 q 303 100 262 122 q 403 78 344 78 q 499 97 458 78 q 568 151 540 116 q 611 236 597 186 q 626 350 626 287 l 698 334 q 658 140 698 219 q 547 22 617 62 q 384 -19 476 -19 m 636 0 l 636 185 l 626 185 l 626 750 l 728 750 l 728 0 l 636 0 z "},"ữ":{"ha":825,"x_min":83,"x_max":858,"o":"m 765 875 l 850 875 q 848 774 858 818 q 797 703 837 730 q 725 680 765 682 q 642 684 684 678 l 642 750 q 673 751 658 751 q 705 754 689 751 q 760 800 752 764 q 765 875 767 835 m 519 869 q 463 881 490 869 q 409 909 435 893 q 359 936 383 924 q 315 948 336 948 q 281 927 288 948 q 281 881 274 906 l 209 881 q 221 986 193 943 q 310 1030 249 1030 q 368 1018 340 1030 q 422 991 396 1006 q 471 963 448 975 q 515 951 494 951 q 549 972 540 951 q 549 1020 558 993 l 622 1020 q 610 914 638 959 q 519 869 582 869 m 384 -19 q 266 2 317 -19 q 181 58 216 23 q 124 139 146 94 q 93 236 103 185 q 83 338 83 287 l 83 750 l 186 750 l 186 367 q 198 253 186 306 q 236 161 210 200 q 303 100 262 122 q 403 78 344 78 q 499 97 458 78 q 568 151 540 116 q 611 236 597 186 q 626 350 626 287 l 698 334 q 658 140 698 219 q 547 22 617 62 q 384 -19 476 -19 m 636 0 l 636 185 l 626 185 l 626 750 l 728 750 l 728 0 l 636 0 z "},"ű":{"ha":825,"x_min":83,"x_max":728,"o":"m 573 868 l 485 868 l 568 1083 l 656 1083 l 573 868 m 313 868 l 225 868 l 308 1083 l 396 1083 l 313 868 m 384 -19 q 266 2 317 -19 q 181 58 216 23 q 124 139 146 94 q 93 236 103 185 q 83 338 83 287 l 83 750 l 186 750 l 186 367 q 198 253 186 306 q 236 161 210 200 q 303 100 262 122 q 403 78 344 78 q 499 97 458 78 q 568 151 540 116 q 611 236 597 186 q 626 350 626 287 l 698 334 q 658 140 698 219 q 547 22 617 62 q 384 -19 476 -19 m 636 0 l 636 185 l 626 185 l 626 750 l 728 750 l 728 0 l 636 0 z "},"ū":{"ha":825,"x_min":83,"x_max":728,"o":"m 231 917 l 231 1003 l 579 1003 l 579 917 l 231 917 m 384 -19 q 266 2 317 -19 q 181 58 216 23 q 124 139 146 94 q 93 236 103 185 q 83 338 83 287 l 83 750 l 186 750 l 186 367 q 198 253 186 306 q 236 161 210 200 q 303 100 262 122 q 403 78 344 78 q 499 97 458 78 q 568 151 540 116 q 611 236 597 186 q 626 350 626 287 l 698 334 q 658 140 698 219 q 547 22 617 62 q 384 -19 476 -19 m 636 0 l 636 185 l 626 185 l 626 750 l 728 750 l 728 0 l 636 0 z "},"ų":{"ha":825,"x_min":83,"x_max":732,"o":"m 615 -335 q 547 -316 577 -335 q 499 -266 517 -297 q 481 -199 481 -235 q 507 -107 481 -154 q 576 -17 533 -60 q 673 61 619 27 l 728 0 q 650 -59 685 -26 q 592 -128 614 -93 q 570 -194 570 -164 q 586 -236 570 -219 q 623 -252 602 -252 q 656 -243 639 -252 q 687 -218 673 -233 l 732 -273 q 677 -319 708 -303 q 615 -335 647 -335 m 384 -19 q 266 2 317 -19 q 181 58 216 23 q 124 139 146 94 q 93 236 103 185 q 83 338 83 287 l 83 750 l 186 750 l 186 367 q 198 253 186 306 q 236 161 210 200 q 303 100 262 122 q 403 78 344 78 q 499 97 458 78 q 568 151 540 116 q 611 236 597 186 q 626 350 626 287 l 698 334 q 658 140 698 219 q 547 22 617 62 q 384 -19 476 -19 m 636 0 l 636 185 l 626 185 l 626 750 l 728 750 l 728 0 l 636 0 z "},"ů":{"ha":825,"x_min":83,"x_max":728,"o":"m 406 831 q 330 852 365 831 q 274 907 295 872 q 253 983 253 941 q 274 1060 253 1025 q 330 1115 295 1094 q 406 1135 365 1135 q 483 1115 449 1135 q 538 1060 517 1094 q 558 983 558 1025 q 538 907 558 941 q 483 852 517 872 q 406 831 449 831 m 406 907 q 460 930 438 907 q 483 983 483 952 q 460 1038 483 1015 q 406 1060 438 1060 q 352 1038 375 1060 q 330 983 330 1015 q 352 930 330 952 q 406 907 375 907 m 384 -19 q 266 2 317 -19 q 181 58 216 23 q 124 139 146 94 q 93 236 103 185 q 83 338 83 287 l 83 750 l 186 750 l 186 367 q 198 253 186 306 q 236 161 210 200 q 303 100 262 122 q 403 78 344 78 q 499 97 458 78 q 568 151 540 116 q 611 236 597 186 q 626 350 626 287 l 698 334 q 658 140 698 219 q 547 22 617 62 q 384 -19 476 -19 m 636 0 l 636 185 l 626 185 l 626 750 l 728 750 l 728 0 l 636 0 z "},"ũ":{"ha":825,"x_min":83,"x_max":728,"o":"m 384 -19 q 266 2 317 -19 q 181 58 216 23 q 124 139 146 94 q 93 236 103 185 q 83 338 83 287 l 83 750 l 186 750 l 186 367 q 198 253 186 306 q 236 161 210 200 q 303 100 262 122 q 403 78 344 78 q 499 97 458 78 q 568 151 540 116 q 611 236 597 186 q 626 350 626 287 l 698 334 q 658 140 698 219 q 547 22 617 62 q 384 -19 476 -19 m 636 0 l 636 185 l 626 185 l 626 750 l 728 750 l 728 0 l 636 0 m 526 869 q 469 881 497 869 q 415 909 441 893 q 366 936 389 924 q 322 948 342 948 q 287 927 294 948 q 288 881 280 906 l 215 881 q 227 986 199 943 q 317 1030 256 1030 q 374 1018 347 1030 q 428 991 402 1006 q 477 963 454 975 q 522 951 501 951 q 555 972 546 951 q 556 1020 565 993 l 628 1020 q 616 914 644 959 q 526 869 588 869 z "},"v":{"ha":706,"x_min":28,"x_max":678,"o":"m 300 0 l 28 750 l 131 750 l 353 133 l 573 750 l 678 750 l 406 0 l 300 0 z "},"w":{"ha":1066,"x_min":28,"x_max":1038,"o":"m 257 0 l 28 751 l 130 750 l 308 167 l 486 750 l 579 750 l 758 167 l 937 750 l 1038 750 l 809 0 l 720 0 l 533 597 l 346 0 l 257 0 z "},"ẃ":{"ha":1066,"x_min":28,"x_max":1038,"o":"m 583 868 l 495 868 l 578 1083 l 666 1083 l 583 868 m 257 0 l 28 751 l 130 750 l 308 167 l 486 750 l 579 750 l 758 167 l 937 750 l 1038 750 l 809 0 l 720 0 l 533 597 l 346 0 l 257 0 z "},"ŵ":{"ha":1066,"x_min":28,"x_max":1038,"o":"m 326 868 l 485 1056 l 579 1056 l 738 868 l 634 868 l 532 988 l 430 868 l 326 868 m 257 0 l 28 751 l 130 750 l 308 167 l 486 750 l 579 750 l 758 167 l 937 750 l 1038 750 l 809 0 l 720 0 l 533 597 l 346 0 l 257 0 z "},"ẅ":{"ha":1066,"x_min":28,"x_max":1038,"o":"m 610 897 l 610 1008 l 721 1008 l 721 897 l 610 897 m 345 897 l 345 1008 l 456 1008 l 456 897 l 345 897 m 257 0 l 28 751 l 130 750 l 308 167 l 486 750 l 579 750 l 758 167 l 937 750 l 1038 750 l 809 0 l 720 0 l 533 597 l 346 0 l 257 0 z "},"ẁ":{"ha":1066,"x_min":28,"x_max":1038,"o":"m 483 868 l 400 1083 l 488 1083 l 570 868 l 483 868 m 257 0 l 28 751 l 130 750 l 308 167 l 486 750 l 579 750 l 758 167 l 937 750 l 1038 750 l 809 0 l 720 0 l 533 597 l 346 0 l 257 0 z "},"x":{"ha":732,"x_min":14,"x_max":718,"o":"m 14 0 l 307 379 l 20 750 l 142 750 l 367 458 l 589 750 l 711 750 l 424 379 l 718 0 l 595 0 l 367 301 l 137 0 l 14 0 z "},"y":{"ha":733,"x_min":23,"x_max":709,"o":"m 204 -333 l 349 60 l 351 -56 l 23 750 l 131 750 l 401 76 l 356 76 l 605 750 l 709 750 l 306 -333 l 204 -333 z "},"ý":{"ha":733,"x_min":23,"x_max":709,"o":"m 410 868 l 322 868 l 405 1083 l 492 1083 l 410 868 m 204 -333 l 349 60 l 351 -56 l 23 750 l 131 750 l 401 76 l 356 76 l 605 750 l 709 750 l 306 -333 l 204 -333 z "},"ŷ":{"ha":733,"x_min":23,"x_max":709,"o":"m 170 868 l 329 1056 l 424 1056 l 583 868 l 478 868 l 376 988 l 274 868 l 170 868 m 204 -333 l 349 60 l 351 -56 l 23 750 l 131 750 l 401 76 l 356 76 l 605 750 l 709 750 l 306 -333 l 204 -333 z "},"ÿ":{"ha":733,"x_min":23,"x_max":709,"o":"m 450 897 l 450 1008 l 561 1008 l 561 897 l 450 897 m 185 897 l 185 1008 l 297 1008 l 297 897 l 185 897 m 204 -333 l 349 60 l 351 -56 l 23 750 l 131 750 l 401 76 l 356 76 l 605 750 l 709 750 l 306 -333 l 204 -333 z "},"ỵ":{"ha":733,"x_min":23,"x_max":709,"o":"m 497 -266 l 497 -151 l 615 -151 l 615 -266 l 497 -266 m 204 -333 l 349 60 l 351 -56 l 23 750 l 131 750 l 401 76 l 356 76 l 605 750 l 709 750 l 306 -333 l 204 -333 z "},"ỳ":{"ha":733,"x_min":23,"x_max":709,"o":"m 335 868 l 252 1083 l 340 1083 l 422 868 l 335 868 m 204 -333 l 349 60 l 351 -56 l 23 750 l 131 750 l 401 76 l 356 76 l 605 750 l 709 750 l 306 -333 l 204 -333 z "},"ỷ":{"ha":733,"x_min":23,"x_max":709,"o":"m 297 1027 l 264 1081 q 331 1120 292 1109 q 407 1120 370 1132 q 468 1067 444 1108 q 485 1003 486 1034 q 470 945 485 972 q 432 898 456 918 q 379 869 408 878 l 346 916 q 405 966 388 935 q 405 1028 422 997 q 374 1053 393 1049 q 335 1050 356 1057 q 297 1027 315 1042 m 204 -333 l 349 60 l 351 -56 l 23 750 l 131 750 l 401 76 l 356 76 l 605 750 l 709 750 l 306 -333 l 204 -333 z "},"ỹ":{"ha":733,"x_min":23,"x_max":709,"o":"m 204 -333 l 349 60 l 351 -56 l 23 750 l 131 750 l 401 76 l 356 76 l 605 750 l 709 750 l 306 -333 l 204 -333 m 479 869 q 422 881 450 869 q 368 909 394 893 q 319 936 342 924 q 275 948 296 948 q 241 927 248 948 q 241 881 233 906 l 169 881 q 181 986 153 943 q 270 1030 209 1030 q 328 1018 300 1030 q 382 991 356 1006 q 431 963 408 975 q 475 951 454 951 q 509 972 499 951 q 509 1020 518 993 l 581 1020 q 569 914 597 959 q 479 869 542 869 z "},"z":{"ha":735,"x_min":28,"x_max":680,"o":"m 28 0 l 28 22 l 512 655 l 64 655 l 64 750 l 680 750 l 680 726 l 197 95 l 653 95 l 653 0 l 28 0 z "},"ź":{"ha":735,"x_min":28,"x_max":680,"o":"m 434 868 l 347 868 l 430 1083 l 517 1083 l 434 868 m 28 0 l 28 22 l 512 655 l 64 655 l 64 750 l 680 750 l 680 726 l 197 95 l 653 95 l 653 0 l 28 0 z "},"ž":{"ha":735,"x_min":28,"x_max":680,"o":"m 176 1056 l 281 1056 l 383 935 l 485 1056 l 590 1056 l 430 868 l 335 868 l 176 1056 m 28 0 l 28 22 l 512 655 l 64 655 l 64 750 l 680 750 l 680 726 l 197 95 l 653 95 l 653 0 l 28 0 z "},"ż":{"ha":735,"x_min":28,"x_max":680,"o":"m 317 909 l 317 1028 l 435 1028 l 435 909 l 317 909 m 28 0 l 28 22 l 512 655 l 64 655 l 64 750 l 680 750 l 680 726 l 197 95 l 653 95 l 653 0 l 28 0 z "},"":{"ha":920,"x_min":42,"x_max":906,"o":"m 172 0 l 172 806 q 175 863 172 835 q 188 918 178 892 q 218 966 197 944 q 268 1002 241 991 q 325 1017 295 1014 q 383 1021 354 1021 l 478 1021 l 478 935 l 390 935 q 302 906 331 935 q 274 817 274 878 l 274 0 l 172 0 m 42 663 l 42 750 l 478 750 l 478 663 l 42 663 m 599 0 l 599 806 q 602 863 599 835 q 615 918 606 892 q 646 966 625 944 q 696 1002 669 991 q 752 1017 723 1014 q 810 1021 782 1021 l 906 1021 l 906 935 l 817 935 q 730 906 759 935 q 701 817 701 878 l 701 0 l 599 0 m 469 663 l 469 750 l 906 750 l 906 663 l 469 663 z "},"":{"ha":1295,"x_min":42,"x_max":1184,"o":"m 885 663 l 885 750 l 1094 750 l 1094 663 l 885 663 m 599 0 l 599 806 q 602 863 599 835 q 615 918 606 892 q 646 966 625 944 q 696 1002 669 991 q 752 1017 723 1014 q 810 1021 782 1021 l 906 1021 l 906 935 l 817 935 q 730 906 759 935 q 701 817 701 878 l 701 0 l 599 0 m 469 663 l 469 750 l 906 750 l 906 663 l 469 663 m 1082 0 l 1082 1021 l 1184 1021 l 1184 0 l 1082 0 m 172 0 l 172 806 q 175 863 172 835 q 188 918 178 892 q 218 966 197 944 q 268 1002 241 991 q 325 1017 295 1014 q 383 1021 354 1021 l 478 1021 l 478 935 l 390 935 q 302 906 331 935 q 274 817 274 878 l 274 0 l 172 0 m 42 663 l 42 750 l 478 750 l 478 663 l 42 663 z "},"ﬁ":{"ha":838,"x_min":42,"x_max":726,"o":"m 172 0 l 172 806 q 175 863 172 835 q 188 918 178 892 q 218 966 197 944 q 268 1002 241 991 q 325 1017 295 1014 q 383 1021 354 1021 l 478 1021 l 478 935 l 390 935 q 302 906 331 935 q 274 817 274 878 l 274 0 l 172 0 m 42 663 l 42 750 l 478 750 l 478 663 l 42 663 m 624 892 l 624 1007 l 726 1007 l 726 892 l 624 892 m 624 0 l 624 750 l 726 750 l 726 0 l 624 0 z "},"ﬂ":{"ha":867,"x_min":42,"x_max":756,"o":"m 458 663 l 458 750 l 666 750 l 666 663 l 458 663 m 172 0 l 172 806 q 175 863 172 835 q 188 918 178 892 q 218 966 197 944 q 268 1002 241 991 q 325 1017 295 1014 q 383 1021 354 1021 l 478 1021 l 478 935 l 390 935 q 302 906 331 935 q 274 817 274 878 l 274 0 l 172 0 m 42 663 l 42 750 l 478 750 l 478 663 l 42 663 m 654 0 l 654 1021 l 756 1021 l 756 0 l 654 0 z "},"":{"ha":1030,"x_min":14,"x_max":978,"o":"m 506 0 q 381 -10 442 -13 q 271 16 319 -8 q 198 90 223 40 q 176 174 178 131 q 174 272 174 217 l 174 958 l 276 958 l 276 276 q 277 197 276 228 q 291 141 278 165 q 370 85 316 94 q 506 90 425 76 l 506 0 m 14 663 l 14 750 l 506 750 l 506 663 l 14 663 m 978 0 q 854 -10 915 -13 q 744 16 792 -8 q 671 90 696 40 q 649 174 651 131 q 647 272 647 217 l 647 958 l 749 958 l 749 276 q 750 197 749 228 q 764 141 751 165 q 843 85 789 94 q 978 90 898 76 l 978 0 m 487 663 l 487 750 l 978 750 l 978 663 l 487 663 z "},"ª":{"ha":438,"x_min":56,"x_max":382,"o":"m 183 375 q 88 408 120 375 q 56 488 56 442 q 78 557 56 530 q 144 599 101 585 q 232 617 181 610 q 335 631 283 624 l 310 606 q 294 680 313 656 q 226 703 275 703 q 171 690 196 703 q 137 645 147 676 l 69 665 q 122 742 83 714 q 226 771 161 771 q 314 754 276 771 q 368 699 351 737 q 380 660 377 681 q 382 617 382 640 l 382 385 l 317 385 l 317 471 l 328 457 q 269 395 305 415 q 183 375 234 375 m 195 435 q 268 458 242 435 q 302 508 295 481 q 309 548 308 526 q 309 581 309 570 l 334 571 q 244 558 283 563 q 179 544 206 552 q 142 524 157 537 q 128 488 128 510 q 144 450 128 466 q 195 435 160 435 z "},"º":{"ha":479,"x_min":56,"x_max":424,"o":"m 239 375 q 105 431 155 375 q 56 574 56 486 q 106 716 56 662 q 239 771 157 771 q 374 716 324 771 q 424 574 424 660 q 374 430 424 485 q 239 375 324 375 m 239 444 q 319 480 293 444 q 346 574 346 516 q 319 667 346 632 q 239 703 292 703 q 158 667 184 703 q 133 574 133 631 q 159 479 133 515 q 239 444 186 444 z "},"А":{"ha":880,"x_min":28,"x_max":852,"o":"m 28 0 l 372 1000 l 508 1000 l 852 0 l 746 0 l 419 943 l 459 943 l 134 0 l 28 0 m 181 242 l 181 338 l 698 338 l 698 242 l 181 242 z "},"Б":{"ha":839,"x_min":97,"x_max":797,"o":"m 97 0 l 97 1000 l 715 1000 l 715 902 l 199 902 l 199 611 l 483 611 q 516 610 498 611 q 553 606 535 609 q 685 553 631 596 q 768 447 740 511 q 797 306 797 382 q 768 165 797 229 q 685 58 740 100 q 553 5 631 15 q 516 1 535 3 q 483 0 498 0 l 97 0 m 199 98 l 481 98 q 510 99 493 98 q 542 103 526 101 q 656 177 619 119 q 692 306 692 236 q 656 434 692 376 q 542 508 619 492 q 510 512 526 511 q 481 513 493 513 l 199 513 l 199 98 z "},"В":{"ha":851,"x_min":97,"x_max":810,"o":"m 97 0 l 97 1000 l 483 1000 q 630 965 567 1000 q 727 872 692 931 q 762 742 762 813 q 719 599 762 662 q 603 512 676 536 l 602 546 q 755 449 699 518 q 810 281 810 379 q 774 131 810 194 q 670 34 737 68 q 515 0 603 0 l 97 0 m 200 98 l 490 98 q 600 120 551 98 q 677 182 649 142 q 705 279 705 222 q 679 379 705 335 q 609 450 653 424 q 509 477 565 477 l 200 477 l 200 98 m 200 574 l 483 574 q 570 595 531 574 q 633 656 610 617 q 656 744 656 694 q 607 859 656 815 q 483 903 558 903 l 200 903 l 200 574 z "},"Г":{"ha":736,"x_min":97,"x_max":722,"o":"m 97 0 l 97 1000 l 722 1000 l 722 902 l 199 902 l 199 0 l 97 0 z "},"Ѓ":{"ha":736,"x_min":97,"x_max":722,"o":"m 359 1118 l 272 1118 l 354 1333 l 442 1333 l 359 1118 m 97 0 l 97 1000 l 722 1000 l 722 902 l 199 902 l 199 0 l 97 0 z "},"Ґ":{"ha":750,"x_min":97,"x_max":736,"o":"m 97 0 l 97 1000 l 634 1000 l 634 1130 l 736 1130 l 736 902 l 199 902 l 199 0 l 97 0 z "},"Д":{"ha":1024,"x_min":51,"x_max":969,"o":"m 51 -167 l 51 98 q 144 127 109 98 q 199 206 180 157 q 227 317 217 256 q 244 442 237 378 q 259 620 253 534 q 270 799 265 706 q 281 1001 274 891 l 897 1000 l 897 98 l 969 98 l 969 -167 l 867 -167 l 867 0 l 153 0 l 153 -167 l 51 -167 m 246 98 l 795 98 l 795 902 l 376 903 q 367 739 372 818 q 358 579 363 660 q 343 411 352 499 q 325 272 335 331 q 296 169 315 212 q 246 98 278 127 z "},"Е":{"ha":792,"x_min":97,"x_max":722,"o":"m 97 0 l 97 1000 l 722 1000 l 722 902 l 199 902 l 199 556 l 639 556 l 639 458 l 199 458 l 199 98 l 722 98 l 722 0 l 97 0 z "},"Ѐ":{"ha":792,"x_min":97,"x_max":722,"o":"m 388 1118 l 305 1333 l 392 1333 l 475 1118 l 388 1118 m 97 0 l 97 1000 l 722 1000 l 722 902 l 199 902 l 199 556 l 639 556 l 639 458 l 199 458 l 199 98 l 722 98 l 722 0 l 97 0 z "},"Ё":{"ha":792,"x_min":97,"x_max":722,"o":"m 472 1147 l 472 1258 l 583 1258 l 583 1147 l 472 1147 m 208 1147 l 208 1258 l 319 1258 l 319 1147 l 208 1147 m 97 0 l 97 1000 l 722 1000 l 722 902 l 199 902 l 199 556 l 639 556 l 639 458 l 199 458 l 199 98 l 722 98 l 722 0 l 97 0 z "},"Ж":{"ha":1237,"x_min":14,"x_max":1223,"o":"m 14 0 l 457 517 l 52 1000 l 181 1000 l 567 533 l 567 1000 l 669 1000 l 669 533 l 1056 1000 l 1185 1000 l 780 517 l 1223 0 l 1092 0 l 669 495 l 669 0 l 567 0 l 567 495 l 145 0 l 14 0 z "},"З":{"ha":828,"x_min":47,"x_max":782,"o":"m 417 -21 q 241 9 315 -21 q 118 88 166 39 q 47 194 70 137 l 140 248 q 192 162 156 201 q 285 100 228 123 q 421 77 342 77 q 559 103 502 77 q 644 175 615 128 q 674 283 674 222 q 641 389 674 351 q 553 442 608 426 q 431 460 499 458 q 359 463 381 462 q 331 463 338 463 q 317 463 324 463 l 317 562 q 343 562 322 562 q 388 562 364 562 q 425 563 411 563 q 581 615 524 568 q 638 743 638 663 q 578 876 638 828 q 423 923 518 923 q 272 880 333 923 q 172 766 210 838 l 88 828 q 222 967 135 913 q 426 1021 308 1021 q 547 1003 489 1021 q 650 952 605 986 q 720 866 694 918 q 747 745 747 815 q 711 603 747 664 q 619 513 675 543 q 739 432 695 490 q 782 281 782 374 q 737 122 782 190 q 609 16 692 53 q 417 -21 527 -21 z "},"И":{"ha":951,"x_min":97,"x_max":853,"o":"m 853 0 l 751 0 l 751 820 l 200 0 l 97 0 l 97 1000 l 200 1000 l 200 181 l 751 1000 l 853 1000 l 853 0 z "},"Й":{"ha":951,"x_min":97,"x_max":853,"o":"m 97 0 l 97 1000 l 200 1000 l 200 181 l 751 1000 l 853 1000 l 853 0 l 751 0 l 751 820 l 200 0 l 97 0 m 483 1089 q 393 1113 434 1089 q 328 1178 353 1138 q 304 1268 304 1219 l 389 1268 q 417 1201 389 1229 q 483 1174 444 1174 q 550 1201 523 1174 q 578 1268 578 1229 l 663 1268 q 639 1178 663 1219 q 574 1113 615 1138 q 483 1089 533 1089 z "},"Ѝ":{"ha":951,"x_min":97,"x_max":853,"o":"m 97 0 l 97 1000 l 200 1000 l 200 181 l 751 1000 l 853 1000 l 853 0 l 751 0 l 751 820 l 200 0 l 97 0 m 448 1118 l 365 1333 l 452 1333 l 535 1118 l 448 1118 z "},"К":{"ha":824,"x_min":97,"x_max":824,"o":"m 97 0 l 97 1000 l 199 1000 l 199 528 l 656 1000 l 786 1000 l 320 517 l 824 0 l 691 0 l 199 500 l 199 0 l 97 0 z "},"Ќ":{"ha":824,"x_min":97,"x_max":824,"o":"m 97 0 l 97 1000 l 199 1000 l 199 528 l 656 1000 l 786 1000 l 320 517 l 824 0 l 691 0 l 199 500 l 199 0 l 97 0 m 473 1118 l 385 1118 l 468 1333 l 556 1333 l 473 1118 z "},"Л":{"ha":972,"x_min":28,"x_max":874,"o":"m 28 0 l 28 91 q 91 94 66 88 q 132 124 116 101 q 159 195 147 148 q 183 317 171 242 q 205 481 196 399 q 222 645 215 562 q 234 817 229 729 q 243 1000 239 906 l 874 1000 l 874 0 l 772 0 l 772 902 l 342 902 q 332 756 337 831 q 321 602 328 681 q 305 441 315 524 q 282 269 296 358 q 256 146 271 203 q 214 50 241 89 q 143 -3 188 11 q 28 0 98 -18 z "},"М":{"ha":1167,"x_min":97,"x_max":1070,"o":"m 97 0 l 97 1000 l 191 1000 l 584 159 l 975 1000 l 1070 1000 l 1070 1 l 973 1 l 973 772 l 617 0 l 551 0 l 195 772 l 195 0 l 97 0 z "},"Н":{"ha":951,"x_min":97,"x_max":853,"o":"m 97 0 l 97 1000 l 199 1000 l 199 549 l 752 549 l 752 1000 l 853 1000 l 853 0 l 752 0 l 752 451 l 199 451 l 199 0 l 97 0 z "},"О":{"ha":1005,"x_min":42,"x_max":963,"o":"m 502 -21 q 250 45 353 -21 q 94 229 147 112 q 42 500 42 347 q 94 771 42 653 q 250 955 147 888 q 502 1021 353 1021 q 755 955 652 1021 q 910 771 857 888 q 963 500 963 653 q 910 229 963 347 q 755 45 857 112 q 502 -21 652 -21 m 502 77 q 698 131 619 77 q 816 280 776 184 q 855 500 855 375 q 816 720 855 625 q 698 869 776 815 q 502 923 619 922 q 307 869 385 923 q 190 720 229 816 q 150 500 151 625 q 189 280 149 375 q 306 132 228 185 q 502 77 385 78 z "},"П":{"ha":960,"x_min":97,"x_max":863,"o":"m 97 0 l 97 1000 l 863 1000 l 863 0 l 761 0 l 761 902 l 199 902 l 199 0 l 97 0 z "},"Р":{"ha":839,"x_min":97,"x_max":797,"o":"m 97 0 l 97 1000 l 483 1000 q 516 999 498 1000 q 553 994 535 998 q 686 940 632 983 q 769 833 741 897 q 797 690 797 768 q 769 547 797 612 q 686 440 740 483 q 553 385 631 397 q 516 381 535 383 q 483 380 498 380 l 199 380 l 199 0 l 97 0 m 199 477 l 481 477 q 510 478 493 477 q 542 483 526 480 q 627 526 594 494 q 676 600 660 557 q 692 690 692 643 q 676 780 692 736 q 627 854 660 823 q 542 897 594 885 q 510 901 526 900 q 481 902 493 902 l 199 902 l 199 477 z "},"С":{"ha":994,"x_min":42,"x_max":938,"o":"m 502 -21 q 250 45 353 -21 q 94 229 147 112 q 42 500 42 347 q 94 771 42 653 q 250 955 147 888 q 502 1021 353 1021 q 787 932 676 1021 q 938 692 897 842 l 834 665 q 719 853 802 784 q 502 923 637 923 q 307 869 385 923 q 190 720 229 816 q 149 500 151 625 q 188 280 149 375 q 306 131 227 185 q 502 77 385 77 q 719 147 637 77 q 834 335 802 217 l 938 308 q 787 68 897 158 q 502 -21 676 -21 z "},"Т":{"ha":828,"x_min":14,"x_max":815,"o":"m 363 0 l 363 902 l 14 902 l 14 1000 l 815 1000 l 815 902 l 465 902 l 465 0 l 363 0 z "},"У":{"ha":865,"x_min":23,"x_max":842,"o":"m 266 0 l 378 237 l 23 1000 l 136 1000 l 432 347 l 733 1000 l 842 1000 l 377 0 l 266 0 z "},"Ў":{"ha":865,"x_min":23,"x_max":842,"o":"m 428 1089 q 339 1113 379 1089 q 274 1178 298 1138 q 249 1268 249 1219 l 334 1268 q 362 1201 334 1229 q 428 1174 390 1174 q 495 1201 468 1174 q 523 1268 523 1229 l 608 1268 q 584 1178 608 1219 q 519 1113 560 1138 q 428 1089 478 1089 m 266 0 l 378 237 l 23 1000 l 136 1000 l 432 347 l 733 1000 l 842 1000 l 377 0 l 266 0 z "},"Ф":{"ha":987,"x_min":42,"x_max":945,"o":"m 442 0 l 442 133 q 293 140 365 119 q 165 211 222 160 q 75 343 108 263 q 42 531 42 423 q 75 719 42 638 q 165 851 108 799 q 293 923 222 903 q 442 931 365 944 l 442 1000 l 544 1000 l 544 931 q 693 923 621 944 q 822 851 765 903 q 912 719 878 799 q 945 531 945 638 q 912 343 945 423 q 822 211 878 263 q 693 140 765 160 q 544 133 621 119 l 544 0 l 442 0 m 442 230 l 442 835 q 322 826 376 845 q 228 765 267 807 q 168 664 190 724 q 147 531 147 603 q 168 398 147 458 q 228 298 190 339 q 322 239 267 257 q 442 230 376 221 m 544 230 q 665 239 610 221 q 758 298 719 258 q 818 398 797 339 q 840 528 840 457 q 818 661 840 601 q 758 763 797 721 q 665 825 719 806 q 544 835 610 845 l 544 230 z "},"Х":{"ha":842,"x_min":14,"x_max":828,"o":"m 14 0 l 360 506 l 23 1000 l 147 1000 l 421 592 l 695 1000 l 819 1000 l 482 506 l 828 0 l 704 0 l 421 420 l 138 0 l 14 0 z "},"Ч":{"ha":898,"x_min":97,"x_max":801,"o":"m 699 0 l 699 469 l 727 426 q 610 370 679 392 q 453 349 540 349 q 245 397 323 349 q 132 530 167 445 q 97 723 97 614 l 97 1000 l 200 1000 l 200 758 q 213 632 200 689 q 257 534 226 575 q 338 471 288 493 q 463 449 389 449 q 622 477 556 449 q 720 538 689 506 l 699 456 l 699 1000 l 801 1000 l 801 0 l 699 0 z "},"Ц":{"ha":995,"x_min":97,"x_max":981,"o":"m 879 -130 l 879 0 l 97 0 l 97 1000 l 199 1000 l 199 94 l 773 94 l 773 991 l 875 991 l 875 94 l 981 94 l 981 -130 l 879 -130 z "},"Ш":{"ha":1259,"x_min":97,"x_max":1162,"o":"m 97 0 l 97 1000 l 199 1000 l 199 98 l 578 98 l 578 1000 l 681 1000 l 681 98 l 1060 98 l 1060 1000 l 1162 1000 l 1162 0 l 97 0 z "},"Щ":{"ha":1282,"x_min":97,"x_max":1268,"o":"m 1166 -130 l 1166 0 l 1069 0 l 1069 94 l 1268 94 l 1268 -130 l 1166 -130 m 97 0 l 97 1000 l 199 1000 l 199 98 l 578 98 l 578 1000 l 681 1000 l 681 98 l 1060 98 l 1060 1000 l 1162 1000 l 1162 0 l 97 0 z "},"Џ":{"ha":1019,"x_min":97,"x_max":922,"o":"m 458 -167 l 458 0 l 97 0 l 97 1000 l 199 1000 l 199 98 l 819 98 l 819 1000 l 922 1000 l 922 0 l 560 0 l 560 -167 l 458 -167 z "},"Ь":{"ha":852,"x_min":97,"x_max":797,"o":"m 97 0 l 97 1000 l 199 1000 l 199 620 l 483 620 q 516 619 497 620 q 553 615 534 618 q 686 560 631 603 q 768 453 740 517 q 797 310 797 388 q 768 167 797 232 q 686 60 740 103 q 553 6 631 17 q 516 1 534 3 q 483 0 497 0 l 97 0 m 199 98 l 480 98 q 510 99 493 98 q 542 103 526 101 q 626 146 593 115 q 676 220 660 177 q 692 310 692 264 q 676 400 692 357 q 626 474 660 443 q 542 517 593 506 q 510 522 526 520 q 480 523 493 523 l 199 523 l 199 98 z "},"Ъ":{"ha":858,"x_min":-9,"x_max":820,"o":"m 120 0 l 120 913 l -9 913 l -9 1000 l 222 1000 l 222 620 l 506 620 q 539 619 521 620 q 577 615 558 618 q 709 560 655 603 q 792 453 764 517 q 820 310 820 388 q 792 167 820 232 q 709 60 764 103 q 577 6 655 17 q 539 1 558 3 q 506 0 521 0 l 120 0 m 222 98 l 503 98 q 533 99 517 98 q 566 103 550 101 q 650 146 617 115 q 699 220 683 177 q 715 310 715 264 q 699 400 715 357 q 650 474 683 443 q 566 517 617 506 q 533 522 550 520 q 503 523 517 523 l 222 523 l 222 98 z "},"Ы":{"ha":1094,"x_min":97,"x_max":997,"o":"m 97 0 l 97 1000 l 199 1000 l 199 620 l 483 620 q 516 619 497 620 q 553 615 534 618 q 686 560 631 603 q 768 453 740 517 q 797 310 797 388 q 768 167 797 232 q 686 60 740 103 q 553 6 631 17 q 516 1 534 3 q 483 0 497 0 l 97 0 m 199 98 l 480 98 q 510 99 493 98 q 542 103 526 101 q 626 146 593 115 q 676 220 660 177 q 692 310 692 264 q 676 400 692 357 q 626 474 660 443 q 542 517 593 506 q 510 522 526 520 q 480 523 493 523 l 199 523 l 199 98 m 895 0 l 895 1000 l 997 1000 l 997 0 l 895 0 z "},"Љ":{"ha":1513,"x_min":14,"x_max":1458,"o":"m 758 0 l 758 1000 l 860 1000 l 860 620 l 1144 620 q 1177 619 1158 620 q 1215 615 1195 618 q 1347 560 1292 603 q 1430 453 1401 517 q 1458 310 1458 388 q 1430 167 1458 232 q 1347 60 1401 103 q 1215 6 1292 17 q 1177 1 1195 3 q 1144 0 1158 0 l 758 0 m 860 98 l 1141 98 q 1171 99 1154 98 q 1203 103 1188 101 q 1288 146 1254 115 q 1337 220 1321 177 q 1353 310 1353 264 q 1337 400 1353 357 q 1288 474 1321 443 q 1203 517 1254 506 q 1171 522 1188 520 q 1141 523 1154 523 l 860 523 l 860 98 m 14 0 l 14 91 q 77 94 52 88 q 118 124 102 101 q 145 195 133 148 q 169 317 157 242 q 191 481 182 399 q 208 645 201 562 q 220 817 215 729 q 229 1000 225 906 l 860 1000 l 860 0 l 758 0 l 758 902 l 328 902 q 318 756 323 831 q 307 602 314 681 q 291 441 301 524 q 268 269 282 358 q 242 146 257 203 q 200 50 227 89 q 129 -3 174 11 q 14 0 84 -18 z "},"Њ":{"ha":1470,"x_min":97,"x_max":1415,"o":"m 97 0 l 97 1000 l 199 1000 l 199 620 l 769 620 l 769 522 l 199 522 l 199 0 l 97 0 m 715 0 l 715 1000 l 816 1000 l 816 620 l 1101 620 q 1133 619 1115 620 q 1171 615 1152 618 q 1303 560 1249 603 q 1386 453 1358 517 q 1415 310 1415 388 q 1386 167 1415 232 q 1303 60 1358 103 q 1171 6 1249 17 q 1134 1 1152 3 q 1101 0 1115 0 l 715 0 m 816 98 l 1098 98 q 1127 99 1110 98 q 1160 103 1144 101 q 1244 146 1211 115 q 1293 220 1277 177 q 1309 310 1309 264 q 1293 400 1309 357 q 1244 474 1277 443 q 1160 517 1211 506 q 1127 522 1144 520 q 1098 523 1110 523 l 816 523 l 816 98 z "},"Ѕ":{"ha":856,"x_min":47,"x_max":810,"o":"m 444 -21 q 256 14 340 -21 q 118 114 172 49 q 47 267 63 178 l 151 285 q 256 132 176 188 q 449 77 337 77 q 581 100 522 77 q 672 167 639 124 q 706 269 706 210 q 692 335 706 308 q 655 381 678 363 q 605 411 632 399 q 552 431 578 423 l 299 506 q 214 540 253 519 q 146 589 175 560 q 101 657 117 618 q 85 746 85 696 q 130 892 85 831 q 251 988 174 954 q 427 1020 328 1021 q 606 985 527 1020 q 736 884 685 949 q 804 728 788 818 l 697 709 q 649 822 687 774 q 554 896 612 870 q 426 923 496 922 q 307 900 359 923 q 224 839 254 878 q 193 750 193 800 q 221 669 193 699 q 291 621 249 638 q 371 592 332 603 l 567 535 q 639 511 597 526 q 719 466 680 495 q 784 391 758 438 q 810 273 810 344 q 782 149 810 203 q 705 56 755 94 q 589 -1 656 19 q 444 -21 523 -21 z "},"Є":{"ha":995,"x_min":58,"x_max":953,"o":"m 517 -21 q 266 49 369 -21 q 110 236 163 118 q 60 500 58 354 q 116 773 63 656 q 270 956 169 890 q 517 1021 371 1021 q 801 931 685 1021 q 953 676 916 840 l 849 660 q 735 851 822 781 q 521 922 649 920 q 337 876 413 923 q 219 744 261 828 q 170 549 177 659 l 537 549 l 537 451 l 170 451 q 191 322 174 385 q 252 201 208 259 q 369 108 299 138 q 521 77 440 78 q 727 142 640 76 q 846 324 813 209 l 947 298 q 860 125 920 197 q 713 17 800 54 q 517 -21 625 -21 z "},"Э":{"ha":976,"x_min":42,"x_max":937,"o":"m 478 -21 q 283 17 370 -21 q 135 125 195 54 q 49 298 75 197 l 149 324 q 269 142 183 209 q 474 77 355 76 q 626 108 556 78 q 743 201 697 138 q 804 322 788 259 q 824 451 821 385 l 458 451 l 458 549 l 825 549 q 776 744 817 659 q 658 876 734 828 q 474 922 583 923 q 259 851 346 920 q 145 660 173 781 l 42 676 q 194 931 79 840 q 478 1021 310 1021 q 725 956 624 1021 q 879 773 826 890 q 935 500 933 656 q 884 236 937 354 q 729 49 832 118 q 478 -21 626 -21 z "},"І":{"ha":324,"x_min":111,"x_max":213,"o":"m 111 0 l 111 1000 l 213 1000 l 213 0 l 111 0 z "},"Ї":{"ha":324,"x_min":-26,"x_max":350,"o":"m 239 1147 l 239 1258 l 350 1258 l 350 1147 l 239 1147 m -26 1147 l -26 1258 l 85 1258 l 85 1147 l -26 1147 m 111 0 l 111 1000 l 213 1000 l 213 0 l 111 0 z "},"Ј":{"ha":644,"x_min":0,"x_max":532,"o":"m 268 -20 q 97 35 168 -20 q 0 184 25 91 l 102 208 q 160 116 115 153 q 267 78 206 78 q 346 97 306 78 q 409 158 386 115 q 427 223 424 188 q 429 308 429 258 l 429 1000 l 532 1000 l 532 308 q 531 232 532 266 q 524 168 531 199 q 499 106 517 137 q 402 11 463 42 q 268 -20 342 -20 z "},"Ћ":{"ha":898,"x_min":0,"x_max":801,"o":"m 0 906 l 0 1000 l 417 1000 l 417 906 l 0 906 m 199 1000 l 199 531 l 172 574 q 289 630 219 609 q 445 651 358 651 q 653 603 576 651 q 766 470 731 555 q 801 277 801 386 l 801 0 l 698 0 l 698 242 q 685 368 698 312 q 641 466 672 425 q 561 529 611 507 q 435 551 510 551 q 276 523 343 551 q 178 462 210 495 l 199 544 l 199 0 l 97 0 l 97 1000 l 199 1000 z "},"Ю":{"ha":1274,"x_min":97,"x_max":1233,"o":"m 97 0 l 97 1000 l 199 1000 l 199 551 l 472 551 l 472 449 l 199 449 l 199 0 l 97 0 m 831 -21 q 657 20 732 -21 q 531 133 581 61 q 456 299 481 205 q 431 500 431 394 q 456 701 431 607 q 531 866 481 794 q 657 979 581 938 q 831 1020 732 1020 q 1007 979 931 1020 q 1132 866 1082 938 q 1207 701 1182 794 q 1233 500 1233 607 q 1207 295 1233 390 q 1132 130 1182 201 q 1007 19 1082 58 q 831 -21 931 -21 m 831 77 q 959 110 905 77 q 1050 202 1014 144 q 1105 337 1087 260 q 1124 500 1124 414 q 1107 663 1125 586 q 1052 797 1088 739 q 960 889 1015 856 q 831 922 905 922 q 704 889 758 922 q 613 797 649 856 q 558 663 576 739 q 539 500 540 586 q 556 337 538 414 q 611 202 574 260 q 703 110 648 144 q 831 77 758 77 z "},"Я":{"ha":876,"x_min":56,"x_max":778,"o":"m 778 0 l 677 0 l 677 380 l 344 380 l 309 388 q 138 493 198 410 q 78 690 78 576 q 107 833 78 768 q 190 940 135 897 q 322 994 244 983 q 360 999 342 998 q 392 1000 378 1000 l 778 1000 l 778 0 m 173 0 l 56 0 l 272 444 l 370 407 l 173 0 m 677 477 l 677 902 l 395 902 q 366 901 383 902 q 333 897 349 900 q 249 854 282 885 q 200 780 216 823 q 184 690 184 736 q 200 600 184 643 q 249 526 216 557 q 333 483 282 494 q 366 478 349 480 q 395 477 383 477 l 677 477 z "},"Ђ":{"ha":897,"x_min":0,"x_max":842,"o":"m 102 0 l 102 906 l 0 906 l 0 1000 l 417 1000 l 417 906 l 194 906 l 194 644 q 313 740 238 709 q 485 771 388 771 q 749 676 656 771 q 842 392 842 582 q 804 186 842 275 q 688 49 766 98 q 490 0 610 0 l 490 103 q 628 139 573 103 q 711 241 683 174 q 739 398 739 307 q 708 555 739 494 q 618 643 677 615 q 476 672 560 672 q 310 632 374 672 q 221 510 245 592 q 207 426 210 470 q 204 340 204 381 l 204 0 l 102 0 z "},"Ү":{"ha":772,"x_min":0,"x_max":772,"o":"m 335 0 l 335 419 l 0 1000 l 118 1000 l 387 535 l 654 1000 l 772 1000 l 438 419 l 438 0 l 335 0 z "},"Һ":{"ha":898,"x_min":97,"x_max":801,"o":"m 199 1000 l 199 531 l 172 574 q 289 630 219 609 q 445 651 358 651 q 653 603 576 651 q 766 470 731 555 q 801 277 801 386 l 801 0 l 698 0 l 698 242 q 685 368 698 312 q 641 466 672 425 q 561 529 611 507 q 435 551 510 551 q 276 523 343 551 q 178 462 210 495 l 199 544 l 199 0 l 97 0 l 97 1000 l 199 1000 z "},"Ө":{"ha":1033,"x_min":42,"x_max":963,"o":"m 127 449 l 127 551 l 896 551 l 896 449 l 127 449 m 502 -21 q 250 45 353 -21 q 94 229 147 112 q 42 500 42 347 q 94 771 42 653 q 250 955 147 888 q 502 1021 353 1021 q 755 955 652 1021 q 910 771 857 888 q 963 500 963 653 q 910 229 963 347 q 755 45 857 112 q 502 -21 652 -21 m 502 77 q 698 131 619 77 q 816 280 776 184 q 855 500 855 375 q 816 720 855 625 q 698 869 776 815 q 502 923 619 922 q 307 869 385 923 q 190 720 229 816 q 150 500 151 625 q 189 280 149 375 q 306 132 228 185 q 502 77 385 78 z "},"а":{"ha":772,"x_min":56,"x_max":688,"o":"m 312 -21 q 170 10 227 -21 q 84 91 113 40 q 56 201 56 142 q 80 306 56 263 q 148 377 105 349 q 247 419 190 405 q 373 444 303 433 q 508 463 442 455 q 624 478 574 471 l 588 456 q 545 621 590 567 q 388 674 500 674 q 258 640 311 674 q 183 530 205 605 l 84 559 q 188 715 110 660 q 390 771 265 771 q 564 732 492 771 q 666 621 636 694 q 684 548 680 588 q 688 466 688 508 l 688 0 l 597 0 l 597 188 l 624 177 q 505 30 585 81 q 312 -21 424 -21 m 324 67 q 449 93 395 67 q 535 164 502 119 q 577 265 567 208 q 586 344 585 301 q 587 409 587 388 l 626 389 q 513 375 574 382 q 393 359 452 368 q 288 338 335 350 q 226 312 256 328 q 177 269 196 296 q 158 201 158 242 q 174 138 158 169 q 227 88 190 108 q 324 67 263 67 z "},"б":{"ha":810,"x_min":55,"x_max":754,"o":"m 398 -22 q 218 24 293 -21 q 102 159 143 69 q 57 383 60 249 q 60 511 55 442 q 75 644 65 581 q 100 747 85 708 q 152 843 118 799 q 230 917 185 888 q 327 962 273 946 q 441 988 382 978 q 559 1003 501 997 q 668 1021 618 1010 l 679 928 q 589 915 641 921 q 480 900 537 908 q 371 876 423 891 q 282 838 319 862 q 195 735 226 804 q 158 578 165 667 q 273 679 201 645 q 427 713 344 713 q 602 667 528 713 q 715 538 675 620 q 754 348 754 455 q 711 153 754 236 q 588 24 667 69 q 398 -22 508 -22 m 406 76 q 585 150 524 76 q 647 346 647 224 q 583 543 647 471 q 404 615 519 615 q 227 543 289 615 q 165 346 165 471 q 227 149 165 221 q 406 76 289 76 z "},"в":{"ha":744,"x_min":97,"x_max":702,"o":"m 97 0 l 97 750 l 406 750 q 463 747 429 750 q 526 737 497 744 q 627 669 589 720 q 666 545 666 617 q 654 473 666 505 q 619 419 642 442 q 597 398 609 407 q 572 384 584 390 q 620 365 594 380 q 681 301 660 341 q 702 204 702 261 q 665 78 702 127 q 567 12 628 30 q 507 2 539 4 q 446 0 474 0 l 97 0 m 199 87 l 441 87 q 478 89 456 87 q 517 96 500 92 q 577 138 558 106 q 597 207 597 169 q 568 288 597 256 q 491 326 539 319 q 458 331 475 330 q 426 331 440 331 l 199 331 l 199 87 m 199 419 l 409 419 q 450 421 427 419 q 489 430 472 424 q 542 473 525 442 q 559 540 559 503 q 541 609 559 579 q 485 651 522 639 q 432 661 460 660 q 395 663 403 663 l 199 663 l 199 419 z "},"г":{"ha":646,"x_min":97,"x_max":611,"o":"m 97 0 l 97 750 l 611 750 l 611 652 l 199 652 l 199 0 l 97 0 z "},"ѓ":{"ha":646,"x_min":97,"x_max":611,"o":"m 349 868 l 262 868 l 345 1083 l 433 1083 l 349 868 m 97 0 l 97 750 l 611 750 l 611 652 l 199 652 l 199 0 l 97 0 z "},"ґ":{"ha":646,"x_min":97,"x_max":611,"o":"m 97 0 l 97 750 l 509 750 l 509 880 l 611 880 l 611 652 l 199 652 l 199 0 l 97 0 z "},"д":{"ha":831,"x_min":42,"x_max":790,"o":"m 42 -167 l 42 88 q 133 129 106 88 q 178 261 161 170 q 198 388 190 320 q 211 544 206 456 q 222 750 217 632 l 717 750 l 717 88 l 790 88 l 790 -167 l 691 -167 l 691 0 l 140 0 l 140 -167 l 42 -167 m 215 88 l 616 88 l 616 663 l 316 663 q 310 551 314 610 q 301 433 306 492 q 289 322 296 374 q 274 231 283 270 q 251 146 263 181 q 215 88 239 110 z "},"е":{"ha":812,"x_min":56,"x_max":759,"o":"m 415 -21 q 225 28 305 -21 q 100 165 144 76 q 56 372 56 253 q 99 584 56 494 q 223 722 143 674 q 410 771 302 771 q 600 720 522 771 q 719 574 678 669 q 756 347 759 478 l 651 347 l 651 383 q 589 603 649 528 q 413 677 528 677 q 228 599 292 677 q 164 375 164 520 q 228 155 164 233 q 410 77 292 77 q 551 114 491 77 q 646 222 611 151 l 741 185 q 610 33 697 87 q 415 -21 524 -21 m 128 347 l 128 432 l 701 432 l 701 347 l 128 347 z "},"ѐ":{"ha":812,"x_min":56,"x_max":759,"o":"m 376 868 l 294 1083 l 381 1083 l 464 868 l 376 868 m 415 -21 q 225 28 305 -21 q 100 165 144 76 q 56 372 56 253 q 99 584 56 494 q 223 722 143 674 q 410 771 302 771 q 600 720 522 771 q 719 574 678 669 q 756 347 759 478 l 651 347 l 651 383 q 589 603 649 528 q 413 677 528 677 q 228 599 292 677 q 164 375 164 520 q 228 155 164 233 q 410 77 292 77 q 551 114 491 77 q 646 222 611 151 l 741 185 q 610 33 697 87 q 415 -21 524 -21 m 128 347 l 128 432 l 701 432 l 701 347 l 128 347 z "}}}
